<?xml version="1.0" encoding="UTF-8" standalone="no"?>
<!DOCTYPE svg  PUBLIC '-//W3C//DTD SVG 1.1//EN'  'http://www.w3.org/Graphics/SVG/1.1/DTD/svg11.dtd'>
<svg xmlns="http://www.w3.org/2000/svg">
<defs>
<font id="SourceSansPro-Light" horiz-adv-x="479">
<font-face underline-position="-50" font-weight="300" descent="-200" panose-1="2 11 4 3 3 4 3 2 2 4" units-per-em="1000" unicode-range="U+0020-25CA" bbox="-165 -250 1122 871" x-height="480" underline-thickness="50" font-family="Source Sans Pro Light" ascent="800" cap-height="659"/>
<missing-glyph horiz-adv-x="1000"/>
<glyph glyph-name=".notdef" horiz-adv-x="1000"/>
<glyph glyph-name=".null" horiz-adv-x="0"/>
<glyph glyph-name="nonmarkingreturn" horiz-adv-x="333"/>
<glyph glyph-name="space" horiz-adv-x="200" unicode=" "/>
<glyph glyph-name="exclam" horiz-adv-x="259" unicode="!" d="M130 -12q-17 0 -30 12.5t-13 32.5q0 21 13 33.5t30 12.5t29.5 -12.5t12.5 -33.5q0 -20 -12.5 -32.5t-29.5 -12.5zM113 179l-6 420v71h46l-1 -71l-6 -420h-33z"/>
<glyph glyph-name="quotedbl" horiz-adv-x="360" unicode='&quot;' d="M233 477l-8 147l-1 69h51v-69l-9 -147h-33zM92 477l-8 147l-1 69h51v-69l-9 -147h-33z"/>
<glyph glyph-name="numbersign" d="M158 250h150l21 170h-150zM93 0l26 214h-83v36h87l21 170h-88v36h92l25 194h35l-25 -194h149l26 194h34l-25 -194h82v-36h-85l-21 -170h86v-36h-91l-25 -214h-35l25 214h-149l-26 -214h-35z" unicode="#"/>
<glyph glyph-name="dollar" d="M226 -110v99q-93 7 -167 77l24 31q78 -70 161 -70q62 0 96 33.5t34 89.5q0 54 -30 91t-72 58t-84.5 42.5t-72.5 59.5t-30 94q0 62 40 105t101 50v99h39v-99q45 -3 76 -20.5t61 -49.5l-26 -28q-33 32 -60 46t-70 14q-51 0 -83.5 -32.5t-32.5 -82.5q0 -48 30 -80t72 -52 t84.5 -42t72.5 -64.5t30 -105.5q0 -70 -43 -114t-111 -50v-99h-39z" unicode="$"/>
<glyph glyph-name="percent" horiz-adv-x="805" unicode="%" d="M624 21q47 0 74.5 46.5t27.5 128.5t-27.5 127.5t-74.5 45.5t-74.5 -45.5t-27.5 -127.5t27.5 -128.5t74.5 -46.5zM624 -12q-66 0 -103.5 54.5t-37.5 153.5q0 98 37.5 152t103.5 54t103.5 -54t37.5 -152q0 -99 -37.5 -153.5t-103.5 -54.5zM198 -12l368 683h38l-367 -683 h-39zM181 290q47 0 74.5 46.5t27.5 128.5t-27.5 127.5t-74.5 45.5t-74.5 -45.5t-27.5 -127.5t27.5 -128.5t74.5 -46.5zM181 257q-66 0 -103.5 54.5t-37.5 153.5q0 98 37.5 152t103.5 54t103.5 -54t37.5 -152q0 -99 -37.5 -153.5t-103.5 -54.5z"/>
<glyph glyph-name="ampersand" horiz-adv-x="575" unicode="&amp;" d="M230 26q77 0 146 71q-119 109 -187 232q-52 -41 -80 -77.5t-28 -81.5q0 -64 43.5 -104t105.5 -40zM168 526q0 -63 37 -140q63 45 95.5 81t32.5 82q0 36 -17.5 61t-54.5 25q-42 0 -67.5 -31.5t-25.5 -77.5zM226 -12q-81 0 -135.5 49.5t-54.5 129.5q0 59 35 102.5t100 91.5 q-44 91 -44 163q0 64 38 105.5t98 41.5q52 0 81 -33.5t29 -86.5q0 -30 -11.5 -57t-38.5 -54t-45 -42t-57 -44q68 -125 183 -226q68 85 104 217h43q-43 -148 -117 -242q66 -53 128 -76l-15 -39q-65 23 -141 83q-81 -83 -180 -83z"/>
<glyph glyph-name="quotesingle" horiz-adv-x="219" unicode="&apos;" d="M92 477l-8 147l-1 69h51v-69l-9 -147h-33z"/>
<glyph glyph-name="parenleft" horiz-adv-x="279" unicode="(" d="M220 -175q-132 214 -132 453t132 453l27 -16q-120 -191 -120 -437t120 -437z"/>
<glyph glyph-name="parenright" horiz-adv-x="279" unicode=")" d="M59 -175l-27 16q120 191 120 437t-120 437l27 16q132 -214 132 -453t-132 -453z"/>
<glyph glyph-name="asterisk" horiz-adv-x="395" unicode="*" d="M132 462l-27 20l55 88l-90 36l10 30l94 -26l7 102h32l7 -100l95 24l10 -30l-90 -36l54 -88l-27 -20l-64 83z"/>
<glyph glyph-name="plus" d="M219 110v201h-185v38h185v201h41v-201h185v-38h-185v-201h-41z" unicode="+"/>
<glyph glyph-name="comma" horiz-adv-x="219" unicode="," d="M62 -155l-14 30q77 40 77 121q-4 -1 -12 -1q-18 0 -30 11t-12 31q0 19 12.5 30.5t30.5 11.5q23 0 37 -19t14 -52q0 -53 -28 -95.5t-75 -67.5z"/>
<glyph glyph-name="hyphen" horiz-adv-x="299" unicode="-" d="M40 230v39h220v-39h-220z"/>
<glyph glyph-name="period" horiz-adv-x="219" unicode="." d="M110 -12q-17 0 -30 12.5t-13 32.5q0 21 13 33.5t30 12.5t29.5 -12.5t12.5 -33.5q0 -20 -12.5 -32.5t-29.5 -12.5z"/>
<glyph glyph-name="slash" horiz-adv-x="357" unicode="/" d="M9 -160l305 870h38l-305 -870h-38z"/>
<glyph glyph-name="zero" d="M239 26q68 0 107 76t39 220q0 143 -39 217t-107 74t-107 -74t-39 -217t39 -219.5t107 -76.5zM239 -12q-91 0 -141 87t-50 247q0 159 49.5 244t141.5 85t141.5 -85t49.5 -244q0 -160 -50 -247t-141 -87z" unicode="0"/>
<glyph glyph-name="one" d="M84 0v39h150v530h-114v30q75 13 123 40h36v-600h139v-39h-334z" unicode="1"/>
<glyph glyph-name="two" d="M41 0v28q174 177 244.5 271t70.5 172q0 63 -35 102.5t-104 39.5q-81 0 -149 -84l-29 28q85 94 182 94q85 0 132.5 -48.5t47.5 -130.5q0 -31 -8 -61.5t-30 -68t-40.5 -64.5t-61.5 -76t-68.5 -76.5t-84.5 -90.5q88 5 107 5h218v-40h-392z" unicode="2"/>
<glyph glyph-name="three" d="M232 -12q-117 0 -203 90l26 31q74 -82 177 -82q65 0 107 39t42 102q0 148 -223 148v39q105 0 152.5 38t47.5 101q0 54 -35 86.5t-94 32.5q-81 0 -147 -70l-26 30q80 78 173 78q77 0 126 -41t49 -113q0 -116 -122 -158v-4q63 -13 104 -57t41 -109q0 -82 -55.5 -131.5 t-139.5 -49.5z" unicode="3"/>
<glyph glyph-name="four" d="M70 229h240v234q0 52 4 110h-4q-9 -15 -26.5 -41t-25.5 -39zM310 0v191h-294v26l297 422h40v-410h95v-38h-95v-191h-43z" unicode="4"/>
<glyph glyph-name="five" d="M227 -12q-115 0 -201 86l25 31q76 -78 175 -78q66 0 112.5 48.5t46.5 123.5q0 77 -42 121t-114 44q-56 0 -119 -43l-31 19l23 299h295v-39h-255l-20 -231q56 34 114 34q86 0 140.5 -51t54.5 -151q0 -97 -61 -155t-143 -58z" unicode="5"/>
<glyph glyph-name="six" d="M262 26q55 0 92 46.5t37 115.5q0 73 -34 116.5t-104 43.5q-84 0 -155 -96q6 -105 47.5 -165.5t116.5 -60.5zM261 -12q-97 0 -153 79t-56 223q0 188 66.5 274.5t168.5 86.5q80 0 135 -62l-27 -30q-42 53 -108 53q-84 0 -137 -75.5t-53 -239.5q73 89 161 89q85 0 131.5 -51 t46.5 -147q0 -86 -51.5 -143t-123.5 -57z" unicode="6"/>
<glyph glyph-name="seven" d="M188 0q7 192 51.5 328t141.5 272h-337v39h393v-26q-110 -146 -151.5 -280.5t-49.5 -332.5h-48z" unicode="7"/>
<glyph glyph-name="eight" d="M243 25q66 0 107.5 37.5t41.5 93.5q0 34 -14.5 60t-43.5 45.5t-56.5 32t-69.5 29.5q-7 3 -11 4q-113 -66 -113 -161q0 -60 45.5 -100.5t113.5 -40.5zM290 335q84 68 84 148q0 55 -35.5 93t-95.5 38q-53 0 -88 -33.5t-35 -85.5q0 -32 13.5 -57.5t41.5 -45t51.5 -30.5 t63.5 -27zM243 -12q-88 0 -145.5 50t-57.5 126q0 59 37.5 105.5t90.5 74.5v4q-92 61 -92 147q0 68 48 112t119 44q80 0 126.5 -46.5t46.5 -120.5q0 -47 -28 -90.5t-63 -71.5v-4q52 -32 82 -68.5t30 -94.5q0 -71 -54 -119t-140 -48z" unicode="8"/>
<glyph glyph-name="nine" d="M191 -12q-81 0 -135 62l27 30q42 -53 109 -53q84 0 137 75.5t53 239.5q-73 -88 -162 -88q-84 0 -130.5 51t-46.5 147q0 86 51.5 142.5t123.5 56.5q97 0 152.5 -78.5t55.5 -222.5q0 -188 -66 -275t-169 -87zM226 291q37 0 79 24.5t76 72.5q-6 105 -47.5 165t-117.5 60 q-55 0 -92 -46.5t-37 -114.5q0 -74 34.5 -117.5t104.5 -43.5z" unicode="9"/>
<glyph glyph-name="colon" horiz-adv-x="219" unicode=":" d="M110 -12q-17 0 -30 12.5t-13 32.5q0 21 13 33.5t30 12.5t29.5 -12.5t12.5 -33.5q0 -20 -12.5 -32.5t-29.5 -12.5zM110 370q-17 0 -30 12.5t-13 32.5q0 21 13 33.5t30 12.5t29.5 -12.5t12.5 -33.5q0 -20 -12.5 -32.5t-29.5 -12.5z"/>
<glyph glyph-name="semicolon" horiz-adv-x="219" unicode=";" d="M62 -155l-14 30q77 40 77 121q-4 -1 -12 -1q-18 0 -30 11t-12 31q0 19 12.5 30.5t30.5 11.5q23 0 37 -19t14 -52q0 -53 -28 -95.5t-75 -67.5zM110 370q-17 0 -30 12.5t-13 32.5q0 21 13 33.5t30 12.5t29.5 -12.5t12.5 -33.5q0 -20 -12.5 -32.5t-29.5 -12.5z"/>
<glyph glyph-name="less" d="M445 146l-411 164v44l411 164v-43l-232 -90l-133 -51v-4l133 -51l232 -90v-43z" unicode="&lt;"/>
<glyph glyph-name="equal" d="M34 209v38h411v-38h-411zM34 413v38h411v-38h-411z" unicode="="/>
<glyph glyph-name="greater" d="M34 146v43l232 90l133 51v4l-133 51l-232 90v43l411 -164v-44z" unicode="&gt;"/>
<glyph glyph-name="question" horiz-adv-x="402" unicode="?" d="M186 -12q-17 0 -29.5 12.5t-12.5 32.5q0 21 12.5 33.5t29.5 12.5t30 -12.5t13 -33.5q0 -20 -13 -32.5t-30 -12.5zM163 179q-2 20 -2 30q0 40 15 76.5t36 65t42.5 55t36.5 58t15 62.5q0 50 -29 83.5t-84 33.5q-77 0 -129 -64l-27 25q69 78 160 78q71 0 113 -43t42 -110 q0 -35 -15.5 -69.5t-37.5 -62.5t-44 -56.5t-37.5 -64.5t-15.5 -73q0 -16 1 -24h-40z"/>
<glyph glyph-name="at" horiz-adv-x="814" unicode="@" d="M364 98q50 0 108 67l31 173q-32 49 -74 49q-64 0 -104.5 -58.5t-40.5 -127.5q0 -103 80 -103zM388 -146q-148 0 -242 93.5t-94 254.5q0 190 116.5 310.5t280.5 120.5q144 0 229 -87t85 -230q0 -119 -57.5 -189.5t-126.5 -70.5q-41 0 -67 19t-30 57h-2q-63 -70 -122 -70 q-49 0 -81.5 35.5t-32.5 100.5q0 81 52 153t134 72q53 0 83 -48h2l9 40h34l-36 -189q-9 -36 -9 -62q0 -73 69 -73q53 0 98 61.5t45 160.5q0 130 -75 207.5t-204 77.5q-143 0 -249.5 -110.5t-106.5 -282.5q0 -145 82.5 -230t218.5 -85q89 0 168 48l16 -30q-86 -54 -187 -54z "/>
<glyph glyph-name="A" horiz-adv-x="526" unicode="A" d="M8 0l232 659h46l232 -659h-48l-77 226h-261l-78 -226h-46zM188 388l-42 -123h234l-42 123q-46 133 -73 228h-4q-27 -95 -73 -228z"/>
<glyph glyph-name="B" horiz-adv-x="578" unicode="B" d="M143 38h133q101 0 156.5 38t55.5 115q0 140 -212 140h-133v-293zM143 369h114q190 0 190 125q0 68 -45.5 97.5t-139.5 29.5h-119v-252zM97 0v659h178q103 0 160.5 -40t57.5 -120q0 -53 -26.5 -91t-75.5 -53v-4q66 -11 104 -52t38 -107q0 -93 -65.5 -142.5t-179.5 -49.5 h-191z"/>
<glyph glyph-name="C" horiz-adv-x="564" unicode="C" d="M331 -12q-123 0 -199.5 93.5t-76.5 249.5t77.5 248t203.5 92q105 0 172 -79l-27 -31q-60 68 -144 68q-109 0 -171.5 -80t-62.5 -218t62 -219.5t168 -81.5q94 0 167 81l27 -29q-83 -94 -196 -94z"/>
<glyph glyph-name="D" horiz-adv-x="604" unicode="D" d="M143 39h102q129 0 192.5 79t63.5 214q0 134 -63.5 211t-192.5 77h-102v-581zM97 0v659h153q148 0 223.5 -86.5t75.5 -240.5q0 -155 -75.5 -243.5t-222.5 -88.5h-154z"/>
<glyph glyph-name="E" horiz-adv-x="515" unicode="E" d="M97 0v659h361v-40h-315v-249h264v-40h-264v-290h325v-40h-371z"/>
<glyph glyph-name="F" horiz-adv-x="477" unicode="F" d="M97 0v659h359v-40h-313v-262h265v-40h-265v-317h-46z"/>
<glyph glyph-name="G" horiz-adv-x="605" unicode="G" d="M338 -12q-128 0 -205.5 93t-77.5 250q0 156 80 248t211 92q105 0 180 -79l-27 -31q-62 68 -152 68q-113 0 -178.5 -80t-65.5 -218t63 -219.5t175 -81.5q98 0 148 50v205h-158v39h202v-261q-70 -75 -195 -75z"/>
<glyph glyph-name="H" horiz-adv-x="639" unicode="H" d="M97 0v659h46v-289h353v289h46v-659h-46v330h-353v-330h-46z"/>
<glyph glyph-name="I" horiz-adv-x="240" unicode="I" d="M97 0v659h46v-659h-46z"/>
<glyph glyph-name="J" horiz-adv-x="462" unicode="J" d="M203 -12q-110 0 -162 97l35 23q45 -78 127 -78q60 0 89 37t29 117v475h46v-480q0 -86 -39.5 -138.5t-124.5 -52.5z"/>
<glyph glyph-name="K" horiz-adv-x="558" unicode="K" d="M97 0v659h46v-366h2l319 366h55l-210 -244l239 -415h-53l-218 380l-134 -153v-227h-46z"/>
<glyph glyph-name="L" horiz-adv-x="467" unicode="L" d="M97 0v659h46v-619h304v-40h-350z"/>
<glyph glyph-name="M" horiz-adv-x="706" unicode="M" d="M97 0v659h65l138 -387q5 -15 23.5 -66.5t28.5 -79.5h4q7 20 24 69.5t26 76.5l137 387h66v-659h-45v433q0 68 6 178h-4l-51 -147l-142 -392h-40l-143 392l-52 147h-4q6 -165 6 -178v-433h-43z"/>
<glyph glyph-name="N" horiz-adv-x="636" unicode="N" d="M97 0v659h48l278 -465l74 -131h4l-6 192v404h44v-659h-48l-278 465l-74 131h-4q1 -21 2.5 -58.5t2.5 -69t1 -59.5v-409h-44z"/>
<glyph glyph-name="O" horiz-adv-x="652" unicode="O" d="M326 30q101 0 162 82.5t61 219.5q0 136 -61 216.5t-162 80.5t-162 -80.5t-61 -216.5q0 -137 61 -219.5t162 -82.5zM326 -12q-120 0 -195.5 94.5t-75.5 249.5q0 154 75.5 246.5t195.5 92.5q121 0 196.5 -92.5t75.5 -246.5q0 -155 -76 -249.5t-196 -94.5z"/>
<glyph glyph-name="P" horiz-adv-x="549" unicode="P" d="M143 322h113q102 0 150.5 36.5t48.5 116.5q0 81 -48.5 113t-154.5 32h-109v-298zM97 0v659h166q117 0 178 -43t61 -141q0 -95 -61.5 -143.5t-173.5 -48.5h-124v-283h-46z"/>
<glyph glyph-name="Q" horiz-adv-x="652" unicode="Q" d="M519 -156q-80 0 -136.5 40t-82.5 105q-109 11 -177 104t-68 239q0 154 75.5 246.5t195.5 92.5q121 0 196.5 -92.5t75.5 -246.5q0 -147 -68 -239.5t-179 -103.5q46 -102 172 -102q33 0 67 8l10 -39q-41 -12 -81 -12zM326 27q101 0 162 83.5t61 221.5q0 136 -61 216.5 t-162 80.5t-162 -80.5t-61 -216.5q0 -138 61 -221.5t162 -83.5z"/>
<glyph glyph-name="R" horiz-adv-x="544" unicode="R" d="M143 341h131q181 0 181 144q0 72 -45.5 103.5t-135.5 31.5h-131v-279zM97 0v659h189q216 0 216 -174q0 -77 -44.5 -123t-124.5 -56l182 -306h-53l-179 303h-140v-303h-46z"/>
<glyph glyph-name="S" horiz-adv-x="521" unicode="S" d="M269 -12q-134 0 -223 99l30 32q79 -89 193 -89q75 0 119.5 36.5t44.5 95.5q0 30 -8.5 52t-27.5 38t-35.5 25t-46.5 23l-100 45q-27 12 -46 23.5t-41.5 30.5t-34.5 47t-12 63q0 71 54.5 116.5t137.5 45.5q110 0 183 -79l-26 -30q-65 67 -157 67q-66 0 -106 -32t-40 -86 q0 -27 9.5 -48t30.5 -36.5t34.5 -23t39.5 -19.5l100 -44q67 -30 103 -68t36 -107q0 -77 -58 -127t-153 -50z"/>
<glyph glyph-name="T" horiz-adv-x="524" unicode="T" d="M239 0v619h-210v40h466v-40h-210v-619h-46z"/>
<glyph glyph-name="U" horiz-adv-x="634" unicode="U" d="M316 -12q-45 0 -82.5 13t-70 42t-50.5 82.5t-18 127.5v406h46v-401q0 -122 48.5 -175t126.5 -53q80 0 130 53t50 175v401h43v-406q0 -74 -18.5 -127.5t-51 -82.5t-70 -42t-83.5 -13z"/>
<glyph glyph-name="V" horiz-adv-x="491" unicode="V" d="M222 0l-218 659h49l122 -385q57 -183 70 -221h4q12 36 23 71.5t24 78.5t22 71l122 385h47l-216 -659h-49z"/>
<glyph glyph-name="W" horiz-adv-x="770" unicode="W" d="M178 0l-150 659h48l83 -388q30 -144 45 -215h4q25 112 51 215l103 388h47l103 -388q9 -36 26.5 -107.5t26.5 -107.5h4q7 36 21 107.5t22 107.5l83 388h45l-147 -659h-51l-120 452q-3 15 -16 67t-19 82h-4q-6 -28 -19 -77.5t-18 -71.5l-118 -452h-50z"/>
<glyph glyph-name="X" horiz-adv-x="482" unicode="X" d="M17 0l198 341l-184 318h50l108 -194l54 -90h4q37 69 49 90l108 194h47l-184 -320l198 -339h-50l-115 202q-20 37 -61 105h-4q-33 -62 -56 -105l-115 -202h-47z"/>
<glyph glyph-name="Y" horiz-adv-x="447" unicode="Y" d="M200 0v267l-197 392h49l100 -206q53 -111 70 -142h4q55 106 71 142l100 206h47l-198 -392v-267h-46z"/>
<glyph glyph-name="Z" horiz-adv-x="538" unicode="Z" d="M50 0v27l379 592h-346v40h404v-27l-380 -592h383v-40h-440z"/>
<glyph glyph-name="bracketleft" horiz-adv-x="279" unicode="[" d="M98 -152v860h160v-29h-125v-802h125v-29h-160z"/>
<glyph glyph-name="backslash" horiz-adv-x="357" unicode="\" d="M311 -160l-306 870h38l306 -870h-38z"/>
<glyph glyph-name="bracketright" horiz-adv-x="279" unicode="]" d="M21 -152v29h125v802h-125v29h160v-860h-160z"/>
<glyph glyph-name="asciicircum" d="M66 290l150 380h46l151 -380h-43l-77 203l-52 133h-4l-51 -133l-77 -203h-43z" unicode="^"/>
<glyph glyph-name="underscore" horiz-adv-x="500" unicode="_" d="M12 -117v38h476v-38h-476z"/>
<glyph glyph-name="grave" horiz-adv-x="535" unicode="`" d="M296 574l-144 151l34 29l134 -157z"/>
<glyph glyph-name="a" horiz-adv-x="491" unicode="a" d="M205 26q71 0 163 78v163q-144 -17 -204.5 -51.5t-60.5 -93.5q0 -49 28.5 -72.5t73.5 -23.5zM197 -12q-61 0 -100 33.5t-39 98.5q0 79 73.5 121t236.5 60v5q0 147 -114 147q-76 0 -153 -56l-20 33q88 62 179 62q80 0 116 -50.5t36 -134.5v-307h-38l-4 62h-3 q-93 -74 -170 -74z"/>
<glyph glyph-name="b" horiz-adv-x="542" unicode="b" d="M278 27q73 0 120 61.5t47 158.5q0 95 -37 150.5t-115 55.5q-69 0 -157 -79v-285q73 -62 142 -62zM280 -12q-70 0 -144 61h-2l-5 -49h-37v719h44v-208l-2 -94q90 75 166 75q94 0 143 -65.5t49 -179.5q0 -118 -62 -188.5t-150 -70.5z"/>
<glyph glyph-name="c" horiz-adv-x="449" unicode="c" d="M270 -12q-96 0 -157 67.5t-61 183.5t63.5 184.5t155.5 68.5q76 0 141 -59l-26 -31q-55 51 -114 51q-74 0 -124 -60t-50 -154q0 -95 48 -153.5t126 -58.5q68 0 128 55l23 -31q-72 -63 -153 -63z"/>
<glyph glyph-name="d" horiz-adv-x="544" unicode="d" d="M257 27q72 0 151 79v285q-70 62 -140 62q-72 0 -120.5 -61.5t-48.5 -152.5q0 -97 41.5 -154.5t116.5 -57.5zM251 -12q-92 0 -145.5 65.5t-53.5 185.5q0 113 62.5 183t150.5 70q41 0 73 -14t72 -45l-2 88v198h44v-719h-38l-4 62h-3q-74 -74 -156 -74z"/>
<glyph glyph-name="e" horiz-adv-x="483" unicode="e" d="M97 270h306q0 90 -37.5 137t-103.5 47q-64 0 -111 -50t-54 -134zM274 -12q-95 0 -158.5 68t-63.5 183q0 113 62.5 183t146.5 70q86 0 135 -58.5t49 -163.5q0 -24 -2 -36h-346q2 -92 51.5 -150t129.5 -58q69 0 129 43l18 -34q-78 -47 -151 -47z"/>
<glyph glyph-name="f" horiz-adv-x="263" unicode="f" d="M99 0v442h-66v34l66 4v107q0 71 31 107.5t88 36.5q35 0 70 -16l-12 -36q-28 14 -58 14q-75 0 -75 -109v-104h111v-38h-111v-442h-44z"/>
<glyph glyph-name="g" horiz-adv-x="487" unicode="g" d="M254 -195q78 0 127.5 37t49.5 84q0 73 -111 73h-103q-27 0 -60 8q-63 -43 -63 -101q0 -46 42.5 -73.5t117.5 -27.5zM242 188q51 0 87.5 38t36.5 97t-36 96t-88 37q-53 0 -89 -36.5t-36 -96.5q0 -59 36.5 -97t88.5 -38zM249 -231q-91 0 -144 36t-53 97q0 64 71 116v4 q-42 25 -42 77q0 51 52 88v4q-60 52 -60 132q0 73 49 121t120 48q33 0 63 -12h163v-37h-112q53 -46 53 -121q0 -73 -48 -121t-119 -48q-46 0 -80 20q-39 -32 -39 -69q0 -63 92 -63h103q81 0 119.5 -26.5t38.5 -83.5q0 -65 -63.5 -113.5t-163.5 -48.5z"/>
<glyph glyph-name="h" horiz-adv-x="528" unicode="h" d="M92 0v719h44v-314q87 87 166 87q74 0 109.5 -45.5t35.5 -138.5v-308h-44v302q0 77 -26 113.5t-84 36.5q-41 0 -75.5 -21t-81.5 -69v-362h-44z"/>
<glyph glyph-name="i" horiz-adv-x="229" unicode="i" d="M115 596q-17 0 -28.5 11t-11.5 28q0 18 11.5 29t28.5 11t28.5 -11t11.5 -29q0 -17 -11.5 -28t-28.5 -11zM92 0v480h44v-480h-44z"/>
<glyph glyph-name="j" horiz-adv-x="229" unicode="j" d="M115 596q-16 0 -28 11t-12 28q0 18 12 29t28 11q17 0 29 -11t12 -29q0 -17 -12 -28t-29 -11zM29 -229q-32 0 -62 12l11 36q30 -10 50 -10q38 0 51 26.5t13 78.5v566h45v-569q0 -140 -108 -140z"/>
<glyph glyph-name="k" horiz-adv-x="464" unicode="k" d="M92 0v719h44v-530h2l237 291h51l-156 -190l182 -290h-49l-159 257l-108 -126v-131h-44z"/>
<glyph glyph-name="l" horiz-adv-x="237" unicode="l" d="M151 -12q-59 0 -59 76v655h44v-661q0 -31 21 -31q8 0 18 2l8 -36q-15 -5 -32 -5z"/>
<glyph glyph-name="m" horiz-adv-x="812" unicode="m" d="M92 0v480h38l4 -74h3q75 86 151 86q105 0 133 -98q90 98 163 98q144 0 144 -184v-308h-45v302q0 150 -107 150q-64 0 -144 -90v-362h-44v302q0 77 -26.5 113.5t-81.5 36.5q-64 0 -144 -90v-362h-44z"/>
<glyph glyph-name="n" horiz-adv-x="532" unicode="n" d="M92 0v480h38l4 -74h3q86 86 165 86q74 0 109.5 -45.5t35.5 -138.5v-308h-44v302q0 77 -26 113.5t-84 36.5q-41 0 -75.5 -21t-81.5 -69v-362h-44z"/>
<glyph glyph-name="o" horiz-adv-x="535" unicode="o" d="M267 27q73 0 121.5 59t48.5 153t-48.5 154t-121.5 60t-121 -59.5t-48 -154.5q0 -94 48 -153t121 -59zM267 -12q-90 0 -152.5 68t-62.5 183q0 116 62.5 184.5t152.5 68.5q91 0 153.5 -68.5t62.5 -184.5q0 -115 -62.5 -183t-153.5 -68z"/>
<glyph glyph-name="p" horiz-adv-x="544" unicode="p" d="M278 27q73 0 120 61.5t47 158.5q0 95 -37 150.5t-115 55.5q-67 0 -157 -79v-285q76 -62 142 -62zM92 -217v697h38l4 -60h3q91 72 163 72q94 0 143 -65.5t49 -179.5q0 -118 -62 -188.5t-150 -70.5q-64 0 -144 59v-264h-44z"/>
<glyph glyph-name="q" horiz-adv-x="544" unicode="q" d="M257 27q72 0 151 79v285q-70 62 -140 62q-72 0 -120.5 -61.5t-48.5 -152.5q0 -97 41.5 -154.5t116.5 -57.5zM408 -217v185l2 95q-79 -75 -159 -75q-92 0 -145.5 65.5t-53.5 185.5q0 113 62.5 183t150.5 70q71 0 143 -56h2l5 44h37v-697h-44z"/>
<glyph glyph-name="r" horiz-adv-x="317" unicode="r" d="M92 0v480h38l4 -89h3q55 101 136 101q28 0 48 -10l-10 -40q-21 8 -44 8q-80 0 -131 -123v-327h-44z"/>
<glyph glyph-name="s" horiz-adv-x="405" unicode="s" d="M208 -12q-97 0 -176 66l26 33q74 -61 153 -61q54 0 84 27.5t30 67.5t-31.5 63t-85.5 43q-29 10 -45 16.5t-40 19t-36 25.5t-22 32.5t-10 43.5q0 55 41.5 91.5t113.5 36.5q77 0 137 -50l-24 -31q-57 43 -115 43q-52 0 -80 -25.5t-28 -61.5q0 -20 8.5 -35t27.5 -27 t34 -18.5t43 -16.5q83 -31 109 -51q48 -36 48 -96q0 -57 -43.5 -96t-118.5 -39z"/>
<glyph glyph-name="t" horiz-adv-x="312" unicode="t" d="M223 -12q-66 0 -93 37.5t-27 107.5v309h-75v34l76 4l6 139h38v-139h139v-38h-139v-313q0 -50 17.5 -76t63.5 -26q28 0 60 15l12 -36q-50 -18 -78 -18z"/>
<glyph glyph-name="u" horiz-adv-x="529" unicode="u" d="M230 -12q-74 0 -109.5 45.5t-35.5 138.5v308h44v-302q0 -77 26 -113.5t83 -36.5q42 0 77 23t78 75v354h44v-480h-37l-5 80h-2q-79 -92 -163 -92z"/>
<glyph glyph-name="v" horiz-adv-x="434" unicode="v" d="M192 0l-180 480h48l108 -301q9 -26 26 -74t22 -64h4q23 63 49 138l108 301h45l-178 -480h-52z"/>
<glyph glyph-name="w" horiz-adv-x="685" unicode="w" d="M166 0l-142 480h48l86 -311q22 -80 33 -128h4q5 19 10.5 40t13 47t11.5 41l87 311h53l87 -311q7 -25 19.5 -69.5t16.5 -58.5h4q5 19 16.5 61.5t17.5 66.5l85 311h45l-138 -480h-58l-84 298q-7 24 -18.5 69t-18.5 68h-4q-19 -80 -38 -139l-83 -296h-53z"/>
<glyph glyph-name="x" horiz-adv-x="407" unicode="x" d="M14 0l163 251l-150 229h49l78 -122q30 -48 51 -79h4q9 13 24.5 39.5t24.5 39.5l75 122h46l-149 -233l163 -247h-49l-85 131q-31 51 -57 88h-4q-11 -16 -30.5 -48t-24.5 -40l-82 -131h-47z"/>
<glyph glyph-name="y" horiz-adv-x="436" unicode="y" d="M73 -219q-27 0 -49 10l10 39q20 -8 39 -8q81 0 123 127l13 42l-197 489h48l116 -302q38 -101 52 -134h4q5 14 44 134l103 302h45l-190 -540q-53 -159 -161 -159z"/>
<glyph glyph-name="z" horiz-adv-x="404" unicode="z" d="M27 0v24l284 418h-253v38h310v-23l-283 -418h293v-39h-351z"/>
<glyph glyph-name="braceleft" horiz-adv-x="279" unicode="{" d="M224 -152q-58 0 -84.5 27.5t-26.5 100.5q0 38 4 104.5t4 100.5q0 81 -86 81v32q86 0 86 79q0 35 -4 102.5t-4 104.5q0 73 26.5 100.5t84.5 27.5h34v-29h-31q-44 0 -60.5 -24t-16.5 -79q0 -32 3 -93.5t3 -98.5q0 -46 -11 -70.5t-40 -33.5v-4q29 -9 40 -34t11 -70 q0 -37 -3 -98.5t-3 -93.5q0 -55 16.5 -79t60.5 -24h31v-29h-34z"/>
<glyph glyph-name="bar" horiz-adv-x="226" unicode="|" d="M95 -250v1000h36v-1000h-36z"/>
<glyph glyph-name="braceright" horiz-adv-x="279" unicode="}" d="M21 -152v29h31q44 0 60.5 24t16.5 79q0 32 -3 93.5t-3 98.5q0 88 51 104v4q-28 9 -39.5 33.5t-11.5 70.5q0 37 3 98.5t3 93.5q0 55 -16.5 79t-60.5 24h-31v29h34q58 0 84.5 -27.5t26.5 -100.5q0 -37 -4 -104.5t-4 -102.5q0 -79 86 -79v-32q-86 0 -86 -81q0 -34 4 -100.5 t4 -104.5q0 -73 -26.5 -100.5t-84.5 -27.5h-34z"/>
<glyph glyph-name="asciitilde" d="M329 266q-33 0 -66 22.5t-62 45t-53 22.5q-47 0 -79 -63l-29 18q43 83 110 83q33 0 66 -22.5t62 -45t53 -22.5q47 0 79 63l28 -20q-20 -39 -49.5 -60t-59.5 -21z" unicode="~"/>
<glyph glyph-name="uni00A0" horiz-adv-x="199" unicode=" "/>
<glyph glyph-name="exclamdown" horiz-adv-x="259" unicode="¡" d="M130 401q-18 0 -30.5 12.5t-12.5 34.5q0 19 13 31.5t30 12.5t29.5 -12t12.5 -32q0 -22 -12.5 -34.5t-29.5 -12.5zM107 -190v71l6 420h33l6 -420l1 -71h-46z"/>
<glyph glyph-name="cent" d="M255 -28v109q-87 8 -140 69t-53 161t54.5 160.5t138.5 69.5v111h34v-109q75 -2 135 -60l-24 -28q-54 49 -111 49v-385q66 3 123 54l23 -29q-66 -61 -146 -64v-108h-34zM107 311q0 -78 40 -129t108 -61v381q-66 -11 -107 -62.5t-41 -128.5z" unicode="¢"/>
<glyph glyph-name="sterling" d="M57 0v27q53 30 79.5 81.5t26.5 112.5q0 31 -9 72h-100v33l66 3h24q-2 9 -8.5 29.5t-9.5 31.5t-7 28.5t-5.5 32.5t-1.5 30q0 79 45.5 124.5t124.5 45.5q88 0 144 -71l-29 -27q-50 59 -115 59q-59 0 -92 -37t-33 -94q0 -19 3.5 -40t7 -35t11 -40t10.5 -37h165v-36h-157 q8 -37 8 -72q0 -108 -72 -177v-4h295v-40h-371z" unicode="£"/>
<glyph glyph-name="currency" d="M239 174q57 0 97 43.5t40 110.5q0 68 -40 112t-97 44t-97 -44t-40 -112q0 -67 40 -110.5t97 -43.5zM57 114l-26 28l65 67q-38 51 -38 119q0 71 38 122l-65 68l26 28l66 -69q49 44 116 44t116 -44l67 69l26 -28l-66 -68q38 -51 38 -122q0 -68 -37 -119l65 -67l-26 -28 l-67 68q-48 -45 -116 -45q-66 0 -116 45z" unicode="¤"/>
<glyph glyph-name="yen" d="M216 0v165h-166v34h166v71h-166v33h152l-172 336h48l94 -193q42 -88 66 -137h4q12 23 33.5 68.5t33.5 68.5l94 193h46l-174 -336h154v-33h-168v-71h168v-34h-168v-165h-45z" unicode="¥"/>
<glyph glyph-name="brokenbar" horiz-adv-x="226" unicode="¦" d="M95 -250v470h36v-470h-36zM95 279v471h36v-471h-36z"/>
<glyph glyph-name="section" d="M233 -52q-95 0 -161 63l30 28q57 -54 131 -54q45 0 72.5 24.5t27.5 60.5q0 37 -29 63t-70.5 43t-83.5 36.5t-71 54.5t-29 85q0 83 89 131q-33 33 -33 81q0 47 35 82t100 35q75 0 140 -53l-24 -31q-57 46 -115 46q-47 0 -70.5 -22t-23.5 -54q0 -36 29 -61.5t70 -42.5 t82.5 -36.5t70.5 -55.5t29 -87q0 -46 -22 -75.5t-65 -52.5q34 -34 34 -84q0 -53 -42 -88.5t-101 -35.5zM92 355q0 -37 24 -64.5t53.5 -41t74 -33t68.5 -35.5q39 18 57 40t18 60t-24 66.5t-53 42.5t-74 34t-68 35q-38 -22 -57 -45t-19 -59z" unicode="§"/>
<glyph glyph-name="dieresis" horiz-adv-x="535" unicode="¨" d="M356 598q-16 0 -26.5 10.5t-10.5 26.5t10.5 26.5t26.5 10.5t26.5 -10.5t10.5 -26.5t-10.5 -26.5t-26.5 -10.5zM178 598q-16 0 -26.5 10.5t-10.5 26.5t10.5 26.5t26.5 10.5t26.5 -10.5t10.5 -26.5t-10.5 -26.5t-26.5 -10.5z"/>
<glyph glyph-name="copyright" horiz-adv-x="741" unicode="©" d="M376 124q-74 0 -124.5 53.5t-50.5 144.5q0 84 53 135.5t127 51.5q65 0 120 -55l-23 -26q-47 44 -98 44q-60 0 -98 -41.5t-38 -108.5q0 -74 36.5 -117.5t97.5 -43.5q60 0 115 50l20 -28q-33 -29 -63 -44t-74 -15zM371 19q118 0 201 85t83 218q0 132 -83 216t-201 84 q-119 0 -202 -84t-83 -216q0 -133 83.5 -218t201.5 -85zM371 -12q-133 0 -226.5 93t-93.5 241q0 147 93 238.5t227 91.5q133 0 226 -91.5t93 -238.5q0 -148 -93 -241t-226 -93z"/>
<glyph glyph-name="ordfeminine" horiz-adv-x="337" unicode="ª" d="M148 430q48 0 100 49v102q-90 -10 -128.5 -32t-38.5 -57q0 -62 67 -62zM139 398q-44 0 -70.5 24t-26.5 67q0 52 49 79.5t157 38.5q-2 92 -70 92q-54 0 -107 -37l-15 27q64 42 126 42q103 0 103 -125v-200h-30l-6 39h-4q-55 -47 -106 -47z"/>
<glyph glyph-name="guillemotleft" horiz-adv-x="399" unicode="«" d="M321 72l-137 161v38l137 161l25 -21l-123 -159l123 -161zM180 72l-137 161v38l137 161l25 -21l-123 -159l123 -161z"/>
<glyph glyph-name="logicalnot" d="M404 110v201h-370v38h411v-239h-41z" unicode="¬"/>
<glyph glyph-name="uni00AD" horiz-adv-x="299" unicode="­" d="M40 230v39h220v-39h-220z"/>
<glyph glyph-name="registered" horiz-adv-x="401" unicode="®" d="M164 521h29q51 0 51 37q0 38 -48 38h-32v-75zM132 418v206h69q77 0 77 -64q0 -19 -11.5 -35t-28.5 -21l49 -86h-37l-39 76h-47v-76h-32zM200 353q64 0 107.5 46.5t43.5 117.5t-44 119t-107 48t-107 -48t-44 -119t43.5 -117.5t107.5 -46.5zM200 324q-76 0 -129 54t-53 139 q0 86 53 140.5t129 54.5q77 0 129.5 -54.5t52.5 -140.5q0 -85 -52.5 -139t-129.5 -54z"/>
<glyph glyph-name="macron" horiz-adv-x="535" unicode="¯" d="M144 606v36h246v-36h-246z"/>
<glyph glyph-name="degree" horiz-adv-x="311" unicode="°" d="M156 479q35 0 57.5 24.5t22.5 61.5q0 38 -22.5 63t-57.5 25t-57.5 -25t-22.5 -63q0 -37 22.5 -61.5t57.5 -24.5zM156 447q-47 0 -80.5 32.5t-33.5 85.5q0 54 33.5 86.5t80.5 32.5t80.5 -32.5t33.5 -86.5q0 -53 -33.5 -85.5t-80.5 -32.5z"/>
<glyph glyph-name="plusminus" d="M34 0v37h411v-37h-411zM219 109v201h-185v37h185v203h41v-203h185v-37h-185v-201h-41z" unicode="±"/>
<glyph glyph-name="two.sups" horiz-adv-x="362" unicode="²" d="M56 406v25q111 103 152 153.5t41 96.5q0 43 -23.5 68t-62.5 25q-51 0 -91 -62l-25 23q19 31 51.5 52t68.5 21q56 0 88.5 -31.5t32.5 -91.5q0 -23 -8.5 -47t-17.5 -40.5t-35.5 -46.5t-40 -43.5l-53.5 -53.5l-14 -14h192v-34h-255z"/>
<glyph glyph-name="three.sups" horiz-adv-x="362" unicode="³" d="M177 394q-86 0 -137 75l29 22q40 -64 109 -64q38 0 64.5 22.5t26.5 60.5t-37 59t-101 21v28q56 0 89 24.5t33 59.5q0 33 -22.5 53t-60.5 20q-47 0 -89 -52l-25 22q49 63 118 63q50 0 84 -28t34 -75q0 -69 -75 -99q38 -7 64.5 -32.5t26.5 -64.5q0 -53 -37.5 -84t-93.5 -31 z"/>
<glyph glyph-name="acute" horiz-adv-x="535" unicode="´" d="M238 574l-24 23l134 157l34 -29z"/>
<glyph glyph-name="uni00B5" horiz-adv-x="543" unicode="µ" d="M92 -180v660h44v-302q0 -150 106 -150q44 0 80 22t75 89v341h44q0 -47 -1 -132t-1.5 -154.5t-0.5 -129.5q0 -37 30 -37q12 0 28 6l8 -36q-20 -9 -42 -9q-35 0 -49 23.5t-14 77.5h-3q-59 -100 -151 -100q-40 0 -67.5 13t-45.5 47q0 -148 5 -229h-45z"/>
<glyph glyph-name="paragraph" horiz-adv-x="515" unicode="¶" d="M291 244q-117 0 -183 50t-66 157q0 108 62 158t171 50h44v-415h-28zM373 -80v739h46v-739h-46z"/>
<glyph glyph-name="periodcentered" horiz-adv-x="219" unicode="·" d="M110 277q-17 0 -30 12.5t-13 32.5q0 21 13 33.5t30 12.5t29.5 -12.5t12.5 -33.5q0 -20 -12.5 -32.5t-29.5 -12.5z"/>
<glyph glyph-name="cedilla" horiz-adv-x="535" unicode="¸" d="M199 -219l-7 30q63 4 88 17t25 36q0 22 -18 33.5t-60 17.5l41 87h35l-30 -67q71 -18 71 -69q0 -76 -145 -85z"/>
<glyph glyph-name="one.sups" horiz-adv-x="362" unicode="¹" d="M176 406v324h-82v27q53 11 87 39h33v-390h-38z"/>
<glyph glyph-name="ordmasculine" horiz-adv-x="360" unicode="º" d="M179 431q48 0 77.5 37t29.5 97t-29 97t-78 37q-48 0 -77.5 -37t-29.5 -97q0 -59 29.5 -96.5t77.5 -37.5zM179 398q-63 0 -104.5 45t-41.5 122t41.5 121.5t104.5 44.5t104.5 -44.5t41.5 -121.5t-41.5 -122t-104.5 -45z"/>
<glyph glyph-name="guillemotright" horiz-adv-x="399" unicode="»" d="M219 72l-24 19l122 161l-122 159l24 21l138 -161v-38zM78 72l-24 19l122 161l-122 159l24 21l138 -161v-38z"/>
<glyph glyph-name="onequarter" horiz-adv-x="764" unicode="¼" d="M496 146h129v87l4 104h-4l-56 -83zM625 0v114h-177v21l177 255h36v-244h58v-32h-58v-114h-36zM177 -12l368 683h38l-367 -683h-39zM155 269v324h-82v27q53 11 87 39h33v-390h-38z"/>
<glyph glyph-name="onehalf" horiz-adv-x="786" unicode="½" d="M480 0v25q111 103 152 153.5t41 96.5q0 43 -23.5 68t-62.5 25q-51 0 -91 -62l-25 23q19 31 51.5 52t68.5 21q56 0 88.5 -31.5t32.5 -91.5q0 -23 -8.5 -47t-17.5 -40.5t-35.5 -46.5t-40 -43.5l-53.5 -53.5l-14 -14h192v-34h-255zM154 -12l368 683h38l-367 -683h-39z M155 269v324h-82v27q53 11 87 39h33v-390h-38z"/>
<glyph glyph-name="threequarters" horiz-adv-x="783" unicode="¾" d="M515 146h129v87l4 104h-4l-56 -83zM644 0v114h-177v21l177 255h36v-244h58v-32h-58v-114h-36zM224 -12l368 683h38l-367 -683h-39zM177 257q-86 0 -137 75l29 22q40 -64 109 -64q38 0 64.5 22.5t26.5 60.5t-37 59t-101 21v28q56 0 89 24.5t33 59.5q0 33 -22.5 53 t-60.5 20q-47 0 -89 -52l-25 22q49 63 118 63q50 0 84 -28t34 -75q0 -69 -75 -99q38 -7 64.5 -32.5t26.5 -64.5q0 -53 -37.5 -84t-93.5 -31z"/>
<glyph glyph-name="questiondown" horiz-adv-x="402" unicode="¿" d="M216 401q-17 0 -29.5 12.5t-12.5 34.5q0 20 12.5 32t29.5 12t29.5 -12t12.5 -32q0 -22 -12.5 -34.5t-29.5 -12.5zM206 -202q-72 0 -113.5 43t-41.5 110q0 43 23.5 86.5t51.5 74.5t51.5 75.5t23.5 89.5q0 8 -2 24h41q2 -20 2 -29q0 -49 -23 -94.5t-50 -75.5t-50 -70 t-23 -78q0 -50 29 -83.5t85 -33.5q75 0 128 64l28 -25q-71 -78 -160 -78z"/>
<glyph glyph-name="Agrave" horiz-adv-x="526" unicode="À" d="M284 706l-133 113l28 33l125 -123zM8 0l232 659h46l232 -659h-48l-77 226h-261l-78 -226h-46zM188 388l-42 -123h234l-42 123q-46 133 -73 228h-4q-27 -95 -73 -228z"/>
<glyph glyph-name="Aacute" horiz-adv-x="526" unicode="Á" d="M242 706l-20 23l125 123l28 -33zM8 0l232 659h46l232 -659h-48l-77 226h-261l-78 -226h-46zM188 388l-42 -123h234l-42 123q-46 133 -73 228h-4q-27 -95 -73 -228z"/>
<glyph glyph-name="Acircumflex" horiz-adv-x="526" unicode="Â" d="M128 726l113 113h44l113 -113l-20 -19l-113 98h-4l-113 -98zM8 0l232 659h46l232 -659h-48l-77 226h-261l-78 -226h-46zM188 388l-42 -123h234l-42 123q-46 133 -73 228h-4q-27 -95 -73 -228z"/>
<glyph glyph-name="Atilde" horiz-adv-x="526" unicode="Ã" d="M340 718q-26 0 -49 12.5t-36.5 27t-32 27t-36.5 12.5q-22 0 -37 -20.5t-18 -55.5l-33 3q2 48 25.5 79t62.5 31q26 0 49 -12.5t36.5 -27t32 -27t36.5 -12.5q21 0 35.5 20.5t19.5 56.5l33 -3q-2 -48 -25.5 -79.5t-62.5 -31.5zM8 0l232 659h46l232 -659h-48l-77 226h-261 l-78 -226h-46zM188 388l-42 -123h234l-42 123q-46 133 -73 228h-4q-27 -95 -73 -228z"/>
<glyph glyph-name="Adieresis" horiz-adv-x="526" unicode="Ä" d="M361 725q-16 0 -26.5 10t-10.5 26q0 17 10.5 27t26.5 10t26 -10t10 -27q0 -16 -10 -26t-26 -10zM165 725q-16 0 -26 10t-10 26q0 17 10 27t26 10t26.5 -10t10.5 -27q0 -16 -10.5 -26t-26.5 -10zM8 0l232 659h46l232 -659h-48l-77 226h-261l-78 -226h-46zM188 388 l-42 -123h234l-42 123q-46 133 -73 228h-4q-27 -95 -73 -228z"/>
<glyph glyph-name="Aring" horiz-adv-x="526" unicode="Å" d="M263 726q24 0 40 15.5t16 43.5q0 27 -16.5 43.5t-39.5 16.5q-25 0 -41.5 -16t-16.5 -44t16.5 -43.5t41.5 -15.5zM263 700q-38 0 -63 23.5t-25 61.5q0 39 25 62.5t63 23.5q37 0 62.5 -23.5t25.5 -62.5q0 -37 -25.5 -61t-62.5 -24zM8 0l232 659h46l232 -659h-48l-77 226 h-261l-78 -226h-46zM188 388l-42 -123h234l-42 123q-46 133 -73 228h-4q-27 -95 -73 -228z"/>
<glyph glyph-name="AE" horiz-adv-x="809" unicode="Æ" d="M21 0l365 659h366v-40h-295v-249h245v-40h-245v-290h305v-40h-351v217h-222l-119 -217h-49zM283 388l-73 -133h201v364h-4q-29 -53 -124 -231z"/>
<glyph glyph-name="Ccedilla" horiz-adv-x="564" unicode="Ç" d="M262 -219l-7 30q63 4 88 17t25 36q0 22 -18 33.5t-60 17.5l34 73q-120 3 -194.5 96t-74.5 247q0 156 77.5 248t203.5 92q105 0 172 -79l-27 -31q-60 68 -144 68q-109 0 -171.5 -80t-62.5 -218t62 -219.5t168 -81.5q94 0 167 81l27 -29q-73 -83 -167 -92l-24 -55 q71 -18 71 -69q0 -76 -145 -85z"/>
<glyph glyph-name="Egrave" horiz-adv-x="515" unicode="È" d="M303 706l-133 113l28 33l125 -123zM97 0v659h361v-40h-315v-249h264v-40h-264v-290h325v-40h-371z"/>
<glyph glyph-name="Eacute" horiz-adv-x="515" unicode="É" d="M261 706l-20 23l125 123l28 -33zM97 0v659h361v-40h-315v-249h264v-40h-264v-290h325v-40h-371z"/>
<glyph glyph-name="Ecircumflex" horiz-adv-x="515" unicode="Ê" d="M147 726l113 113h44l113 -113l-20 -19l-113 98h-4l-113 -98zM97 0v659h361v-40h-315v-249h264v-40h-264v-290h325v-40h-371z"/>
<glyph glyph-name="Edieresis" horiz-adv-x="515" unicode="Ë" d="M380 725q-16 0 -26.5 10t-10.5 26q0 17 10.5 27t26.5 10t26 -10t10 -27q0 -16 -10 -26t-26 -10zM184 725q-16 0 -26 10t-10 26q0 17 10 27t26 10t26.5 -10t10.5 -27q0 -16 -10.5 -26t-26.5 -10zM97 0v659h361v-40h-315v-249h264v-40h-264v-290h325v-40h-371z"/>
<glyph glyph-name="Igrave" horiz-adv-x="240" unicode="Ì" d="M141 706l-133 113l28 33l125 -123zM97 0v659h46v-659h-46z"/>
<glyph glyph-name="Iacute" horiz-adv-x="240" unicode="Í" d="M99 706l-20 23l125 123l28 -33zM97 0v659h46v-659h-46z"/>
<glyph glyph-name="Icircumflex" horiz-adv-x="240" unicode="Î" d="M-15 726l113 113h44l113 -113l-20 -19l-113 98h-4l-113 -98zM97 0v659h46v-659h-46z"/>
<glyph glyph-name="Idieresis" horiz-adv-x="240" unicode="Ï" d="M218 725q-16 0 -26.5 10t-10.5 26q0 17 10.5 27t26.5 10t26 -10t10 -27q0 -16 -10 -26t-26 -10zM22 725q-16 0 -26 10t-10 26q0 17 10 27t26 10t26.5 -10t10.5 -27q0 -16 -10.5 -26t-26.5 -10zM97 0v659h46v-659h-46z"/>
<glyph glyph-name="Eth" horiz-adv-x="625" unicode="Ð" d="M164 39h102q129 0 192.5 79t63.5 214q0 134 -63.5 211t-192.5 77h-102v-255h163v-33h-163v-293zM37 332v31l81 2v294h153q148 0 223.5 -86.5t75.5 -240.5q0 -155 -75.5 -243.5t-222.5 -88.5h-154v332h-81z"/>
<glyph glyph-name="Ntilde" horiz-adv-x="636" unicode="Ñ" d="M400 718q-26 0 -49 12.5t-36.5 27t-32 27t-36.5 12.5q-22 0 -37 -20.5t-18 -55.5l-33 3q2 48 25.5 79t62.5 31q26 0 49 -12.5t36.5 -27t32 -27t36.5 -12.5q21 0 35.5 20.5t19.5 56.5l33 -3q-2 -48 -25.5 -79.5t-62.5 -31.5zM97 0v659h48l278 -465l74 -131h4l-6 192v404 h44v-659h-48l-278 465l-74 131h-4q1 -21 2.5 -58.5t2.5 -69t1 -59.5v-409h-44z"/>
<glyph glyph-name="Ograve" horiz-adv-x="652" unicode="Ò" d="M347 706l-133 113l28 33l125 -123zM326 30q101 0 162 82.5t61 219.5q0 136 -61 216.5t-162 80.5t-162 -80.5t-61 -216.5q0 -137 61 -219.5t162 -82.5zM326 -12q-120 0 -195.5 94.5t-75.5 249.5q0 154 75.5 246.5t195.5 92.5q121 0 196.5 -92.5t75.5 -246.5 q0 -155 -76 -249.5t-196 -94.5z"/>
<glyph glyph-name="Oacute" horiz-adv-x="652" unicode="Ó" d="M305 706l-20 23l125 123l28 -33zM326 30q101 0 162 82.5t61 219.5q0 136 -61 216.5t-162 80.5t-162 -80.5t-61 -216.5q0 -137 61 -219.5t162 -82.5zM326 -12q-120 0 -195.5 94.5t-75.5 249.5q0 154 75.5 246.5t195.5 92.5q121 0 196.5 -92.5t75.5 -246.5 q0 -155 -76 -249.5t-196 -94.5z"/>
<glyph glyph-name="Ocircumflex" horiz-adv-x="652" unicode="Ô" d="M191 726l113 113h44l113 -113l-20 -19l-113 98h-4l-113 -98zM326 30q101 0 162 82.5t61 219.5q0 136 -61 216.5t-162 80.5t-162 -80.5t-61 -216.5q0 -137 61 -219.5t162 -82.5zM326 -12q-120 0 -195.5 94.5t-75.5 249.5q0 154 75.5 246.5t195.5 92.5q121 0 196.5 -92.5 t75.5 -246.5q0 -155 -76 -249.5t-196 -94.5z"/>
<glyph glyph-name="Otilde" horiz-adv-x="652" unicode="Õ" d="M403 718q-26 0 -49 12.5t-36.5 27t-32 27t-36.5 12.5q-22 0 -37 -20.5t-18 -55.5l-33 3q2 48 25.5 79t62.5 31q26 0 49 -12.5t36.5 -27t32 -27t36.5 -12.5q21 0 35.5 20.5t19.5 56.5l33 -3q-2 -48 -25.5 -79.5t-62.5 -31.5zM326 30q101 0 162 82.5t61 219.5 q0 136 -61 216.5t-162 80.5t-162 -80.5t-61 -216.5q0 -137 61 -219.5t162 -82.5zM326 -12q-120 0 -195.5 94.5t-75.5 249.5q0 154 75.5 246.5t195.5 92.5q121 0 196.5 -92.5t75.5 -246.5q0 -155 -76 -249.5t-196 -94.5z"/>
<glyph glyph-name="Odieresis" horiz-adv-x="652" unicode="Ö" d="M424 725q-16 0 -26.5 10t-10.5 26q0 17 10.5 27t26.5 10t26 -10t10 -27q0 -16 -10 -26t-26 -10zM228 725q-16 0 -26 10t-10 26q0 17 10 27t26 10t26.5 -10t10.5 -27q0 -16 -10.5 -26t-26.5 -10zM326 30q101 0 162 82.5t61 219.5q0 136 -61 216.5t-162 80.5t-162 -80.5 t-61 -216.5q0 -137 61 -219.5t162 -82.5zM326 -12q-120 0 -195.5 94.5t-75.5 249.5q0 154 75.5 246.5t195.5 92.5q121 0 196.5 -92.5t75.5 -246.5q0 -155 -76 -249.5t-196 -94.5z"/>
<glyph glyph-name="multiply" d="M78 135l-26 28l161 167l-161 167l26 28l161 -169l162 169l26 -28l-161 -167l161 -167l-26 -28l-162 168z" unicode="×"/>
<glyph glyph-name="Oslash" horiz-adv-x="652" unicode="Ø" d="M330 30q101 0 162 82.5t61 219.5q0 123 -52 203l-324 -434q60 -71 153 -71zM107 332q0 -121 48 -200l323 433q-59 64 -148 64q-101 0 -162 -80.5t-61 -216.5zM330 -12q-106 0 -180 77l-66 -88l-28 22l70 94q-67 94 -67 239q0 154 75.5 246.5t195.5 92.5q103 0 176 -70 l60 81l29 -22l-65 -86q72 -92 72 -242q0 -155 -76 -249.5t-196 -94.5z"/>
<glyph glyph-name="Ugrave" horiz-adv-x="634" unicode="Ù" d="M338 706l-133 113l28 33l125 -123zM316 -12q-45 0 -82.5 13t-70 42t-50.5 82.5t-18 127.5v406h46v-401q0 -122 48.5 -175t126.5 -53q80 0 130 53t50 175v401h43v-406q0 -74 -18.5 -127.5t-51 -82.5t-70 -42t-83.5 -13z"/>
<glyph glyph-name="Uacute" horiz-adv-x="634" unicode="Ú" d="M296 706l-20 23l125 123l28 -33zM316 -12q-45 0 -82.5 13t-70 42t-50.5 82.5t-18 127.5v406h46v-401q0 -122 48.5 -175t126.5 -53q80 0 130 53t50 175v401h43v-406q0 -74 -18.5 -127.5t-51 -82.5t-70 -42t-83.5 -13z"/>
<glyph glyph-name="Ucircumflex" horiz-adv-x="634" unicode="Û" d="M182 726l113 113h44l113 -113l-20 -19l-113 98h-4l-113 -98zM316 -12q-45 0 -82.5 13t-70 42t-50.5 82.5t-18 127.5v406h46v-401q0 -122 48.5 -175t126.5 -53q80 0 130 53t50 175v401h43v-406q0 -74 -18.5 -127.5t-51 -82.5t-70 -42t-83.5 -13z"/>
<glyph glyph-name="Udieresis" horiz-adv-x="634" unicode="Ü" d="M415 725q-16 0 -26.5 10t-10.5 26q0 17 10.5 27t26.5 10t26 -10t10 -27q0 -16 -10 -26t-26 -10zM219 725q-16 0 -26 10t-10 26q0 17 10 27t26 10t26.5 -10t10.5 -27q0 -16 -10.5 -26t-26.5 -10zM316 -12q-45 0 -82.5 13t-70 42t-50.5 82.5t-18 127.5v406h46v-401 q0 -122 48.5 -175t126.5 -53q80 0 130 53t50 175v401h43v-406q0 -74 -18.5 -127.5t-51 -82.5t-70 -42t-83.5 -13z"/>
<glyph glyph-name="Yacute" horiz-adv-x="447" unicode="Ý" d="M202 706l-20 23l125 123l28 -33zM200 0v267l-197 392h49l100 -206q53 -111 70 -142h4q55 106 71 142l100 206h47l-198 -392v-267h-46z"/>
<glyph glyph-name="Thorn" horiz-adv-x="563" unicode="Þ" d="M143 205h123q102 0 150.5 36.5t48.5 116.5t-47.5 112.5t-151.5 32.5h-123v-298zM97 0v659h46v-117h134q115 0 175 -43t60 -141q0 -95 -61.5 -143.5t-173.5 -48.5h-134v-166h-46z"/>
<glyph glyph-name="germandbls" horiz-adv-x="542" unicode="ß" d="M367 -12q-73 0 -136 51l22 33q56 -46 114 -46q48 0 74.5 29t26.5 70q0 38 -21.5 64.5t-52 42t-61.5 31.5t-52.5 43t-21.5 67q0 32 15.5 62t33.5 49.5t33.5 48t15.5 58.5q0 45 -24.5 72.5t-70.5 27.5q-59 0 -92.5 -43.5t-33.5 -130.5v-517h-44v532q0 91 46.5 144t124.5 53 q64 0 101.5 -38t37.5 -96q0 -35 -15.5 -66.5t-34 -51.5t-34 -47t-15.5 -53q0 -31 21.5 -53t52.5 -37t62 -32t52.5 -49.5t21.5 -78.5q0 -60 -41.5 -99.5t-104.5 -39.5z"/>
<glyph glyph-name="agrave" horiz-adv-x="491" unicode="à" d="M284 574l-144 151l34 29l134 -157zM205 26q71 0 163 78v163q-144 -17 -204.5 -51.5t-60.5 -93.5q0 -49 28.5 -72.5t73.5 -23.5zM197 -12q-61 0 -100 33.5t-39 98.5q0 79 73.5 121t236.5 60v5q0 147 -114 147q-76 0 -153 -56l-20 33q88 62 179 62q80 0 116 -50.5 t36 -134.5v-307h-38l-4 62h-3q-93 -74 -170 -74z"/>
<glyph glyph-name="aacute" horiz-adv-x="491" unicode="á" d="M226 574l-24 23l134 157l34 -29zM205 26q71 0 163 78v163q-144 -17 -204.5 -51.5t-60.5 -93.5q0 -49 28.5 -72.5t73.5 -23.5zM197 -12q-61 0 -100 33.5t-39 98.5q0 79 73.5 121t236.5 60v5q0 147 -114 147q-76 0 -153 -56l-20 33q88 62 179 62q80 0 116 -50.5t36 -134.5 v-307h-38l-4 62h-3q-93 -74 -170 -74z"/>
<glyph glyph-name="acircumflex" horiz-adv-x="491" unicode="â" d="M117 593l117 144h42l117 -144l-22 -21l-114 126h-4l-114 -126zM205 26q71 0 163 78v163q-144 -17 -204.5 -51.5t-60.5 -93.5q0 -49 28.5 -72.5t73.5 -23.5zM197 -12q-61 0 -100 33.5t-39 98.5q0 79 73.5 121t236.5 60v5q0 147 -114 147q-76 0 -153 -56l-20 33 q88 62 179 62q80 0 116 -50.5t36 -134.5v-307h-38l-4 62h-3q-93 -74 -170 -74z"/>
<glyph glyph-name="atilde" horiz-adv-x="491" unicode="ã" d="M331 579q-26 0 -48 15t-35.5 33t-32 33t-36.5 15q-49 0 -54 -93l-34 2q8 126 89 126q32 0 58 -24t48.5 -48t45.5 -24q47 0 53 93l34 -2q-8 -126 -88 -126zM205 26q71 0 163 78v163q-144 -17 -204.5 -51.5t-60.5 -93.5q0 -49 28.5 -72.5t73.5 -23.5zM197 -12 q-61 0 -100 33.5t-39 98.5q0 79 73.5 121t236.5 60v5q0 147 -114 147q-76 0 -153 -56l-20 33q88 62 179 62q80 0 116 -50.5t36 -134.5v-307h-38l-4 62h-3q-93 -74 -170 -74z"/>
<glyph glyph-name="adieresis" horiz-adv-x="491" unicode="ä" d="M344 598q-16 0 -26.5 10.5t-10.5 26.5t10.5 26.5t26.5 10.5t26.5 -10.5t10.5 -26.5t-10.5 -26.5t-26.5 -10.5zM166 598q-16 0 -26.5 10.5t-10.5 26.5t10.5 26.5t26.5 10.5t26.5 -10.5t10.5 -26.5t-10.5 -26.5t-26.5 -10.5zM205 26q71 0 163 78v163q-144 -17 -204.5 -51.5 t-60.5 -93.5q0 -49 28.5 -72.5t73.5 -23.5zM197 -12q-61 0 -100 33.5t-39 98.5q0 79 73.5 121t236.5 60v5q0 147 -114 147q-76 0 -153 -56l-20 33q88 62 179 62q80 0 116 -50.5t36 -134.5v-307h-38l-4 62h-3q-93 -74 -170 -74z"/>
<glyph glyph-name="aring" horiz-adv-x="491" unicode="å" d="M255 574q28 0 46.5 19t18.5 50q0 32 -18.5 51t-46.5 19t-46.5 -19t-18.5 -51q0 -31 18.5 -50t46.5 -19zM255 548q-42 0 -69.5 26.5t-27.5 68.5t27.5 69t69.5 27t69.5 -27t27.5 -69t-27.5 -68.5t-69.5 -26.5zM205 26q71 0 163 78v163q-144 -17 -204.5 -51.5t-60.5 -93.5 q0 -49 28.5 -72.5t73.5 -23.5zM197 -12q-61 0 -100 33.5t-39 98.5q0 79 73.5 121t236.5 60v5q0 147 -114 147q-76 0 -153 -56l-20 33q88 62 179 62q80 0 116 -50.5t36 -134.5v-307h-38l-4 62h-3q-93 -74 -170 -74z"/>
<glyph glyph-name="ae" horiz-adv-x="784" unicode="æ" d="M412 268h293q0 91 -36.5 138.5t-101.5 47.5q-60 0 -104 -52t-51 -134zM212 26q40 0 89.5 25t89.5 68q-21 43 -21 121l-1 27q-138 -17 -198 -51.5t-60 -93.5q0 -49 28 -72.5t73 -23.5zM205 -12q-61 0 -100.5 33.5t-39.5 97.5q0 79 73.5 121.5t231.5 60.5v5q0 147 -113 147 q-73 0 -148 -56l-20 33q88 62 172 62q57 0 92.5 -31.5t47.5 -88.5q27 56 71 88t96 32q84 0 131 -58t47 -164q0 -24 -2 -36h-332q0 -90 49 -148.5t122 -58.5q65 0 125 43l19 -35q-25 -15 -40.5 -23t-45 -16t-62.5 -8q-101 0 -172 99q-47 -45 -102 -72t-100 -27z"/>
<glyph glyph-name="ccedilla" horiz-adv-x="449" unicode="ç" d="M188 -219l-7 30q63 4 88 17t25 36q0 22 -18 33.5t-60 17.5l35 74q-89 7 -144 73t-55 177q0 116 63.5 184.5t155.5 68.5q76 0 141 -59l-26 -31q-55 51 -114 51q-74 0 -124 -60t-50 -154q0 -95 48 -153.5t126 -58.5q68 0 128 55l23 -31q-63 -57 -137 -62l-24 -54 q71 -18 71 -69q0 -76 -145 -85z"/>
<glyph glyph-name="egrave" horiz-adv-x="483" unicode="è" d="M290 574l-144 151l34 29l134 -157zM97 270h306q0 90 -37.5 137t-103.5 47q-64 0 -111 -50t-54 -134zM274 -12q-95 0 -158.5 68t-63.5 183q0 113 62.5 183t146.5 70q86 0 135 -58.5t49 -163.5q0 -24 -2 -36h-346q2 -92 51.5 -150t129.5 -58q69 0 129 43l18 -34 q-78 -47 -151 -47z"/>
<glyph glyph-name="eacute" horiz-adv-x="483" unicode="é" d="M232 574l-24 23l134 157l34 -29zM97 270h306q0 90 -37.5 137t-103.5 47q-64 0 -111 -50t-54 -134zM274 -12q-95 0 -158.5 68t-63.5 183q0 113 62.5 183t146.5 70q86 0 135 -58.5t49 -163.5q0 -24 -2 -36h-346q2 -92 51.5 -150t129.5 -58q69 0 129 43l18 -34 q-78 -47 -151 -47z"/>
<glyph glyph-name="ecircumflex" horiz-adv-x="483" unicode="ê" d="M123 593l117 144h42l117 -144l-22 -21l-114 126h-4l-114 -126zM97 270h306q0 90 -37.5 137t-103.5 47q-64 0 -111 -50t-54 -134zM274 -12q-95 0 -158.5 68t-63.5 183q0 113 62.5 183t146.5 70q86 0 135 -58.5t49 -163.5q0 -24 -2 -36h-346q2 -92 51.5 -150t129.5 -58 q69 0 129 43l18 -34q-78 -47 -151 -47z"/>
<glyph glyph-name="edieresis" horiz-adv-x="483" unicode="ë" d="M350 598q-16 0 -26.5 10.5t-10.5 26.5t10.5 26.5t26.5 10.5t26.5 -10.5t10.5 -26.5t-10.5 -26.5t-26.5 -10.5zM172 598q-16 0 -26.5 10.5t-10.5 26.5t10.5 26.5t26.5 10.5t26.5 -10.5t10.5 -26.5t-10.5 -26.5t-26.5 -10.5zM97 270h306q0 90 -37.5 137t-103.5 47 q-64 0 -111 -50t-54 -134zM274 -12q-95 0 -158.5 68t-63.5 183q0 113 62.5 183t146.5 70q86 0 135 -58.5t49 -163.5q0 -24 -2 -36h-346q2 -92 51.5 -150t129.5 -58q69 0 129 43l18 -34q-78 -47 -151 -47z"/>
<glyph glyph-name="igrave" horiz-adv-x="229" unicode="ì" d="M143 574l-144 151l34 29l134 -157zM92 0v480h44v-480h-44z"/>
<glyph glyph-name="iacute" horiz-adv-x="229" unicode="í" d="M85 574l-24 23l134 157l34 -29zM92 0v480h44v-480h-44z"/>
<glyph glyph-name="icircumflex" horiz-adv-x="229" unicode="î" d="M-24 593l117 144h42l117 -144l-22 -21l-114 126h-4l-114 -126zM92 0v480h44v-480h-44z"/>
<glyph glyph-name="idieresis" horiz-adv-x="229" unicode="ï" d="M203 598q-16 0 -26.5 10.5t-10.5 26.5t10.5 26.5t26.5 10.5t26.5 -10.5t10.5 -26.5t-10.5 -26.5t-26.5 -10.5zM25 598q-16 0 -26.5 10.5t-10.5 26.5t10.5 26.5t26.5 10.5t26.5 -10.5t10.5 -26.5t-10.5 -26.5t-26.5 -10.5zM92 0v480h44v-480h-44z"/>
<glyph glyph-name="eth" horiz-adv-x="535" unicode="ð" d="M267 27q78 0 118 62.5t40 161.5q0 32 -3 62q-62 91 -153 91q-78 0 -121.5 -53t-43.5 -132q0 -83 47.5 -137.5t115.5 -54.5zM267 -12q-84 0 -145.5 63.5t-61.5 167.5q0 99 57.5 161t149.5 62q90 0 148 -76q-24 132 -116 222l-142 -73l-15 27l132 68q-48 41 -123 84l22 30 q80 -42 138 -95l142 74l15 -27l-134 -69q136 -138 136 -355q0 -119 -56 -191.5t-147 -72.5z"/>
<glyph glyph-name="ntilde" horiz-adv-x="532" unicode="ñ" d="M359 579q-26 0 -48 15t-35.5 33t-32 33t-36.5 15q-49 0 -54 -93l-34 2q8 126 89 126q32 0 58 -24t48.5 -48t45.5 -24q47 0 53 93l34 -2q-8 -126 -88 -126zM92 0v480h38l4 -74h3q86 86 165 86q74 0 109.5 -45.5t35.5 -138.5v-308h-44v302q0 77 -26 113.5t-84 36.5 q-41 0 -75.5 -21t-81.5 -69v-362h-44z"/>
<glyph glyph-name="ograve" horiz-adv-x="535" unicode="ò" d="M296 574l-144 151l34 29l134 -157zM267 27q73 0 121.5 59t48.5 153t-48.5 154t-121.5 60t-121 -59.5t-48 -154.5q0 -94 48 -153t121 -59zM267 -12q-90 0 -152.5 68t-62.5 183q0 116 62.5 184.5t152.5 68.5q91 0 153.5 -68.5t62.5 -184.5q0 -115 -62.5 -183t-153.5 -68z "/>
<glyph glyph-name="oacute" horiz-adv-x="535" unicode="ó" d="M238 574l-24 23l134 157l34 -29zM267 27q73 0 121.5 59t48.5 153t-48.5 154t-121.5 60t-121 -59.5t-48 -154.5q0 -94 48 -153t121 -59zM267 -12q-90 0 -152.5 68t-62.5 183q0 116 62.5 184.5t152.5 68.5q91 0 153.5 -68.5t62.5 -184.5q0 -115 -62.5 -183t-153.5 -68z"/>
<glyph glyph-name="ocircumflex" horiz-adv-x="535" unicode="ô" d="M129 593l117 144h42l117 -144l-22 -21l-114 126h-4l-114 -126zM267 27q73 0 121.5 59t48.5 153t-48.5 154t-121.5 60t-121 -59.5t-48 -154.5q0 -94 48 -153t121 -59zM267 -12q-90 0 -152.5 68t-62.5 183q0 116 62.5 184.5t152.5 68.5q91 0 153.5 -68.5t62.5 -184.5 q0 -115 -62.5 -183t-153.5 -68z"/>
<glyph glyph-name="otilde" horiz-adv-x="535" unicode="õ" d="M343 579q-26 0 -48 15t-35.5 33t-32 33t-36.5 15q-49 0 -54 -93l-34 2q8 126 89 126q32 0 58 -24t48.5 -48t45.5 -24q47 0 53 93l34 -2q-8 -126 -88 -126zM267 27q73 0 121.5 59t48.5 153t-48.5 154t-121.5 60t-121 -59.5t-48 -154.5q0 -94 48 -153t121 -59zM267 -12 q-90 0 -152.5 68t-62.5 183q0 116 62.5 184.5t152.5 68.5q91 0 153.5 -68.5t62.5 -184.5q0 -115 -62.5 -183t-153.5 -68z"/>
<glyph glyph-name="odieresis" horiz-adv-x="535" unicode="ö" d="M356 598q-16 0 -26.5 10.5t-10.5 26.5t10.5 26.5t26.5 10.5t26.5 -10.5t10.5 -26.5t-10.5 -26.5t-26.5 -10.5zM178 598q-16 0 -26.5 10.5t-10.5 26.5t10.5 26.5t26.5 10.5t26.5 -10.5t10.5 -26.5t-10.5 -26.5t-26.5 -10.5zM267 27q73 0 121.5 59t48.5 153t-48.5 154 t-121.5 60t-121 -59.5t-48 -154.5q0 -94 48 -153t121 -59zM267 -12q-90 0 -152.5 68t-62.5 183q0 116 62.5 184.5t152.5 68.5q91 0 153.5 -68.5t62.5 -184.5q0 -115 -62.5 -183t-153.5 -68z"/>
<glyph glyph-name="divide" d="M239 469q-16 0 -27 11.5t-11 29.5q0 17 11 28t27 11q17 0 27.5 -11t10.5 -28q0 -19 -10.5 -30t-27.5 -11zM239 109q-16 0 -27 11.5t-11 29.5q0 17 11 28t27 11q17 0 27.5 -11t10.5 -28q0 -19 -10.5 -30t-27.5 -11zM34 311v38h411v-38h-411z" unicode="÷"/>
<glyph glyph-name="oslash" horiz-adv-x="535" unicode="ø" d="M267 26q74 0 122.5 59.5t48.5 152.5q0 82 -36 138l-249 -300q47 -50 114 -50zM97 240q0 -81 36 -137l249 300q-46 51 -115 51q-73 0 -121.5 -60t-48.5 -154zM267 -12q-82 0 -141 56l-54 -66l-26 21l58 70q-52 68 -52 170q0 116 62.5 184.5t152.5 68.5q83 0 142 -56l54 65 l26 -21l-58 -69q52 -70 52 -172q0 -115 -62.5 -183t-153.5 -68z"/>
<glyph glyph-name="ugrave" horiz-adv-x="529" unicode="ù" d="M294 574l-144 151l34 29l134 -157zM230 -12q-74 0 -109.5 45.5t-35.5 138.5v308h44v-302q0 -77 26 -113.5t83 -36.5q42 0 77 23t78 75v354h44v-480h-37l-5 80h-2q-79 -92 -163 -92z"/>
<glyph glyph-name="uacute" horiz-adv-x="529" unicode="ú" d="M236 574l-24 23l134 157l34 -29zM230 -12q-74 0 -109.5 45.5t-35.5 138.5v308h44v-302q0 -77 26 -113.5t83 -36.5q42 0 77 23t78 75v354h44v-480h-37l-5 80h-2q-79 -92 -163 -92z"/>
<glyph glyph-name="ucircumflex" horiz-adv-x="529" unicode="û" d="M127 593l117 144h42l117 -144l-22 -21l-114 126h-4l-114 -126zM230 -12q-74 0 -109.5 45.5t-35.5 138.5v308h44v-302q0 -77 26 -113.5t83 -36.5q42 0 77 23t78 75v354h44v-480h-37l-5 80h-2q-79 -92 -163 -92z"/>
<glyph glyph-name="udieresis" horiz-adv-x="529" unicode="ü" d="M354 598q-16 0 -26.5 10.5t-10.5 26.5t10.5 26.5t26.5 10.5t26.5 -10.5t10.5 -26.5t-10.5 -26.5t-26.5 -10.5zM176 598q-16 0 -26.5 10.5t-10.5 26.5t10.5 26.5t26.5 10.5t26.5 -10.5t10.5 -26.5t-10.5 -26.5t-26.5 -10.5zM230 -12q-74 0 -109.5 45.5t-35.5 138.5v308h44 v-302q0 -77 26 -113.5t83 -36.5q42 0 77 23t78 75v354h44v-480h-37l-5 80h-2q-79 -92 -163 -92z"/>
<glyph glyph-name="yacute" horiz-adv-x="436" unicode="ý" d="M200 574l-24 23l134 157l34 -29zM73 -219q-27 0 -49 10l10 39q20 -8 39 -8q81 0 123 127l13 42l-197 489h48l116 -302q38 -101 52 -134h4q5 14 44 134l103 302h45l-190 -540q-53 -159 -161 -159z"/>
<glyph glyph-name="thorn" horiz-adv-x="544" unicode="þ" d="M278 27q73 0 120 61.5t47 158.5q0 95 -37 150.5t-115 55.5q-67 0 -157 -79v-285q76 -62 142 -62zM92 -217v936h44v-298q92 71 163 71q95 0 144 -65t49 -180q0 -118 -62 -188.5t-150 -70.5q-66 0 -144 58v-263h-44z"/>
<glyph glyph-name="OE" horiz-adv-x="833" unicode="Œ" d="M372 39h63v581h-63q-134 0 -201.5 -77t-67.5 -211t68 -213.5t201 -79.5zM367 0q-152 0 -232 89t-80 243q0 153 80 240t233 87h408v-40h-295v-249h245v-40h-245v-290h305v-40h-419z"/>
<glyph glyph-name="oe" horiz-adv-x="848" unicode="œ" d="M471 268h298q0 90 -38 138t-103 48q-61 0 -105.5 -52t-51.5 -134zM263 27q72 0 118.5 59t46.5 153q0 95 -46.5 154.5t-118.5 59.5q-71 0 -118 -60t-47 -154t47 -153t118 -59zM263 -12q-88 0 -149.5 68t-61.5 183q0 116 61.5 184.5t149.5 68.5q60 0 110.5 -37t75.5 -105 q26 66 74 104t105 38q85 0 134 -58.5t49 -163.5q0 -18 -3 -36h-337q0 -90 50 -148.5t123 -58.5q68 0 128 43l19 -35q-78 -47 -152 -47q-63 0 -113 38t-76 103q-56 -141 -187 -141z"/>
<glyph glyph-name="Scaron" horiz-adv-x="521" unicode="Š" d="M250 709l-113 114l20 18l113 -98h4l113 98l20 -18l-113 -114h-44zM269 -12q-134 0 -223 99l30 32q79 -89 193 -89q75 0 119.5 36.5t44.5 95.5q0 30 -8.5 52t-27.5 38t-35.5 25t-46.5 23l-100 45q-27 12 -46 23.5t-41.5 30.5t-34.5 47t-12 63q0 71 54.5 116.5t137.5 45.5 q110 0 183 -79l-26 -30q-65 67 -157 67q-66 0 -106 -32t-40 -86q0 -27 9.5 -48t30.5 -36.5t34.5 -23t39.5 -19.5l100 -44q67 -30 103 -68t36 -107q0 -77 -58 -127t-153 -50z"/>
<glyph glyph-name="scaron" horiz-adv-x="405" unicode="š" d="M190 573l-117 144l22 20l114 -125h4l114 125l22 -20l-117 -144h-42zM208 -12q-97 0 -176 66l26 33q74 -61 153 -61q54 0 84 27.5t30 67.5t-31.5 63t-85.5 43q-29 10 -45 16.5t-40 19t-36 25.5t-22 32.5t-10 43.5q0 55 41.5 91.5t113.5 36.5q77 0 137 -50l-24 -31 q-57 43 -115 43q-52 0 -80 -25.5t-28 -61.5q0 -20 8.5 -35t27.5 -27t34 -18.5t43 -16.5q83 -31 109 -51q48 -36 48 -96q0 -57 -43.5 -96t-118.5 -39z"/>
<glyph glyph-name="Ydieresis" horiz-adv-x="447" unicode="Ÿ" d="M321 725q-16 0 -26.5 10t-10.5 26q0 17 10.5 27t26.5 10t26 -10t10 -27q0 -16 -10 -26t-26 -10zM125 725q-16 0 -26 10t-10 26q0 17 10 27t26 10t26.5 -10t10.5 -27q0 -16 -10.5 -26t-26.5 -10zM200 0v267l-197 392h49l100 -206q53 -111 70 -142h4q55 106 71 142l100 206 h47l-198 -392v-267h-46z"/>
<glyph glyph-name="circumflex" horiz-adv-x="535" unicode="ˆ" d="M129 593l117 144h42l117 -144l-22 -21l-114 126h-4l-114 -126z"/>
<glyph glyph-name="tilde" horiz-adv-x="535" unicode="˜" d="M343 579q-26 0 -48 15t-35.5 33t-32 33t-36.5 15q-49 0 -54 -93l-34 2q8 126 89 126q32 0 58 -24t48.5 -48t45.5 -24q47 0 53 93l34 -2q-8 -126 -88 -126z"/>
<glyph glyph-name="Alpha" horiz-adv-x="526" unicode="Α" d="M8 0l232 659h46l232 -659h-48l-77 226h-261l-78 -226h-46zM188 388l-42 -123h234l-42 123q-46 133 -73 228h-4q-27 -95 -73 -228z"/>
<glyph glyph-name="Beta" horiz-adv-x="578" unicode="Β" d="M143 38h133q101 0 156.5 38t55.5 115q0 140 -212 140h-133v-293zM143 369h114q190 0 190 125q0 68 -45.5 97.5t-139.5 29.5h-119v-252zM97 0v659h178q103 0 160.5 -40t57.5 -120q0 -53 -26.5 -91t-75.5 -53v-4q66 -11 104 -52t38 -107q0 -93 -65.5 -142.5t-179.5 -49.5 h-191z"/>
<glyph glyph-name="Gamma" horiz-adv-x="485" unicode="Γ" d="M97 0v659h359v-40h-313v-619h-46z"/>
<glyph glyph-name="uni0394" horiz-adv-x="557" unicode="Δ" d="M78 40h401l-122 346l-76 221h-4l-77 -221zM27 0v27l228 632h48l227 -632v-27h-503z"/>
<glyph glyph-name="Epsilon" horiz-adv-x="515" unicode="Ε" d="M97 0v659h361v-40h-315v-249h264v-40h-264v-290h325v-40h-371z"/>
<glyph glyph-name="Zeta" horiz-adv-x="538" unicode="Ζ" d="M50 0v27l379 592h-346v40h404v-27l-380 -592h383v-40h-440z"/>
<glyph glyph-name="Eta" horiz-adv-x="639" unicode="Η" d="M97 0v659h46v-289h353v289h46v-659h-46v330h-353v-330h-46z"/>
<glyph glyph-name="Theta" horiz-adv-x="652" unicode="Θ" d="M326 30q101 0 162 82.5t61 219.5q0 136 -61 216.5t-162 80.5t-162 -80.5t-61 -216.5q0 -137 61 -219.5t162 -82.5zM326 -12q-120 0 -195.5 94.5t-75.5 249.5q0 154 75.5 246.5t195.5 92.5q121 0 196.5 -92.5t75.5 -246.5q0 -155 -76 -249.5t-196 -94.5zM205 330v40h242 v-40h-242z"/>
<glyph glyph-name="Iota" horiz-adv-x="240" unicode="Ι" d="M97 0v659h46v-659h-46z"/>
<glyph glyph-name="Kappa" horiz-adv-x="558" unicode="Κ" d="M97 0v659h46v-366h2l319 366h55l-210 -244l239 -415h-53l-218 380l-134 -153v-227h-46z"/>
<glyph glyph-name="Lambda" horiz-adv-x="491" unicode="Λ" d="M4 0l216 659h49l218 -659h-49l-122 385q-49 159 -70 221h-4q-9 -27 -69 -221l-122 -385h-47z"/>
<glyph glyph-name="Mu" horiz-adv-x="706" unicode="Μ" d="M97 0v659h65l138 -387q5 -15 23.5 -66.5t28.5 -79.5h4q7 20 24 69.5t26 76.5l137 387h66v-659h-45v433q0 68 6 178h-4l-51 -147l-142 -392h-40l-143 392l-52 147h-4q6 -165 6 -178v-433h-43z"/>
<glyph glyph-name="Nu" horiz-adv-x="636" unicode="Ν" d="M97 0v659h48l278 -465l74 -131h4l-6 192v404h44v-659h-48l-278 465l-74 131h-4q1 -21 2.5 -58.5t2.5 -69t1 -59.5v-409h-44z"/>
<glyph glyph-name="Xi" horiz-adv-x="510" unicode="Ξ" d="M57 619v40h397v-40h-397zM125 330v40h260v-40h-260zM47 0v40h417v-40h-417z"/>
<glyph glyph-name="Omicron" horiz-adv-x="652" unicode="Ο" d="M326 30q101 0 162 82.5t61 219.5q0 136 -61 216.5t-162 80.5t-162 -80.5t-61 -216.5q0 -137 61 -219.5t162 -82.5zM326 -12q-120 0 -195.5 94.5t-75.5 249.5q0 154 75.5 246.5t195.5 92.5q121 0 196.5 -92.5t75.5 -246.5q0 -155 -76 -249.5t-196 -94.5z"/>
<glyph glyph-name="Pi" horiz-adv-x="634" unicode="Π" d="M97 0v659h440v-659h-46v619h-348v-619h-46z"/>
<glyph glyph-name="Rho" horiz-adv-x="549" unicode="Ρ" d="M143 322h113q102 0 150.5 36.5t48.5 116.5q0 81 -48.5 113t-154.5 32h-109v-298zM97 0v659h166q117 0 178 -43t61 -141q0 -95 -61.5 -143.5t-173.5 -48.5h-124v-283h-46z"/>
<glyph glyph-name="Sigma" horiz-adv-x="531" unicode="Σ" d="M47 0v27l240 308l-235 297v27h410v-40h-350l223 -283l-227 -296h385v-40h-446z"/>
<glyph glyph-name="Tau" horiz-adv-x="524" unicode="Τ" d="M239 0v619h-210v40h466v-40h-210v-619h-46z"/>
<glyph glyph-name="Upsilon" horiz-adv-x="447" unicode="Υ" d="M200 0v267l-197 392h49l100 -206q53 -111 70 -142h4q55 106 71 142l100 206h47l-198 -392v-267h-46z"/>
<glyph glyph-name="Phi" horiz-adv-x="695" unicode="Φ" d="M326 -22v98q-126 3 -202 72.5t-76 183.5t75.5 181.5t202.5 69.5v98h43v-98q127 -2 202.5 -69.5t75.5 -181.5t-76 -183.5t-202 -72.5v-98h-43zM600 332q0 95 -62.5 153t-168.5 60v-431q106 2 168.5 61.5t62.5 156.5zM95 332q0 -97 62.5 -156.5t168.5 -61.5v431 q-106 -2 -168.5 -60t-62.5 -153z"/>
<glyph glyph-name="Chi" horiz-adv-x="482" unicode="Χ" d="M17 0l198 341l-184 318h50l108 -194l54 -90h4q37 69 49 90l108 194h47l-184 -320l198 -339h-50l-115 202q-20 37 -61 105h-4q-33 -62 -56 -105l-115 -202h-47z"/>
<glyph glyph-name="Psi" horiz-adv-x="668" unicode="Ψ" d="M311 0v260q-241 5 -241 237v162h45v-161q0 -194 196 -199v360h45v-360q196 3 196 199v161h46v-162q0 -232 -242 -237v-260h-45z"/>
<glyph glyph-name="alpha" horiz-adv-x="540" unicode="α" d="M238 27q57 0 104.5 52.5t52.5 124.5l8 94q-36 155 -141 155q-67 0 -115.5 -61t-48.5 -164q0 -93 37 -147t103 -54zM232 -12q-82 0 -131 62t-49 178q0 121 61 192.5t148 71.5q53 0 96.5 -35t60.5 -109h3l23 132h44q-59 -306 -59 -400q0 -23 14 -38t34 -15q15 0 35 8l8 -36 q-24 -11 -49 -11q-35 0 -57 21.5t-22 62.5q0 6 2 24h-3q-59 -108 -159 -108z"/>
<glyph glyph-name="beta" horiz-adv-x="544" unicode="β" d="M305 27q62 0 103.5 45.5t41.5 118.5q0 72 -41.5 116t-120.5 44q-28 0 -56 -6l-9 38q82 18 123.5 69t41.5 110q0 62 -33.5 96.5t-83.5 34.5q-64 0 -101 -51t-38 -149v-381q66 -85 173 -85zM89 -180v686q0 102 46.5 163.5t134.5 61.5q68 0 115.5 -44t47.5 -123 q0 -112 -105 -177v-4q80 -9 124 -61t44 -133q0 -90 -54.5 -145.5t-131.5 -55.5q-110 0 -180 78q3 -124 3 -246h-44z"/>
<glyph glyph-name="gamma" horiz-adv-x="455" unicode="γ" d="M203 -180q3 46 3 112q0 130 -60.5 290.5t-135.5 255.5l43 14q56 -75 108 -198.5t69 -237.5h4q139 265 154 424h45q-18 -119 -61.5 -226t-131.5 -254q8 -73 8 -180h-45z"/>
<glyph glyph-name="delta" horiz-adv-x="522" unicode="δ" d="M267 27q78 0 117.5 52t39.5 136q0 64 -32 111t-90 92q-93 -19 -145.5 -75.5t-52.5 -135.5q0 -78 49 -129t114 -51zM267 -12q-82 0 -145 60t-63 157q0 90 57.5 153t150.5 86q-39 28 -59.5 44t-46 40.5t-36.5 49t-11 51.5q0 43 37 72.5t110 29.5q85 0 203 -39l-13 -40 q-116 42 -192 42q-49 0 -74.5 -19t-25.5 -46q0 -10 2 -19.5t8 -19.5l10.5 -17.5t15.5 -18t17.5 -17t21.5 -18t22 -17t25.5 -19t26.5 -19.5q77 -55 119 -110t42 -137q0 -104 -53.5 -166.5t-148.5 -62.5z"/>
<glyph glyph-name="epsilon" horiz-adv-x="435" unicode="ε" d="M242 -12q-87 0 -138.5 39t-51.5 103q0 50 29.5 80.5t73.5 42.5v4q-37 14 -57.5 44t-20.5 67q0 59 48.5 91.5t121.5 32.5q79 0 149 -54l-20 -32q-63 48 -130 48q-53 0 -88 -23t-35 -67q0 -42 33 -68t102 -26q18 0 56 3v-41q-28 2 -70 2q-71 0 -109 -27t-38 -75 q0 -49 40 -77.5t110 -28.5q78 0 146 57l22 -33q-42 -34 -81 -48t-92 -14z"/>
<glyph glyph-name="zeta" horiz-adv-x="399" unicode="ζ" d="M342 -183l-36 21q31 38 40 54t9 35q0 24 -23 37t-97 28q-86 17 -134.5 67.5t-48.5 159.5q0 116 93.5 253t193.5 212q-16 0 -117 -1t-139 -2v38h308v-38h-4q-103 -79 -195.5 -215.5t-92.5 -245.5q0 -93 42.5 -135t119.5 -56q73 -14 104.5 -33.5t31.5 -61.5q0 -46 -55 -117 z"/>
<glyph glyph-name="eta" horiz-adv-x="529" unicode="η" d="M400 -180q3 242 3 482q0 77 -22 113.5t-70 36.5q-49 0 -87 -27.5t-88 -102.5v-322h-44v358q0 73 -5 122h43l4 -110h3q40 65 83.5 93.5t98.5 28.5q65 0 95 -45t30 -139v-488h-44z"/>
<glyph glyph-name="theta" horiz-adv-x="506" unicode="θ" d="M253 27q138 0 142 319h-284q4 -319 142 -319zM253 692q-62 0 -100.5 -79.5t-41.5 -229.5h284q-3 150 -41.5 229.5t-100.5 79.5zM253 -12q-187 0 -187 375q0 176 49 272t138 96t138 -96t49 -272q0 -375 -187 -375z"/>
<glyph glyph-name="iota" horiz-adv-x="239" unicode="ι" d="M157 -12q-65 0 -65 82v410h45q-3 -210 -3 -416q0 -37 29 -37q11 0 29 6l7 -36q-18 -9 -42 -9z"/>
<glyph glyph-name="kappa" horiz-adv-x="463" unicode="κ" d="M418 -7q-98 110 -185 274q-34 -45 -65 -95q-32 -48 -34 -149v-23h-42v358q0 84 -8 122h44q8 -31 8 -108v-187h4q61 111 143 197.5t153 109.5l5 -43q-83 -32 -181 -148q86 -171 206 -301z"/>
<glyph glyph-name="lambda" horiz-adv-x="461" unicode="λ" d="M63 -7l-46 7l211 496l-8 25q-29 91 -57 131t-73 40q-28 0 -58 -16l-14 39q36 16 76 16q60 0 96.5 -50t72.5 -161l188 -520h-45l-156 443h-4z"/>
<glyph glyph-name="uni03BC" horiz-adv-x="543" unicode="μ" d="M92 -180v660h44v-302q0 -150 106 -150q44 0 80 22t75 89v341h44q0 -47 -1 -132t-1.5 -154.5t-0.5 -129.5q0 -37 30 -37q12 0 28 6l8 -36q-20 -9 -42 -9q-35 0 -49 23.5t-14 77.5h-3q-59 -100 -151 -100q-40 0 -67.5 13t-45.5 47q0 -148 5 -229h-45z"/>
<glyph glyph-name="nu" horiz-adv-x="445" unicode="ν" d="M200 0q-71 304 -190 478l43 14q54 -81 102 -205.5t74 -240.5h4q127 259 145 434h45q-31 -220 -177 -480h-46z"/>
<glyph glyph-name="xi" horiz-adv-x="408" unicode="ξ" d="M352 -183l-37 21q31 38 40 54t9 35q0 25 -24.5 38.5t-95.5 26.5q-89 16 -140 60t-51 134q0 74 45.5 129t111.5 72v4q-108 47 -108 151q0 99 87 142q-122 -2 -154 -3v38h365v-38h-112q-56 0 -98 -37.5t-42 -101.5q0 -60 47 -100.5t99 -40.5q35 0 60 4v-43q-23 4 -63 4 q-75 0 -133.5 -48t-58.5 -129q0 -40 13.5 -69.5t39.5 -47t53.5 -27t65.5 -16.5q73 -14 104 -33.5t31 -61.5q0 -46 -54 -117z"/>
<glyph glyph-name="omicron" horiz-adv-x="524" unicode="ο" d="M262 27q75 0 119.5 58t44.5 154q0 97 -44.5 155.5t-119.5 58.5t-119.5 -58.5t-44.5 -155.5q0 -96 44.5 -154t119.5 -58zM262 -12q-92 0 -151 67t-59 184q0 119 59 186t151 67t151 -67t59 -186q0 -117 -59 -184t-151 -67z"/>
<glyph glyph-name="pi" horiz-adv-x="557" unicode="π" d="M463 -12q-42 0 -61.5 22.5t-19.5 71.5q0 28 1 87.5t2.5 144.5t2.5 126h-207q0 -155 -29 -443l-46 3q34 236 34 440h-115v36l67 4h439v-40h-100q-8 -165 -8 -364q0 -49 46 -49q9 0 41 6l7 -36q-27 -9 -54 -9z"/>
<glyph glyph-name="rho" horiz-adv-x="538" unicode="ρ" d="M286 27q65 0 109.5 62t44.5 158q0 94 -37.5 150t-115.5 56q-66 0 -111 -53t-45 -155v-137q66 -81 155 -81zM88 -180v435q0 113 57.5 175t143.5 62q96 0 146.5 -65t50.5 -180q0 -117 -59 -188t-138 -71q-93 0 -159 77q1 -37 3 -245h-45z"/>
<glyph glyph-name="uni03C2" horiz-adv-x="423" unicode="ς" d="M297 -177l-37 20q31 37 43 59t12 44q0 26 -16.5 42t-63.5 30q-31 11 -54 21.5t-49 29.5t-42 42.5t-27 60t-11 81.5q0 111 58 175t142 64q44 0 74.5 -15.5t61.5 -43.5l-26 -31q-55 51 -109 51q-67 0 -111 -55.5t-44 -144.5q0 -48 13 -83t38 -56.5t49.5 -34t59.5 -23.5 q56 -17 77.5 -39t21.5 -65q0 -52 -60 -129z"/>
<glyph glyph-name="sigma" horiz-adv-x="530" unicode="σ" d="M260 27q69 0 113.5 57t44.5 150q0 85 -42.5 146t-113.5 61t-117.5 -54t-46.5 -152q0 -93 46 -150.5t116 -57.5zM260 -12q-87 0 -147.5 66t-60.5 181q0 120 60.5 182.5t149.5 62.5h256v-41q-98 7 -161 7v-4q106 -59 106 -210q0 -113 -58 -178.5t-145 -65.5z"/>
<glyph glyph-name="tau" horiz-adv-x="441" unicode="τ" d="M275 -12q-42 0 -59.5 22t-17.5 72v360h-172v34l67 4h322v-38h-173q-2 -124 -2 -366q0 -49 41 -49q18 0 44 8l8 -36q-29 -11 -58 -11z"/>
<glyph glyph-name="upsilon" horiz-adv-x="497" unicode="υ" d="M242 -12q-78 0 -123.5 44t-45.5 137q0 31 2 94t2 95q0 73 -7 122h44q6 -34 6 -108q0 -32 -3 -103.5t-3 -99.5q0 -75 36.5 -108.5t93.5 -33.5q64 0 104.5 52.5t40.5 153.5q0 135 -44 247l44 12q46 -125 46 -259q0 -117 -54.5 -181t-138.5 -64z"/>
<glyph glyph-name="phi" horiz-adv-x="647" unicode="φ" d="M302 -180v170q-102 2 -176 70t-74 181t74 180t176 69v129h43v-129q105 -2 177.5 -68.5t72.5 -180.5q0 -113 -74 -181t-176 -70v-170h-43zM548 241q0 95 -57 153t-146 60v-428q85 3 144 62t59 153zM98 241q0 -94 59.5 -153t144.5 -62v428q-85 -2 -144.5 -60.5 t-59.5 -152.5z"/>
<glyph glyph-name="chi" horiz-adv-x="454" unicode="χ" d="M53 -192l-43 12l195 342l-190 316l44 14l167 -288h4l146 276h48l-173 -317l206 -340l-42 -15l-185 316h-4z"/>
<glyph glyph-name="psi" horiz-adv-x="652" unicode="ψ" d="M303 -180v168q-111 1 -169.5 60t-58.5 166v144q0 73 -5 122h44q5 -43 5 -108q0 -35 -1 -92t-1 -66q0 -90 48 -138.5t138 -48.5v592h42v-592q96 3 147.5 61.5t51.5 168.5q0 109 -44 223l43 12q47 -122 47 -235q0 -125 -65.5 -195t-179.5 -74v-168h-42z"/>
<glyph glyph-name="uni03D1" horiz-adv-x="506" unicode="ϑ" d="M249 -12q-70 0 -112 43.5t-42 134.5q0 93 -6 130h41q7 -24 7 -90v-36q0 -76 32 -109.5t83 -33.5q66 0 104 72.5t39 253.5q-42 -6 -77 -6q-65 0 -113.5 18.5t-75.5 49.5t-40 66.5t-13 74.5q0 79 45 127t111 48q208 0 208 -365q0 -108 -14.5 -184t-41.5 -117t-59.5 -59 t-75.5 -18zM122 557q0 -74 46 -124t152 -50q33 0 75 6q-6 303 -160 303h-2q-48 0 -79.5 -36t-31.5 -99z"/>
<glyph glyph-name="endash" horiz-adv-x="480" unicode="–" d="M40 232v36h400v-36h-400z"/>
<glyph glyph-name="emdash" horiz-adv-x="800" unicode="—" d="M40 232v36h720v-36h-720z"/>
<glyph glyph-name="quoteleft" horiz-adv-x="219" unicode="‘" d="M102 480q-20 0 -32 17.5t-12 49.5q0 100 85 156l18 -23q-35 -29 -51 -56.5t-16 -67.5q2 1 8 1q16 0 28 -9.5t12 -27.5t-11 -29t-29 -11z"/>
<glyph glyph-name="quotesinglbase" horiz-adv-x="219" unicode="‚" d="M76 -131l-18 23q35 29 51 56.5t16 67.5q-2 -1 -8 -1q-16 0 -27.5 9.5t-11.5 27.5t11 29t28 11q21 0 33 -17.5t12 -49.5q0 -100 -86 -156z"/>
<glyph glyph-name="quotedblleft" horiz-adv-x="360" unicode="“" d="M243 480q-20 0 -32 17.5t-12 49.5q0 100 85 156l18 -23q-35 -29 -51 -56.5t-16 -67.5q2 1 8 1q16 0 28 -9.5t12 -27.5t-11 -29t-29 -11zM102 480q-20 0 -32 17.5t-12 49.5q0 100 85 156l18 -23q-35 -29 -51 -56.5t-16 -67.5q2 1 8 1q16 0 28 -9.5t12 -27.5t-11 -29 t-29 -11z"/>
<glyph glyph-name="quotedblright" horiz-adv-x="360" unicode="”" d="M217 477l-18 23q35 29 51 56.5t16 67.5q-2 -1 -8 -1q-16 0 -27.5 9.5t-11.5 27.5t10.5 29t28.5 11q21 0 33 -17.5t12 -49.5q0 -100 -86 -156zM76 477l-18 23q35 29 51 56.5t16 67.5q-2 -1 -8 -1q-16 0 -27.5 9.5t-11.5 27.5t11 29t28 11q21 0 33 -17.5t12 -49.5 q0 -100 -86 -156z"/>
<glyph glyph-name="dagger" horiz-adv-x="420" unicode="†" d="M189 -80l3 602l-132 -2v42l132 -3l-3 153h42l-2 -153l132 3v-42l-132 2l2 -602h-42z"/>
<glyph glyph-name="daggerdbl" horiz-adv-x="420" unicode="‡" d="M189 -80l3 153l-132 -3v42l132 -3l-3 207l3 207l-132 -3v42l132 -3l-3 153h42l-2 -153l132 3v-42l-132 3l2 -207l-2 -207l132 3v-42l-132 3l2 -153h-42z"/>
<glyph glyph-name="ellipsis" horiz-adv-x="931" unicode="…" d="M821 -12q-17 0 -30 12.5t-13 32.5q0 21 13 33.5t30 12.5t29.5 -12.5t12.5 -33.5q0 -20 -12.5 -32.5t-29.5 -12.5zM484 -12q-17 0 -30 12.5t-13 32.5q0 21 13 33.5t30 12.5t29.5 -12.5t12.5 -33.5q0 -20 -12.5 -32.5t-29.5 -12.5zM147 -12q-17 0 -30 12.5t-13 32.5 q0 21 13 33.5t30 12.5t29.5 -12.5t12.5 -33.5q0 -20 -12.5 -32.5t-29.5 -12.5z"/>
<glyph glyph-name="perthousand" horiz-adv-x="1162" unicode="‰" d="M981 21q47 0 74.5 46.5t27.5 128.5t-27.5 127.5t-74.5 45.5t-74.5 -45.5t-27.5 -127.5t27.5 -128.5t74.5 -46.5zM981 -12q-66 0 -103.5 54.5t-37.5 153.5q0 98 37.5 152t103.5 54t103.5 -54t37.5 -152q0 -99 -37.5 -153.5t-103.5 -54.5zM621 21q47 0 74.5 46.5 t27.5 128.5t-27.5 127.5t-74.5 45.5t-74.5 -45.5t-27.5 -127.5t27.5 -128.5t74.5 -46.5zM621 -12q-66 0 -103.5 54.5t-37.5 153.5q0 98 37.5 152t103.5 54t103.5 -54t37.5 -152q0 -99 -37.5 -153.5t-103.5 -54.5zM181 290q47 0 74.5 46.5t27.5 128.5t-27.5 127.5t-74.5 45.5 t-74.5 -45.5t-27.5 -127.5t27.5 -128.5t74.5 -46.5zM181 257q-66 0 -103.5 54.5t-37.5 153.5q0 98 37.5 152t103.5 54t103.5 -54t37.5 -152q0 -99 -37.5 -153.5t-103.5 -54.5zM194 -12l368 683h38l-367 -683h-39z"/>
<glyph glyph-name="uni2032" horiz-adv-x="219" unicode="′" d="M82 486l23 207l43 -2l-10 -70l-27 -136z"/>
<glyph glyph-name="uni2033" horiz-adv-x="360" unicode="″" d="M223 486l23 207l43 -2l-10 -70l-27 -136zM82 486l23 207l43 -2l-10 -70l-27 -136z"/>
<glyph glyph-name="guilsinglleft" horiz-adv-x="259" unicode="‹" d="M180 72l-137 161v38l137 161l25 -21l-123 -159l123 -161z"/>
<glyph glyph-name="guilsinglright" horiz-adv-x="259" unicode="›" d="M78 72l-24 19l122 161l-122 159l24 21l138 -161v-38z"/>
<glyph glyph-name="uni203E" horiz-adv-x="500" unicode="‾" d="M12 569v39h476v-39h-476z"/>
<glyph glyph-name="fraction" horiz-adv-x="80" unicode="⁄" d="M-165 -12l368 683h38l-367 -683h-39z"/>
<glyph glyph-name="Euro" d="M308 -12q-87 0 -145.5 69t-73.5 189h-65v29l62 4q-1 14 -1 42q0 24 1 35h-62v29l65 4q14 123 76 192.5t158 69.5q43 0 80.5 -22t60.5 -56l-29 -27q-49 67 -112 67q-79 0 -127.5 -59t-59.5 -165h278v-33h-281q-1 -11 -1 -34q0 -29 1 -43h241v-33h-238q13 -103 58.5 -161.5 t116.5 -58.5q75 0 134 81l29 -25q-68 -94 -166 -94z" unicode="€"/>
<glyph glyph-name="trademark" horiz-adv-x="610" unicode="™" d="M307 369v307h52l52 -126l31 -86h4l31 86l50 126h52v-307h-37v161l5 98h-4l-83 -211h-34l-83 211h-4l5 -98v-161h-37zM109 369v272h-107v35h253v-35h-108v-272h-38z"/>
<glyph glyph-name="uni2190" horiz-adv-x="620" unicode="←" d="M298 -14l-269 264v4l269 264l26 -27l-231 -220h487v-38h-487l231 -220z"/>
<glyph glyph-name="arrowup" horiz-adv-x="620" unicode="↑" d="M290 -24v486l-219 -231l-28 26l265 269h4l264 -269l-27 -26l-220 231v-486h-39z"/>
<glyph glyph-name="uni2192" horiz-adv-x="620" unicode="→" d="M320 -14l-26 27l230 220h-486v38h486l-230 220l26 27l269 -264v-4z"/>
<glyph glyph-name="arrowdown" horiz-adv-x="620" unicode="↓" d="M308 -24l-265 269l28 26l219 -231v486h39v-486l220 231l27 -26l-264 -269h-4z"/>
<glyph glyph-name="partialdiff" horiz-adv-x="499" unicode="∂" d="M213 27q79 0 130.5 68.5t67.5 181.5q-73 83 -157 83q-87 0 -130.5 -51.5t-43.5 -128.5q0 -67 39 -110t94 -43zM209 -12q-71 0 -122 52t-51 137q0 99 57 160t160 61q91 0 162 -76q1 13 1 41q0 269 -157 269q-68 0 -118 -53l-23 29q58 63 145 63q90 0 144 -75t54 -232 q0 -168 -69 -272t-183 -104z"/>
<glyph glyph-name="product" horiz-adv-x="652" unicode="∏" d="M94 -120v759h464v-759h-48v719h-370v-719h-46z"/>
<glyph glyph-name="summation" horiz-adv-x="487" unicode="∑" d="M19 -120v33l257 347l-245 346v33h425v-39h-367v-4l239 -335l-250 -337v-4h409v-40h-468z"/>
<glyph glyph-name="minus" d="M34 311v38h411v-38h-411z" unicode="−"/>
<glyph glyph-name="radical" horiz-adv-x="539" unicode="√" d="M283 -105l-150 439l-69 -32l-15 31l109 51l126 -377q8 -24 15 -52h4q1 6 4.5 24t6.5 28l189 813h38l-217 -925h-41z"/>
<glyph glyph-name="infinity" horiz-adv-x="763" unicode="∞" d="M566 211q53 0 84.5 34.5t31.5 85.5q0 55 -33 90.5t-91 35.5q-86 0 -172 -123q50 -65 91.5 -94t88.5 -29zM187 220q80 0 153 106q-41 54 -77 81t-77 27q-45 0 -75 -27.5t-30 -75.5q0 -49 31 -80t75 -31zM564 167q-59 0 -104 31t-96 94h-4q-1 -1 -16 -17.5t-20 -21.5 t-20.5 -19.5t-26.5 -20.5t-27 -15t-33 -12.5t-35 -3.5q-57 0 -99 42.5t-42 103.5q0 67 42.5 108.5t105.5 41.5q38 0 74.5 -20t55.5 -40t43 -51h4q94 127 196 127q71 0 115.5 -45t44.5 -116q0 -72 -44 -119t-114 -47z"/>
<glyph glyph-name="approxequal" d="M329 164q-33 0 -66 22.5t-62 45t-53 22.5q-47 0 -79 -63l-29 18q43 83 110 83q33 0 66 -22.5t62 -45t53 -22.5q47 0 79 63l28 -20q-20 -39 -49.5 -60t-59.5 -21zM329 368q-33 0 -66 22.5t-62 45t-53 22.5q-47 0 -79 -63l-29 18q43 83 110 83q33 0 66 -22.5t62 -45 t53 -22.5q47 0 79 63l28 -20q-20 -39 -49.5 -60t-59.5 -21z" unicode="≈"/>
<glyph glyph-name="notequal" d="M66 80l79 129h-111v38h134l102 166h-236v38h259l79 129h41l-79 -129h111v-38h-134l-102 -166h236v-38h-259l-79 -129h-41z" unicode="≠"/>
<glyph glyph-name="lessequal" d="M34 0v37h411v-37h-411zM445 152l-411 160v46l411 160v-43l-232 -88l-133 -50v-4l133 -50l232 -88v-43z" unicode="≤"/>
<glyph glyph-name="greaterequal" d="M34 0v37h411v-37h-411zM34 152v43l232 88l133 50v4l-133 50l-232 88v43l411 -160v-46z" unicode="≥"/>
<glyph glyph-name="lozenge" horiz-adv-x="499" unicode="◊" d="M247 28h4l68 139l76 163l-76 161l-68 141h-4l-68 -141l-75 -161l75 -163zM225 -10l-166 340l166 340h49l166 -340l-166 -340h-49z"/>
</font>
</defs>
</svg>
