<?xml version="1.0" encoding="UTF-8" standalone="no"?>
<!DOCTYPE svg  PUBLIC '-//W3C//DTD SVG 1.1//EN'  'http://www.w3.org/Graphics/SVG/1.1/DTD/svg11.dtd'>
<svg xmlns="http://www.w3.org/2000/svg">
<defs>
<font id="AWConquerorSans-Light" horiz-adv-x="500">
<font-face underline-position="-124" font-weight="300" descent="-200" panose-1="2 11 3 3 4 5 2 2 2 4" units-per-em="1000" unicode-range="U+0020-25CA" bbox="-25 -238 980 861" x-height="449" underline-thickness="56" font-family="AWConquerorSans" ascent="800" cap-height="674"/>
<missing-glyph horiz-adv-x="1000"/>
<glyph glyph-name=".notdef" horiz-adv-x="1000"/>
<glyph glyph-name=".null" horiz-adv-x="0"/>
<glyph glyph-name=".null" horiz-adv-x="0"/>
<glyph glyph-name="nonmarkingreturn" horiz-adv-x="333"/>
<glyph glyph-name="space" horiz-adv-x="250" unicode=" "/>
<glyph glyph-name="space" horiz-adv-x="250" unicode=" "/>
<glyph glyph-name="exclam" horiz-adv-x="250" unicode="!" d="M83 42q0 19 11.5 31t30.5 12t31 -12t12 -31t-12 -30.5t-31 -11.5t-30.5 11.5t-11.5 30.5zM162 674l-12 -487h-51l-12 487h75z"/>
<glyph glyph-name="quotedbl" horiz-adv-x="410" unicode='&quot;' d="M155 674l-8 -245h-44l-8 245h60zM315 674l-8 -245h-44l-9 245h61z"/>
<glyph glyph-name="numbersign" horiz-adv-x="540" unicode="#" d="M313 176l29 143h-114l-29 -143h114zM323 0h-47l27 129h-114l-27 -129h-46l27 129h-80v47h90l29 143h-119v48h129l27 128h46l-27 -128h114l27 128h46l-27 -128h78v-48h-88l-29 -143h117v-47h-127z"/>
<glyph glyph-name="dollar" horiz-adv-x="508" unicode="$" d="M142 378q0 -33 22 -51.5t64 -32.5v156q-86 -8 -86 -72zM376 122q0 36 -24 56.5t-68 34.5v-167q92 10 92 76zM443 131q0 -62 -42 -98.5t-117 -43.5v-102h-56v101q-109 6 -178 85l48 46q52 -65 130 -73v182q-35 10 -57 18.5t-46.5 24.5t-36.5 40.5t-12 58.5q0 55 36 93 t116 44v101h56v-101q98 -9 158 -82l-47 -41q-38 54 -111 65v-172q37 -10 59 -19t48.5 -25.5t39 -41.5t12.5 -60z"/>
<glyph glyph-name="percent" horiz-adv-x="816" unicode="%" d="M432 169q0 76 44 129.5t123 53.5t123 -53.5t44 -129.5t-44 -129t-123 -53t-123 53t-44 129zM488 170q0 -56 28 -95.5t83 -39.5t83 39.5t28 95.5q0 55 -28 94.5t-83 39.5t-83 -39.5t-28 -94.5zM622 674l-372 -674h-56l372 674h56zM384 505q0 -76 -44 -129.5t-123 -53.5 t-123 53.5t-44 129.5t44 129t123 53t123 -53t44 -129zM328 504q0 56 -28 95.5t-83 39.5t-83 -39.5t-28 -95.5q0 -55 28 -94.5t83 -39.5t83 39.5t28 94.5z"/>
<glyph glyph-name="ampersand" horiz-adv-x="806" unicode="&amp;" d="M150 190q0 -73 55 -110.5t149 -37.5q105 0 171 46.5t66 133.5q0 31 -10 61l-127 -54l-22 57l317 136l22 -57l-127 -54q14 -35 14 -78q0 -121 -87 -183.5t-222 -62.5q-130 0 -199.5 53.5t-69.5 147.5q0 80 44 126t121 57q-63 11 -98.5 50t-35.5 98q0 80 58 124t149 44 q117 0 189 -75l-43 -42q-52 59 -147 59q-66 0 -101 -30t-35 -81q0 -58 44.5 -89.5t121.5 -31.5h34v-60h-33q-101 0 -149.5 -36t-48.5 -111z"/>
<glyph glyph-name="quotesingle" horiz-adv-x="250" unicode="&apos;" d="M155 674l-8 -245h-44l-8 245h60z"/>
<glyph glyph-name="parenleft" horiz-adv-x="307" unicode="(" d="M294 -208h-62q-74 93 -119 196.5t-45 244.5q0 140 45.5 245t118.5 196h62q-163 -206 -163 -441t163 -441z"/>
<glyph glyph-name="parenright" horiz-adv-x="307" unicode=")" d="M75 -208h-62q163 206 163 441t-163 441h62q73 -91 118.5 -196t45.5 -245q0 -141 -45 -244.5t-119 -196.5z"/>
<glyph glyph-name="asterisk" horiz-adv-x="429" unicode="*" d="M382 533l-133 -40l88 -116l-37 -28l-86 118l-84 -117l-40 27l90 116l-133 41l15 44l130 -45l-2 141h50l-2 -141l130 44z"/>
<glyph glyph-name="plus" d="M277 23h-55v202h-202v55h202v203h55v-203h203v-55h-203v-202z" unicode="+"/>
<glyph glyph-name="comma" horiz-adv-x="250" unicode="," d="M90 -153h-50l55 245h64z"/>
<glyph glyph-name="hyphen" horiz-adv-x="250" unicode="-" d="M230 203h-210v59h210v-59z"/>
<glyph glyph-name="period" horiz-adv-x="250" unicode="." d="M76 48q0 21 13.5 35t34.5 14t35 -14t14 -35t-14 -34.5t-35 -13.5t-34.5 13.5t-13.5 34.5z"/>
<glyph glyph-name="slash" horiz-adv-x="336" unicode="/" d="M62 0h-57l269 674h57z"/>
<glyph glyph-name="zero" horiz-adv-x="578" unicode="0" d="M528 248q0 -109 -63 -185t-176 -76t-176 76t-63 185t63 184.5t176 75.5t176 -75.5t63 -184.5zM458 247q0 84 -43 145t-126 61t-126 -60.5t-43 -145.5q0 -84 43 -144.5t126 -60.5t126 60.5t43 144.5z"/>
<glyph glyph-name="one" horiz-adv-x="287" unicode="1" d="M177 0h-67v491l67 24v-515z"/>
<glyph glyph-name="two" horiz-adv-x="555" unicode="2" d="M71 431q74 77 188 77q84 0 142.5 -43.5t58.5 -130.5q0 -34 -16 -66.5t-38.5 -57t-63 -53t-73 -47t-86.5 -47.5h322v-63h-445v49q203 112 266.5 165.5t63.5 122.5q0 54 -38.5 83.5t-98.5 29.5q-85 0 -139 -61z"/>
<glyph glyph-name="three" horiz-adv-x="554" unicode="3" d="M484 3q0 -95 -66.5 -145t-167.5 -50q-65 0 -111.5 18.5t-88.5 59.5l46 43q54 -66 154 -66q78 0 121 36.5t43 103.5q0 71 -52 108t-150 37h-59v60h61q77 0 123 33.5t46 94.5q0 52 -37.5 83t-98.5 31q-95 0 -147 -59l-43 42q72 75 189 75q92 0 149.5 -44t57.5 -127 q0 -59 -37 -100t-97 -54q75 -13 120 -58.5t45 -121.5z"/>
<glyph glyph-name="four" horiz-adv-x="579" unicode="4" d="M117 64h256v342zM438 -179h-65v185h-333v49l339 453h59v-444h111v-58h-111v-185z"/>
<glyph glyph-name="five" horiz-adv-x="526" unicode="5" d="M476 14q0 -89 -66 -147.5t-168 -58.5q-65 0 -111.5 18.5t-88.5 59.5l46 43q54 -66 154 -66q75 0 119.5 38.5t44.5 108.5q0 81 -50.5 123.5t-143.5 42.5q-56 0 -113 -15v334h343v-65h-281v-200q31 3 67 3q110 0 179 -53t69 -166z"/>
<glyph glyph-name="six" horiz-adv-x="601" unicode="6" d="M461 207q0 73 -38 116t-114 43q-104 0 -160 -85v-20q0 -95 41 -157.5t121 -62.5q72 0 111 43.5t39 122.5zM309 -13q-63 0 -108.5 25.5t-71 70.5t-37.5 99t-12 120q0 385 262 385q102 0 182 -78l-47 -43q-59 66 -141 66q-181 0 -186 -284q68 74 174 74q94 0 150.5 -56.5 t56.5 -149.5q0 -102 -61 -165.5t-161 -63.5z"/>
<glyph glyph-name="seven" horiz-adv-x="503" unicode="7" d="M463 495v-49l-114 -209q-56 -103 -75 -175.5t-19 -168.5v-72h-66v71q0 98 24.5 177.5t87.5 197.5l87 163h-343v65h418z"/>
<glyph glyph-name="eight" horiz-adv-x="598" unicode="8" d="M299 -13q-100 0 -164.5 53t-64.5 142q0 65 34.5 112t100.5 65q-50 16 -80.5 58t-30.5 94q0 81 59 128.5t146 47.5t146 -47.5t59 -128.5q0 -52 -30.5 -94t-80.5 -58q66 -18 100.5 -65t34.5 -112q0 -89 -64.5 -142t-164.5 -53zM298 42q72 0 116 37t44 104q0 70 -41.5 108 t-117.5 38q-78 0 -120 -38t-42 -108q0 -67 44.5 -104t116.5 -37zM300 383q57 0 98 35.5t41 92.5q0 55 -37 88t-102 33t-101.5 -33t-36.5 -88q0 -57 40.5 -92.5t97.5 -35.5z"/>
<glyph glyph-name="nine" horiz-adv-x="601" unicode="9" d="M140 288q0 -73 38 -116t114 -43q104 0 160 85v20q0 95 -41 157.5t-121 62.5q-72 0 -111 -43.5t-39 -122.5zM292 508q63 0 108.5 -25.5t71 -70.5t37.5 -99t12 -120q0 -385 -262 -385q-102 0 -182 78l47 43q59 -66 141 -66q181 0 186 284q-68 -74 -174 -74 q-94 0 -150.5 56.5t-56.5 149.5q0 102 61 165.5t161 63.5z"/>
<glyph glyph-name="colon" horiz-adv-x="250" unicode=":" d="M76 400q0 21 13.5 35t34.5 14t35 -14t14 -35t-14 -34.5t-35 -13.5t-34.5 13.5t-13.5 34.5zM76 48q0 21 13.5 35t34.5 14t35 -14t14 -35t-14 -34.5t-35 -13.5t-34.5 13.5t-13.5 34.5z"/>
<glyph glyph-name="semicolon" horiz-adv-x="250" unicode=";" d="M73 400q0 21 13.5 35t34.5 14t35 -14t14 -35t-14 -34.5t-35 -13.5t-34.5 13.5t-13.5 34.5zM90 -153h-50l55 245h64z"/>
<glyph glyph-name="less" d="M420 0h-338v675h338v-675zM109 636v-419l123 -121v61l-82 108v74l202 -201v-61l39 -41v250l-39 39v-76l-202 201v65l82 -54v54z" unicode="&lt;"/>
<glyph glyph-name="equal" d="M480 325h-460v55h460v-55zM480 125h-460v55h460v-55z" unicode="="/>
<glyph glyph-name="greater" d="M420 0h-338v675h338v-675zM109 636v-419l123 -121v61l-82 108v74l202 -201v-61l39 -41v250l-39 39v-76l-202 201v65l82 -54v54z" unicode="&gt;"/>
<glyph glyph-name="question" horiz-adv-x="439" unicode="?" d="M219 305l-4 -118h-51l-4 145q89 54 124 93t35 91q0 54 -34.5 83.5t-89.5 29.5q-79 0 -132 -61l-43 42q74 77 181 77q78 0 133 -43t55 -125q0 -36 -13.5 -68t-41.5 -59t-52 -45t-63 -42zM148 42q0 19 11.5 31t30.5 12t31 -12t12 -31t-12 -30.5t-31 -11.5t-30.5 11.5 t-11.5 30.5z"/>
<glyph glyph-name="at" horiz-adv-x="784" unicode="@" d="M554 321v-198q0 -35 37 -35t61.5 38.5t24.5 130.5q0 142 -77.5 221t-205.5 79q-134 0 -208 -91.5t-74 -229.5q0 -145 72.5 -233t213.5 -88q139 0 218 80l33 -40q-94 -90 -255 -90q-163 0 -252 102.5t-89 269.5q0 100 37.5 182.5t116.5 135t187 52.5q154 0 247.5 -94 t93.5 -252q0 -108 -43 -163.5t-104 -55.5q-33 0 -56.5 16t-30.5 42q-49 -65 -139 -65q-62 0 -101.5 34t-39.5 90q0 64 44 95.5t113 31.5q63 0 120 -21v48q0 46 -29 71t-81 25q-70 0 -112 -52l-37 38q57 67 152 67q74 0 118.5 -37t44.5 -104zM498 153v65q-53 22 -110 22 q-111 0 -111 -80q0 -34 26 -54.5t71 -20.5q80 0 124 68z"/>
<glyph glyph-name="A" horiz-adv-x="675" unicode="A" d="M460 268l-124 313l-123 -313h247zM645 0h-79l-82 207h-295l-81 -207h-78l278 684h61z"/>
<glyph glyph-name="B" horiz-adv-x="682" unicode="B" d="M531 192q0 63 -47 96t-128 33h-165v-260h170q170 0 170 131zM494 495q0 55 -35 86.5t-95 31.5h-173v-233h172q60 0 95.5 30t35.5 85zM602 189q0 -94 -66 -141.5t-167 -47.5h-249v674h254q77 0 134 -45t57 -130q0 -50 -28.5 -87.5t-75.5 -56.5q62 -12 101.5 -54.5 t39.5 -111.5z"/>
<glyph glyph-name="C" horiz-adv-x="682" unicode="C" d="M55 336q0 69 18.5 131t55 111.5t96 79t134.5 29.5q150 0 243 -111l-52 -46q-75 95 -189 95q-113 0 -173 -85t-60 -203t60 -203t173 -85q114 0 189 95l52 -46q-93 -111 -243 -111q-99 0 -170 51t-102.5 128t-31.5 170z"/>
<glyph glyph-name="D" horiz-adv-x="742" unicode="D" d="M614 337q0 125 -69 200t-186 75h-168v-550h168q123 0 189 75.5t66 199.5zM687 338q0 -147 -84.5 -242.5t-238.5 -95.5h-244v674h244q80 0 143 -26.5t101.5 -73.5t58.5 -106.5t20 -129.5z"/>
<glyph glyph-name="E" horiz-adv-x="626" unicode="E" d="M541 0h-421v674h401v-64h-330v-230h300v-62h-300v-254h350v-64z"/>
<glyph glyph-name="F" horiz-adv-x="611" unicode="F" d="M511 288h-320v-288h-71v674h421v-64h-350v-258h320v-64z"/>
<glyph glyph-name="G" horiz-adv-x="694" unicode="G" d="M336 259v62h268v-296q-94 -38 -217 -38q-162 0 -247 92t-85 257q0 69 18.5 131t55 111.5t96 79t134.5 29.5q150 0 243 -111l-52 -46q-75 95 -189 95q-113 0 -173 -85t-60 -203q0 -136 64.5 -212t200.5 -76q86 0 143 22v188h-200z"/>
<glyph glyph-name="H" horiz-adv-x="779" unicode="H" d="M659 0h-71v318h-397v-318h-71v674h71v-292h397v292h71v-674z"/>
<glyph glyph-name="I" horiz-adv-x="311" unicode="I" d="M191 0h-71v674h71v-674z"/>
<glyph glyph-name="J" horiz-adv-x="512" unicode="J" d="M351 674h71v-475q0 -102 -50.5 -157t-144.5 -55q-59 0 -101 25t-86 83l54 50q29 -44 62.5 -68t81.5 -24q58 0 85.5 40.5t27.5 106.5v474z"/>
<glyph glyph-name="K" horiz-adv-x="684" unicode="K" d="M191 0h-71v674h71v-674zM638 0h-99l-322 345l327 329h93l-328 -328z"/>
<glyph glyph-name="L" horiz-adv-x="606" unicode="L" d="M546 0h-426v674h71v-610h355v-64z"/>
<glyph glyph-name="M" horiz-adv-x="847" unicode="M" d="M727 0h-71v540l-208 -335h-51l-208 327v-532h-69v683h56l248 -398l248 398h55v-683z"/>
<glyph glyph-name="N" horiz-adv-x="780" unicode="N" d="M660 -9h-53l-418 553v-544h-69v683h52l419 -556v547h69v-683z"/>
<glyph glyph-name="O" horiz-adv-x="750" unicode="O" d="M695 338q0 -147 -84.5 -249t-235.5 -102t-235.5 102t-84.5 249q0 70 20.5 132t59.5 111t101 77.5t139 28.5t139 -28.5t101 -77.5t59.5 -111t20.5 -132zM622 337q0 119 -65.5 203.5t-181.5 84.5q-78 0 -135.5 -41t-84.5 -105t-27 -142q0 -119 65.5 -203.5t181.5 -84.5 q78 0 135.5 41t84.5 105t27 142z"/>
<glyph glyph-name="P" horiz-adv-x="641" unicode="P" d="M510 464q0 67 -42.5 108t-112.5 41h-164v-299h163q77 0 116.5 38.5t39.5 111.5zM581 466q0 -100 -59.5 -157t-164.5 -57h-166v-252h-71v674h238q101 0 162 -56.5t61 -151.5z"/>
<glyph glyph-name="Q" horiz-adv-x="750" unicode="Q" d="M622 337q0 119 -65.5 203.5t-181.5 84.5q-78 0 -135.5 -41t-84.5 -105t-27 -142q0 -119 65.5 -203.5t181.5 -84.5q78 0 135.5 41t84.5 105t27 142zM695 338q0 -118 -57 -210.5t-161 -125.5l165 -210h-84l-149 197q-22 -2 -34 -2q-151 0 -235.5 102t-84.5 249 q0 70 20.5 132t59.5 111t101 77.5t139 28.5t139 -28.5t101 -77.5t59.5 -111t20.5 -132z"/>
<glyph glyph-name="R" horiz-adv-x="688" unicode="R" d="M618 0h-89l-193 283h-145v-283h-71v674h242q90 0 149.5 -51.5t59.5 -140.5q0 -80 -44.5 -129t-113.5 -60zM500 481q0 60 -40 96t-101 36h-168v-269h161q67 0 107.5 34.5t40.5 102.5z"/>
<glyph glyph-name="S" horiz-adv-x="657" unicode="S" d="M511 537q-66 88 -173 88q-72 0 -108.5 -29.5t-36.5 -78.5q0 -36 20.5 -62t53.5 -42t73 -29.5t80 -29.5t73 -37t53.5 -57t20.5 -84q0 -90 -66 -139.5t-171 -49.5q-150 0 -243 108l53 49q74 -95 192 -95q77 0 119 31t42 83q0 54 -38.5 87.5t-93.5 51.5t-110 37.5 t-93.5 60.5t-38.5 106q0 77 54.5 129t162.5 52q71 0 124.5 -24t100.5 -79z"/>
<glyph glyph-name="T" horiz-adv-x="630" unicode="T" d="M600 610h-249v-610h-71v610h-250v64h570v-64z"/>
<glyph glyph-name="U" horiz-adv-x="779" unicode="U" d="M389 -13q-115 0 -192 65t-77 175v447h71v-448q0 -85 56.5 -131t141.5 -46q90 0 145.5 46t55.5 130v449h69v-447q0 -111 -75.5 -175.5t-194.5 -64.5z"/>
<glyph glyph-name="V" horiz-adv-x="675" unicode="V" d="M109 674l230 -576l228 576h78l-278 -679h-61l-276 679h79z"/>
<glyph glyph-name="W" horiz-adv-x="940" unicode="W" d="M880 674l-184 -679h-74l-153 547l-155 -547h-72l-182 679h78l146 -570l156 570h63l158 -568l144 568h75z"/>
<glyph glyph-name="X" horiz-adv-x="682" unicode="X" d="M632 0h-87l-205 288l-205 -288h-85l242 340l-239 334h88l202 -284l203 284h84l-239 -335z"/>
<glyph glyph-name="Y" horiz-adv-x="642" unicode="Y" d="M355 0h-71v315l-254 359h87l205 -290l205 290h85l-257 -359v-315z"/>
<glyph glyph-name="Z" horiz-adv-x="620" unicode="Z" d="M540 620l-379 -556h399v-64h-490v53l379 557h-359v64h450v-54z"/>
<glyph glyph-name="bracketleft" horiz-adv-x="307" unicode="[" d="M268 -208h-190v882h190v-50h-135v-782h135v-50z"/>
<glyph glyph-name="backslash" horiz-adv-x="336" unicode="\" d="M331 0h-57l-269 674h57z"/>
<glyph glyph-name="bracketright" horiz-adv-x="307" unicode="]" d="M39 674h190v-882h-190v50h135v782h-135v50z"/>
<glyph glyph-name="asciicircum" d="M420 0h-338v675h338v-675zM109 636v-419l123 -121v61l-82 108v74l202 -201v-61l39 -41v250l-39 39v-76l-202 201v65l82 -54v54z" unicode="^"/>
<glyph glyph-name="underscore" d="M500 -208h-500v55h500v-55z" unicode="_"/>
<glyph glyph-name="a" horiz-adv-x="506" unicode="a" d="M421 0h-59v59q-56 -72 -155 -72q-69 0 -113 37t-44 99q0 71 49.5 105t125.5 34q71 0 133 -24v60q0 51 -32 79t-90 28q-77 0 -124 -58l-42 40q64 75 169 75q82 0 132 -41t50 -116v-305zM358 116v72q-58 25 -122 25q-53 0 -88 -20.5t-35 -68.5q0 -38 29 -60.5t79 -22.5 q89 0 137 75z"/>
<glyph glyph-name="b" horiz-adv-x="539" unicode="b" d="M426 224q0 86 -49 134t-132 48q-47 0 -92 -15v-333q44 -15 101 -15q81 0 126.5 49.5t45.5 131.5zM153 674v-225q52 13 98 13q102 0 172.5 -60t70.5 -177q0 -105 -66.5 -171.5t-179.5 -66.5q-74 0 -158 25v662h63z"/>
<glyph glyph-name="c" horiz-adv-x="486" unicode="c" d="M441 62q-70 -75 -178 -75q-107 0 -162.5 69t-55.5 169q0 104 57 170.5t160 66.5q107 0 174 -75l-43 -43q-54 62 -129 62q-78 0 -115.5 -50t-37.5 -129q0 -77 39.5 -130.5t116.5 -53.5q82 0 135 60z"/>
<glyph glyph-name="d" horiz-adv-x="539" unicode="d" d="M113 226q0 -86 49 -134.5t132 -48.5q50 0 92 14v333q-47 16 -101 16q-81 0 -126.5 -49t-45.5 -131zM45 225q0 108 68.5 172.5t168.5 64.5q50 0 104 -14v226h63v-662q-74 -25 -161 -25q-101 0 -172 60.5t-71 177.5z"/>
<glyph glyph-name="e" horiz-adv-x="507" unicode="e" d="M393 270q0 60 -36.5 100t-102.5 40q-124 0 -141 -140h280zM445 62q-70 -75 -178 -75q-106 0 -164 69t-58 167q0 116 59 177.5t150 61.5q93 0 145.5 -52.5t60.5 -153.5q2 -24 2 -38h-351q2 -79 45.5 -127t115.5 -48q80 0 134 60z"/>
<glyph glyph-name="f" horiz-adv-x="333" unicode="f" d="M110 489q0 81 47.5 139.5t140.5 58.5q36 0 66 -11l-17 -57q-25 11 -56 11q-57 0 -87.5 -37t-30.5 -106v-38h135v-54h-135v-395h-63v395h-81v54h81v40z"/>
<glyph glyph-name="g" horiz-adv-x="539" unicode="g" d="M113 233q0 -82 48.5 -128t132.5 -46q50 0 92 14v317q-51 16 -101 16q-81 0 -126.5 -47t-45.5 -126zM449 436v-449q0 -195 -207 -195q-109 0 -179 75l41 41q55 -60 140 -60q72 0 107 30.5t35 96.5v40q-48 -12 -98 -12q-101 0 -172 58t-71 171q0 102 66.5 166t179.5 64 q64 0 158 -26z"/>
<glyph glyph-name="h" horiz-adv-x="554" unicode="h" d="M469 0h-63v290q0 55 -34.5 85.5t-86.5 30.5q-89 0 -132 -76v-330h-63v674h63v-281q53 69 149 69q73 0 120 -42t47 -117v-303z"/>
<glyph glyph-name="i" horiz-adv-x="243" unicode="i" d="M79 644q0 19 11.5 31t30.5 12t31 -12t12 -31t-12 -30.5t-31 -11.5t-30.5 11.5t-11.5 30.5zM153 0h-63v449h63v-449z"/>
<glyph glyph-name="j" horiz-adv-x="243" unicode="j" d="M79 644q0 19 11.5 31t30.5 12t31 -12t12 -31t-12 -30.5t-31 -11.5t-30.5 11.5t-11.5 30.5zM-11 -208l-14 56q60 7 87.5 41.5t27.5 100.5v459h63v-461q0 -78 -41 -132.5t-123 -63.5z"/>
<glyph glyph-name="k" horiz-adv-x="511" unicode="k" d="M153 0h-63v674h63v-674zM470 0h-87l-212 232l216 217h84l-221 -216z"/>
<glyph glyph-name="l" horiz-adv-x="243" unicode="l" d="M153 0h-63v674h63v-674z"/>
<glyph glyph-name="m" horiz-adv-x="868" unicode="m" d="M783 0h-63v290q0 55 -34.5 85.5t-86.5 30.5q-88 0 -133 -81q2 -18 2 -29v-296h-63v290q0 55 -34.5 85.5t-86.5 30.5q-88 0 -131 -76v-330h-63v449h59v-58q54 71 153 71q51 0 91.5 -22t58.5 -63q60 85 165 85q72 0 119 -42t47 -117v-303z"/>
<glyph glyph-name="n" horiz-adv-x="567" unicode="n" d="M482 0h-64v290q0 55 -36 85.5t-90 30.5q-95 0 -139 -76v-330h-63v449h59v-58q58 71 159 71q75 0 124.5 -42t49.5 -117v-303z"/>
<glyph glyph-name="o" horiz-adv-x="522" unicode="o" d="M477 223q0 -104 -55.5 -170t-160.5 -66q-104 0 -160 67.5t-56 171.5t55.5 170t160.5 66q104 0 160 -67.5t56 -171.5zM409 224q0 84 -36 135t-112 51t-112 -50t-36 -135q0 -84 36 -135t112 -51t112 50t36 135z"/>
<glyph glyph-name="p" horiz-adv-x="539" unicode="p" d="M426 223q0 86 -49 134.5t-132 48.5q-47 0 -92 -15v-333q44 -15 101 -15q81 0 126.5 49t45.5 131zM494 224q0 -108 -68.5 -172.5t-168.5 -64.5q-53 0 -104 13v-208h-63v644q76 26 161 26q101 0 172 -60.5t71 -177.5z"/>
<glyph glyph-name="q" horiz-adv-x="539" unicode="q" d="M113 226q0 -86 49 -134.5t132 -48.5q50 0 92 14v333q-47 16 -101 16q-81 0 -126.5 -49t-45.5 -131zM386 -208v207q-48 -12 -98 -12q-101 0 -172 60.5t-71 177.5q0 105 66.5 171t179.5 66q70 0 158 -26v-644h-63z"/>
<glyph glyph-name="r" horiz-adv-x="376" unicode="r" d="M332 391q-27 11 -54 11q-77 0 -132 -82v-320h-63v449h57v-69q62 82 147 82q29 0 61 -10z"/>
<glyph glyph-name="s" horiz-adv-x="418" unicode="s" d="M329 347q-46 61 -117 61q-88 0 -88 -65q0 -31 25.5 -50.5t62 -30t73.5 -23.5t62.5 -43t25.5 -77q0 -61 -46.5 -96.5t-117.5 -35.5q-102 0 -169 77l45 41q48 -64 127 -64q49 0 75 19.5t26 49.5q0 35 -25.5 55.5t-62.5 31t-74 23t-62.5 41.5t-25.5 75q0 59 41.5 92.5 t110.5 33.5q97 0 156 -74z"/>
<glyph glyph-name="t" horiz-adv-x="362" unicode="t" d="M110 175v220h-81v54h81v161h63v-161h135v-54h-135v-218q0 -133 108 -133q17 0 37 4l9 -57q-30 -4 -60 -4q-157 0 -157 188z"/>
<glyph glyph-name="u" horiz-adv-x="547" unicode="u" d="M273 -13q-89 0 -138.5 45t-49.5 117v300h63v-291q0 -52 36 -84t89 -32q56 0 91 30t35 83v294h63v-300q0 -73 -49.5 -117.5t-139.5 -44.5z"/>
<glyph glyph-name="v" horiz-adv-x="463" unicode="v" d="M453 449l-188 -455h-66l-189 455h69l155 -384l155 384h64z"/>
<glyph glyph-name="w" horiz-adv-x="766" unicode="w" d="M738 449l-159 -455h-61l-134 369l-136 -369h-61l-159 455h68l126 -375l134 375h59l135 -374l125 374h63z"/>
<glyph glyph-name="x" horiz-adv-x="492" unicode="x" d="M452 0h-75l-135 186l-133 -186h-69l164 227l-161 222h75l134 -184l131 184h68l-162 -223z"/>
<glyph glyph-name="y" horiz-adv-x="463" unicode="y" d="M264 -208h-63v195l-191 462h69l155 -389l155 389h64l-189 -462v-195z"/>
<glyph glyph-name="z" horiz-adv-x="456" unicode="z" d="M397 404l-258 -349h271v-55h-357v45l258 349h-245v55h331v-45z"/>
<glyph glyph-name="braceleft" d="M420 0h-338v675h338v-675zM109 636v-419l123 -121v61l-82 108v74l202 -201v-61l39 -41v250l-39 39v-76l-202 201v65l82 -54v54z" unicode="{"/>
<glyph glyph-name="bar" horiz-adv-x="250" unicode="|" d="M152 768v-960h-55v960h55z"/>
<glyph glyph-name="braceright" d="M420 0h-338v675h338v-675zM109 636v-419l123 -121v61l-82 108v74l202 -201v-61l39 -41v250l-39 39v-76l-202 201v65l82 -54v54z" unicode="}"/>
<glyph glyph-name="asciitilde" d="M420 0h-338v675h338v-675zM109 636v-419l123 -121v61l-82 108v74l202 -201v-61l39 -41v250l-39 39v-76l-202 201v65l82 -54v54z" unicode="~"/>
<glyph glyph-name="exclamdown" horiz-adv-x="250" unicode="¡" d="M168 407q0 -19 -11.5 -31t-30.5 -12t-31 12t-12 31t12 30.5t31 11.5t30.5 -11.5t11.5 -30.5zM89 -225l12 487h51l12 -487h-75z"/>
<glyph glyph-name="cent" horiz-adv-x="512" unicode="¢" d="M128 248q0 -71 32.5 -128t93.5 -70v395q-62 -13 -94 -69t-32 -128zM472 76q-67 -80 -162 -88v-101h-56v102q-93 12 -143.5 86t-50.5 173t50 172.5t144 85.5v102h56v-101q94 -8 162 -87l-49 -43q-51 63 -113 70v-399q64 9 113 71z"/>
<glyph glyph-name="sterling" horiz-adv-x="519" unicode="£" d="M60 263h84q-47 53 -47 101q0 66 47 105t131 39q121 0 188 -83l-47 -41q-46 67 -144 67q-109 0 -109 -79q0 -9 1.5 -17.5t5.5 -17.5t7 -15.5t10 -16t10.5 -13.5t12.5 -15t12 -14h186v-51h-151q9 -23 9 -41q0 -59 -71 -108h274v-63h-395v49q130 49 130 119q0 22 -16 44 h-128v51z"/>
<glyph glyph-name="currency" d="M420 0h-338v675h338v-675zM109 636v-419l123 -121v61l-82 108v74l202 -201v-61l39 -41v250l-39 39v-76l-202 201v65l82 -54v54z" unicode="¤"/>
<glyph glyph-name="yen" horiz-adv-x="549" unicode="¥" d="M307 0h-66v90h-149v51h149v81h-149v51h114l-156 222h83l143 -203l142 203h81l-159 -222h116v-51h-149v-81h149v-51h-149v-90z"/>
<glyph glyph-name="brokenbar" d="M420 0h-338v675h338v-675zM109 636v-419l123 -121v61l-82 108v74l202 -201v-61l39 -41v250l-39 39v-76l-202 201v65l82 -54v54z" unicode="¦"/>
<glyph glyph-name="section" d="M420 0h-338v675h338v-675zM109 636v-419l123 -121v61l-82 108v74l202 -201v-61l39 -41v250l-39 39v-76l-202 201v65l82 -54v54z" unicode="§"/>
<glyph glyph-name="copyright" horiz-adv-x="783" unicode="©" d="M677 337q0 117 -83.5 199.5t-201.5 82.5q-119 0 -202.5 -82.5t-83.5 -199.5t84 -200t202 -83t201.5 83t83.5 200zM731 337q0 -141 -99 -240.5t-240 -99.5t-240.5 100t-99.5 240q0 141 99.5 240t240.5 99t240 -99.5t99 -239.5zM207 340q0 83 52.5 143t138.5 60 q93 0 147 -64l-48 -44q-26 25 -47 36.5t-51 11.5q-54 0 -87 -39.5t-33 -102.5t33 -104.5t87 -41.5q62 0 104 52l42 -44q-54 -64 -147 -64q-86 0 -138.5 60t-52.5 141z"/>
<glyph glyph-name="ordfeminine" d="M420 0h-338v675h338v-675zM109 636v-419l123 -121v61l-82 108v74l202 -201v-61l39 -41v250l-39 39v-76l-202 201v65l82 -54v54z" unicode="ª"/>
<glyph glyph-name="guillemotleft" horiz-adv-x="410" unicode="«" d="M382 68h-57l-137 165l137 165h57l-121 -165zM222 68h-57l-137 165l137 165h57l-121 -165z"/>
<glyph glyph-name="logicalnot" d="M420 0h-338v675h338v-675zM109 636v-419l123 -121v61l-82 108v74l202 -201v-61l39 -41v250l-39 39v-76l-202 201v65l82 -54v54z" unicode="¬"/>
<glyph glyph-name="registered" horiz-adv-x="783" unicode="®" d="M472 426q0 26 -20 41.5t-54 15.5h-77v-120h71q33 0 56.5 15t23.5 48zM321 146h-66v391h157q54 0 91 -28t37 -80q0 -83 -94 -108l126 -175h-80l-112 165q-10 -1 -30 -1h-29v-164zM677 337q0 117 -83.5 199.5t-201.5 82.5q-119 0 -202.5 -82.5t-83.5 -199.5t84 -200 t202 -83t201.5 83t83.5 200zM731 337q0 -141 -99 -240.5t-240 -99.5t-240.5 100t-99.5 240q0 141 99.5 240t240.5 99t240 -99t99 -240z"/>
<glyph glyph-name="degree" d="M420 0h-338v675h338v-675zM109 636v-419l123 -121v61l-82 108v74l202 -201v-61l39 -41v250l-39 39v-76l-202 201v65l82 -54v54z" unicode="°"/>
<glyph glyph-name="plusminus" d="M420 0h-338v675h338v-675zM109 636v-419l123 -121v61l-82 108v74l202 -201v-61l39 -41v250l-39 39v-76l-202 201v65l82 -54v54z" unicode="±"/>
<glyph glyph-name="twosuperior" d="M420 0h-338v675h338v-675zM109 636v-419l123 -121v61l-82 108v74l202 -201v-61l39 -41v250l-39 39v-76l-202 201v65l82 -54v54z" unicode="²"/>
<glyph glyph-name="threesuperior" d="M420 0h-338v675h338v-675zM109 636v-419l123 -121v61l-82 108v74l202 -201v-61l39 -41v250l-39 39v-76l-202 201v65l82 -54v54z" unicode="³"/>
<glyph glyph-name="mu" d="M420 0h-338v675h338v-675zM109 636v-419l123 -121v61l-82 108v74l202 -201v-61l39 -41v250l-39 39v-76l-202 201v65l82 -54v54z" unicode="µ"/>
<glyph glyph-name="paragraph" horiz-adv-x="589" unicode="¶" d="M459 661v-679q0 -92 -45 -141t-130 -49q-54 0 -91.5 22.5t-76.5 74.5l49 45q54 -83 129 -83q52 0 77 36.5t25 95.5v241q-48 -12 -98 -12q-101 0 -172 60.5t-71 177.5q0 105 66.5 171t179.5 66q70 0 158 -26z"/>
<glyph glyph-name="onesuperior" d="M420 0h-338v675h338v-675zM109 636v-419l123 -121v61l-82 108v74l202 -201v-61l39 -41v250l-39 39v-76l-202 201v65l82 -54v54z" unicode="¹"/>
<glyph glyph-name="ordmasculine" d="M420 0h-338v675h338v-675zM109 636v-419l123 -121v61l-82 108v74l202 -201v-61l39 -41v250l-39 39v-76l-202 201v65l82 -54v54z" unicode="º"/>
<glyph glyph-name="guillemotright" horiz-adv-x="410" unicode="»" d="M28 398h57l137 -165l-137 -165h-57l121 165zM188 398h57l137 -165l-137 -165h-57l121 165z"/>
<glyph glyph-name="onequarter" d="M420 0h-338v675h338v-675zM109 636v-419l123 -121v61l-82 108v74l202 -201v-61l39 -41v250l-39 39v-76l-202 201v65l82 -54v54z" unicode="¼"/>
<glyph glyph-name="onehalf" d="M420 0h-338v675h338v-675zM109 636v-419l123 -121v61l-82 108v74l202 -201v-61l39 -41v250l-39 39v-76l-202 201v65l82 -54v54z" unicode="½"/>
<glyph glyph-name="threequarters" d="M420 0h-338v675h338v-675zM109 636v-419l123 -121v61l-82 108v74l202 -201v-61l39 -41v250l-39 39v-76l-202 201v65l82 -54v54z" unicode="¾"/>
<glyph glyph-name="questiondown" horiz-adv-x="439" unicode="¿" d="M220 144l4 118h51l4 -145q-89 -54 -124 -93t-35 -91q0 -54 34.5 -83.5t89.5 -29.5q79 0 132 61l43 -42q-74 -77 -181 -77q-78 0 -133 43t-55 125q0 36 13.5 68t41.5 59t52 45t63 42zM291 407q0 -19 -11.5 -31t-30.5 -12t-31 12t-12 31t12 30.5t31 11.5t30.5 -11.5 t11.5 -30.5z"/>
<glyph glyph-name="Agrave" horiz-adv-x="675" unicode="À" d="M367 707h-60l-102 113h69zM460 268l-124 313l-123 -313h247zM645 0h-79l-82 207h-295l-81 -207h-78l278 684h61z"/>
<glyph glyph-name="Aacute" horiz-adv-x="675" unicode="Á" d="M370 707h-60l93 113h69zM460 268l-124 313l-123 -313h247zM645 0h-79l-82 207h-295l-81 -207h-78l278 684h61z"/>
<glyph glyph-name="Acircumflex" horiz-adv-x="675" unicode="Â" d="M453 707h-60l-58 64l-58 -64h-60l93 113h50zM460 268l-124 313l-123 -313h247zM645 0h-79l-82 207h-295l-81 -207h-78l278 684h61z"/>
<glyph glyph-name="Atilde" horiz-adv-x="675" unicode="Ã" d="M405 723q-21 0 -68.5 14.5t-65.5 14.5q-27 0 -27 -45h-39q0 47 12.5 72t49.5 25q21 0 68.5 -14.5t65.5 -14.5q27 0 27 45h39q0 -47 -12.5 -72t-49.5 -25zM460 268l-124 313l-123 -313h247zM645 0h-79l-82 207h-295l-81 -207h-78l278 684h61z"/>
<glyph glyph-name="Adieresis" horiz-adv-x="675" unicode="Ä" d="M373 777q0 19 11.5 31t30.5 12t31 -12t12 -31t-12 -30.5t-31 -11.5t-30.5 11.5t-11.5 30.5zM212 777q0 19 11.5 31t30.5 12t31 -12t12 -31t-12 -30.5t-31 -11.5t-30.5 11.5t-11.5 30.5zM460 268l-124 313l-123 -313h247zM645 0h-79l-82 207h-295l-81 -207h-78l278 684h61 z"/>
<glyph glyph-name="Aring" horiz-adv-x="675" unicode="Å" d="M418 784q0 -34 -22 -55.5t-60 -21.5t-60 22t-22 55q0 34 22 55.5t60 21.5t60 -22t22 -55zM378 784q0 46 -42 46q-41 0 -41 -46q0 -45 41 -45q42 0 42 45zM460 268l-124 313l-123 -313h247zM645 0h-79l-82 207h-295l-81 -207h-78l278 684h61z"/>
<glyph glyph-name="AE" horiz-adv-x="972" unicode="Æ" d="M486 351v259h-9l-154 -259h163zM887 0h-401v290h-200l-172 -290h-84l411 674h426v-64h-310v-258h280v-62h-280v-226h330v-64z"/>
<glyph glyph-name="Ccedilla" horiz-adv-x="682" unicode="Ç" d="M283 -167q-35 0 -73 19l17 45q28 -16 55 -16q30 0 48.5 17.5t18.5 54.5q0 17 -3 35q-95 3 -163 54.5t-98 127t-30 166.5q0 69 18.5 131t55 111.5t96 79t134.5 29.5q150 0 243 -111l-52 -46q-75 95 -189 95q-113 0 -173 -85t-60 -203t60 -203t173 -85q114 0 189 95l52 -46 q-82 -98 -208 -109q4 -24 4 -40q0 -54 -31 -85t-84 -31z"/>
<glyph glyph-name="Egrave" horiz-adv-x="626" unicode="È" d="M360 707h-60l-102 113h69zM541 0h-421v674h401v-64h-330v-230h300v-62h-300v-254h350v-64z"/>
<glyph glyph-name="Eacute" horiz-adv-x="626" unicode="É" d="M345 707h-60l93 113h69zM541 0h-421v674h401v-64h-330v-230h300v-62h-300v-254h350v-64z"/>
<glyph glyph-name="Ecircumflex" horiz-adv-x="626" unicode="Ê" d="M445 707h-60l-58 64l-58 -64h-60l93 113h50zM541 0h-421v674h401v-64h-330v-230h300v-62h-300v-254h350v-64z"/>
<glyph glyph-name="Edieresis" horiz-adv-x="626" unicode="Ë" d="M368 777q0 19 11.5 31t30.5 12t31 -12t12 -31t-12 -30.5t-31 -11.5t-30.5 11.5t-11.5 30.5zM207 777q0 19 11.5 31t30.5 12t31 -12t12 -31t-12 -30.5t-31 -11.5t-30.5 11.5t-11.5 30.5zM541 0h-421v674h401v-64h-330v-230h300v-62h-300v-254h350v-64z"/>
<glyph glyph-name="Igrave" horiz-adv-x="311" unicode="Ì" d="M183 707h-60l-102 113h69zM191 0h-71v674h71v-674z"/>
<glyph glyph-name="Iacute" horiz-adv-x="311" unicode="Í" d="M185 707h-60l93 113h69zM191 0h-71v674h71v-674z"/>
<glyph glyph-name="Icircumflex" horiz-adv-x="311" unicode="Î" d="M273 707h-60l-58 64l-58 -64h-60l93 113h50zM191 0h-71v674h71v-674z"/>
<glyph glyph-name="Idieresis" horiz-adv-x="311" unicode="Ï" d="M193 777q0 19 11.5 31t30.5 12t31 -12t12 -31t-12 -30.5t-31 -11.5t-30.5 11.5t-11.5 30.5zM32 777q0 19 11.5 31t30.5 12t31 -12t12 -31t-12 -30.5t-31 -11.5t-30.5 11.5t-11.5 30.5zM191 0h-71v674h71v-674z"/>
<glyph glyph-name="Eth" horiz-adv-x="742" unicode="Ð" d="M614 337q0 125 -69 200t-186 75h-168v-234h189v-58h-189v-258h168q123 0 189 75.5t66 199.5zM687 338q0 -147 -84.5 -242.5t-238.5 -95.5h-244v320h-110v58h110v296h244q80 0 143 -26.5t101.5 -73.5t58.5 -106.5t20 -129.5z"/>
<glyph glyph-name="Ntilde" horiz-adv-x="780" unicode="Ñ" d="M463 723q-21 0 -68.5 14.5t-65.5 14.5q-27 0 -27 -45h-39q0 47 12.5 72t49.5 25q21 0 68.5 -14.5t65.5 -14.5q27 0 27 45h39q0 -47 -12.5 -72t-49.5 -25zM660 -9h-53l-418 553v-544h-69v683h52l419 -556v547h69v-683z"/>
<glyph glyph-name="Ograve" horiz-adv-x="750" unicode="Ò" d="M400 707h-60l-102 113h69zM695 338q0 -147 -84.5 -249t-235.5 -102t-235.5 102t-84.5 249q0 70 20.5 132t59.5 111t101 77.5t139 28.5t139 -28.5t101 -77.5t59.5 -111t20.5 -132zM622 337q0 119 -65.5 203.5t-181.5 84.5q-78 0 -135.5 -41t-84.5 -105t-27 -142 q0 -119 65.5 -203.5t181.5 -84.5q78 0 135.5 41t84.5 105t27 142z"/>
<glyph glyph-name="Oacute" horiz-adv-x="750" unicode="Ó" d="M401 707h-60l93 113h69zM695 338q0 -147 -84.5 -249t-235.5 -102t-235.5 102t-84.5 249q0 70 20.5 132t59.5 111t101 77.5t139 28.5t139 -28.5t101 -77.5t59.5 -111t20.5 -132zM622 337q0 119 -65.5 203.5t-181.5 84.5q-78 0 -135.5 -41t-84.5 -105t-27 -142 q0 -119 65.5 -203.5t181.5 -84.5q78 0 135.5 41t84.5 105t27 142z"/>
<glyph glyph-name="Ocircumflex" horiz-adv-x="750" unicode="Ô" d="M490 707h-60l-58 64l-58 -64h-60l93 113h50zM695 338q0 -147 -84.5 -249t-235.5 -102t-235.5 102t-84.5 249q0 70 20.5 132t59.5 111t101 77.5t139 28.5t139 -28.5t101 -77.5t59.5 -111t20.5 -132zM622 337q0 119 -65.5 203.5t-181.5 84.5q-78 0 -135.5 -41t-84.5 -105 t-27 -142q0 -119 65.5 -203.5t181.5 -84.5q78 0 135.5 41t84.5 105t27 142z"/>
<glyph glyph-name="Otilde" horiz-adv-x="750" unicode="Õ" d="M446 723q-21 0 -68.5 14.5t-65.5 14.5q-27 0 -27 -45h-39q0 47 12.5 72t49.5 25q21 0 68.5 -14.5t65.5 -14.5q27 0 27 45h39q0 -47 -12.5 -72t-49.5 -25zM695 338q0 -147 -84.5 -249t-235.5 -102t-235.5 102t-84.5 249q0 70 20.5 132t59.5 111t101 77.5t139 28.5 t139 -28.5t101 -77.5t59.5 -111t20.5 -132zM622 337q0 119 -65.5 203.5t-181.5 84.5q-78 0 -135.5 -41t-84.5 -105t-27 -142q0 -119 65.5 -203.5t181.5 -84.5q78 0 135.5 41t84.5 105t27 142z"/>
<glyph glyph-name="Odieresis" horiz-adv-x="750" unicode="Ö" d="M412 777q0 19 11.5 31t30.5 12t31 -12t12 -31t-12 -30.5t-31 -11.5t-30.5 11.5t-11.5 30.5zM251 777q0 19 11.5 31t30.5 12t31 -12t12 -31t-12 -30.5t-31 -11.5t-30.5 11.5t-11.5 30.5zM695 338q0 -147 -84.5 -249t-235.5 -102t-235.5 102t-84.5 249q0 70 20.5 132 t59.5 111t101 77.5t139 28.5t139 -28.5t101 -77.5t59.5 -111t20.5 -132zM622 337q0 119 -65.5 203.5t-181.5 84.5q-78 0 -135.5 -41t-84.5 -105t-27 -142q0 -119 65.5 -203.5t181.5 -84.5q78 0 135.5 41t84.5 105t27 142z"/>
<glyph glyph-name="multiply" d="M442 99l-39 -38l-153 152l-153 -152l-39 38l153 153l-153 154l38 39l154 -154l154 154l38 -39l-153 -154z" unicode="×"/>
<glyph glyph-name="Oslash" horiz-adv-x="750" unicode="Ø" d="M128 337q0 -122 65 -204l325 445q-60 47 -143 47q-78 0 -135.5 -41t-84.5 -105t-27 -142zM622 337q0 123 -66 203l-325 -445q60 -46 144 -46q78 0 135.5 41t84.5 105t27 142zM695 338q0 -147 -84.5 -249t-235.5 -102q-107 0 -183 54l-71 -97h-66l96 132q-96 99 -96 262 q0 70 20.5 132t59.5 111t101 77.5t139 28.5q107 0 183 -54l71 97h66l-97 -132q97 -99 97 -260z"/>
<glyph glyph-name="Ugrave" horiz-adv-x="779" unicode="Ù" d="M431 707h-60l-102 113h69zM389 -13q-115 0 -192 65t-77 175v447h71v-448q0 -85 56.5 -131t141.5 -46q90 0 145.5 46t55.5 130v449h69v-447q0 -111 -75.5 -175.5t-194.5 -64.5z"/>
<glyph glyph-name="Uacute" horiz-adv-x="779" unicode="Ú" d="M409 707h-60l93 113h69zM389 -13q-115 0 -192 65t-77 175v447h71v-448q0 -85 56.5 -131t141.5 -46q90 0 145.5 46t55.5 130v449h69v-447q0 -111 -75.5 -175.5t-194.5 -64.5z"/>
<glyph glyph-name="Ucircumflex" horiz-adv-x="779" unicode="Û" d="M504 707h-60l-58 64l-58 -64h-60l93 113h50zM389 -13q-115 0 -192 65t-77 175v447h71v-448q0 -85 56.5 -131t141.5 -46q90 0 145.5 46t55.5 130v449h69v-447q0 -111 -75.5 -175.5t-194.5 -64.5z"/>
<glyph glyph-name="Udieresis" horiz-adv-x="779" unicode="Ü" d="M422 777q0 19 11.5 31t30.5 12t31 -12t12 -31t-12 -30.5t-31 -11.5t-30.5 11.5t-11.5 30.5zM261 777q0 19 11.5 31t30.5 12t31 -12t12 -31t-12 -30.5t-31 -11.5t-30.5 11.5t-11.5 30.5zM389 -13q-115 0 -192 65t-77 175v447h71v-448q0 -85 56.5 -131t141.5 -46 q90 0 145.5 46t55.5 130v449h69v-447q0 -111 -75.5 -175.5t-194.5 -64.5z"/>
<glyph glyph-name="Yacute" horiz-adv-x="642" unicode="Ý" d="M347 707h-60l-102 113h69zM355 0h-71v315l-254 359h87l205 -290l205 290h85l-257 -359v-315z"/>
<glyph glyph-name="Thorn" horiz-adv-x="641" unicode="Þ" d="M510 394q0 67 -42.5 108t-112.5 41h-164v-299h163q77 0 116.5 38.5t39.5 111.5zM581 396q0 -100 -59.5 -157t-164.5 -57h-166v-182h-71v674h71v-70h167q101 0 162 -56.5t61 -151.5z"/>
<glyph glyph-name="germandbls" horiz-adv-x="587" unicode="ß" d="M544 119q0 -61 -46.5 -96.5t-117.5 -35.5q-102 0 -169 77l45 41q48 -64 127 -64q49 0 75 19.5t26 49.5q0 35 -26 55.5t-62.5 31t-73 22.5t-62.5 41t-26 75q0 38 21 64t50.5 40.5t59 27t50.5 32.5t21 48q0 39 -32.5 63.5t-83.5 24.5q-147 0 -147 -148v-487h-63v489 q0 83 51.5 140.5t158.5 57.5q73 0 124 -35t51 -102q0 -39 -20.5 -67.5t-50 -43.5t-59 -27.5t-50 -29.5t-20.5 -40q0 -31 25.5 -50t62.5 -29.5t73.5 -24t62 -43t25.5 -76.5z"/>
<glyph glyph-name="agrave" horiz-adv-x="506" unicode="à" d="M280 497h-53l-107 177h62zM421 0h-59v59q-56 -72 -155 -72q-69 0 -113 37t-44 99q0 71 49.5 105t125.5 34q71 0 133 -24v60q0 51 -32 79t-90 28q-77 0 -124 -58l-42 40q64 75 169 75q82 0 132 -41t50 -116v-305zM358 116v72q-58 25 -122 25q-53 0 -88 -20.5t-35 -68.5 q0 -38 29 -60.5t79 -22.5q89 0 137 75z"/>
<glyph glyph-name="aacute" horiz-adv-x="506" unicode="á" d="M258 497h-53l98 177h62zM421 0h-59v59q-56 -72 -155 -72q-69 0 -113 37t-44 99q0 71 49.5 105t125.5 34q71 0 133 -24v60q0 51 -32 79t-90 28q-77 0 -124 -58l-42 40q64 75 169 75q82 0 132 -41t50 -116v-305zM358 116v72q-58 25 -122 25q-53 0 -88 -20.5t-35 -68.5 q0 -38 29 -60.5t79 -22.5q89 0 137 75z"/>
<glyph glyph-name="acircumflex" horiz-adv-x="506" unicode="â" d="M164 497h-53l109 177h64l109 -177h-53l-88 128zM421 0h-59v59q-56 -72 -155 -72q-69 0 -113 37t-44 99q0 71 49.5 105t125.5 34q71 0 133 -24v60q0 51 -32 79t-90 28q-77 0 -124 -58l-42 40q64 75 169 75q82 0 132 -41t50 -116v-305zM358 116v72q-58 25 -122 25 q-53 0 -88 -20.5t-35 -68.5q0 -38 29 -60.5t79 -22.5q89 0 137 75z"/>
<glyph glyph-name="atilde" horiz-adv-x="506" unicode="ã" d="M328 558q-24 0 -76.5 16t-72.5 16q-41 0 -41 -65h-44q0 116 80 116q24 0 76.5 -16t72.5 -16q41 0 41 65h44q0 -116 -80 -116zM421 0h-59v59q-56 -72 -155 -72q-69 0 -113 37t-44 99q0 71 49.5 105t125.5 34q71 0 133 -24v60q0 51 -32 79t-90 28q-77 0 -124 -58l-42 40 q64 75 169 75q82 0 132 -41t50 -116v-305zM358 116v72q-58 25 -122 25q-53 0 -88 -20.5t-35 -68.5q0 -38 29 -60.5t79 -22.5q89 0 137 75z"/>
<glyph glyph-name="adieresis" horiz-adv-x="506" unicode="ä" d="M289 644q0 19 11.5 31t30.5 12t31 -12t12 -31t-12 -30.5t-31 -11.5t-30.5 11.5t-11.5 30.5zM128 644q0 19 11.5 31t30.5 12t31 -12t12 -31t-12 -30.5t-31 -11.5t-30.5 11.5t-11.5 30.5zM421 0h-59v59q-56 -72 -155 -72q-69 0 -113 37t-44 99q0 71 49.5 105t125.5 34 q71 0 133 -24v60q0 51 -32 79t-90 28q-77 0 -124 -58l-42 40q64 75 169 75q82 0 132 -41t50 -116v-305zM358 116v72q-58 25 -122 25q-53 0 -88 -20.5t-35 -68.5q0 -38 29 -60.5t79 -22.5q89 0 137 75z"/>
<glyph glyph-name="aring" horiz-adv-x="506" unicode="å" d="M346 591q0 -42 -27 -69t-74 -27t-74 27.5t-27 68.5q0 42 27 69t74 27t74 -27.5t27 -68.5zM303 591q0 28 -14.5 45.5t-43.5 17.5q-57 0 -57 -63q0 -27 14 -44.5t43 -17.5q58 0 58 62zM421 0h-59v59q-56 -72 -155 -72q-69 0 -113 37t-44 99q0 71 49.5 105t125.5 34 q71 0 133 -24v60q0 51 -32 79t-90 28q-77 0 -124 -58l-42 40q64 75 169 75q82 0 132 -41t50 -116v-305zM358 116v72q-58 25 -122 25q-53 0 -88 -20.5t-35 -68.5q0 -38 29 -60.5t79 -22.5q89 0 137 75z"/>
<glyph glyph-name="ae" horiz-adv-x="813" unicode="æ" d="M562 410q-63 0 -97 -38t-42 -102h276q0 61 -35.5 100.5t-101.5 39.5zM360 187q-60 26 -124 26q-53 0 -88 -20.5t-35 -68.5q0 -38 28.5 -60.5t79.5 -22.5q45 0 85 24t67 67q-11 35 -13 55zM402 384q56 78 160 78q101 0 153.5 -62.5t52.5 -181.5h-347q2 -79 44.5 -127 t114.5 -48q78 0 132 60l39 -41q-70 -75 -176 -75q-119 0 -180 91q-42 -47 -83 -69t-104 -22q-69 0 -113.5 37t-44.5 99q0 71 49.5 105t125.5 34q71 0 133 -24v60q0 51 -32 79t-90 28q-77 0 -124 -58l-42 40q64 75 169 75q118 0 163 -78z"/>
<glyph glyph-name="ccedilla" horiz-adv-x="486" unicode="ç" d="M179 -167q-35 0 -73 19l17 45q28 -16 55 -16q30 0 48.5 17.5t18.5 54.5q0 17 -3 35q-97 8 -147 75.5t-50 161.5q0 104 57 170.5t160 66.5q107 0 174 -75l-43 -43q-54 62 -129 62q-78 0 -115.5 -50t-37.5 -129q0 -77 39.5 -130.5t116.5 -53.5q82 0 135 60l39 -41 q-60 -65 -151 -73q4 -24 4 -40q0 -54 -31 -85t-84 -31z"/>
<glyph glyph-name="egrave" horiz-adv-x="507" unicode="è" d="M281 497h-53l-107 177h62zM393 270q0 60 -36.5 100t-102.5 40q-124 0 -141 -140h280zM445 62q-70 -75 -178 -75q-106 0 -164 69t-58 167q0 116 59 177.5t150 61.5q93 0 145.5 -52.5t60.5 -153.5q2 -24 2 -38h-351q2 -79 45.5 -127t115.5 -48q80 0 134 60z"/>
<glyph glyph-name="eacute" horiz-adv-x="507" unicode="é" d="M279 497h-53l98 177h62zM393 270q0 60 -36.5 100t-102.5 40q-124 0 -141 -140h280zM445 62q-70 -75 -178 -75q-106 0 -164 69t-58 167q0 116 59 177.5t150 61.5q93 0 145.5 -52.5t60.5 -153.5q2 -24 2 -38h-351q2 -79 45.5 -127t115.5 -48q80 0 134 60z"/>
<glyph glyph-name="ecircumflex" horiz-adv-x="507" unicode="ê" d="M168 497h-53l109 177h64l109 -177h-53l-88 128zM393 270q0 60 -36.5 100t-102.5 40q-124 0 -141 -140h280zM445 62q-70 -75 -178 -75q-106 0 -164 69t-58 167q0 116 59 177.5t150 61.5q93 0 145.5 -52.5t60.5 -153.5q2 -24 2 -38h-351q2 -79 45.5 -127t115.5 -48 q80 0 134 60z"/>
<glyph glyph-name="edieresis" horiz-adv-x="507" unicode="ë" d="M305 644q0 19 11.5 31t30.5 12t31 -12t12 -31t-12 -30.5t-31 -11.5t-30.5 11.5t-11.5 30.5zM144 644q0 19 11.5 31t30.5 12t31 -12t12 -31t-12 -30.5t-31 -11.5t-30.5 11.5t-11.5 30.5zM393 270q0 60 -36.5 100t-102.5 40q-124 0 -141 -140h280zM445 62q-70 -75 -178 -75 q-106 0 -164 69t-58 167q0 116 59 177.5t150 61.5q93 0 145.5 -52.5t60.5 -153.5q2 -24 2 -38h-351q2 -79 45.5 -127t115.5 -48q80 0 134 60z"/>
<glyph glyph-name="igrave" horiz-adv-x="243" unicode="ì" d="M157 497h-53l-107 177h62zM164 0h-63v449h63v-449z"/>
<glyph glyph-name="iacute" horiz-adv-x="243" unicode="í" d="M158 497h-53l98 177h62zM164 0h-63v449h63v-449z"/>
<glyph glyph-name="icircumflex" horiz-adv-x="243" unicode="î" d="M45 497h-53l109 177h64l109 -177h-53l-88 128zM164 0h-63v449h63v-449z"/>
<glyph glyph-name="idieresis" horiz-adv-x="243" unicode="ï" d="M173 644q0 19 11.5 31t30.5 12t31 -12t12 -31t-12 -30.5t-31 -11.5t-30.5 11.5t-11.5 30.5zM12 644q0 19 11.5 31t30.5 12t31 -12t12 -31t-12 -30.5t-31 -11.5t-30.5 11.5t-11.5 30.5zM164 0h-63v449h63v-449z"/>
<glyph glyph-name="eth" horiz-adv-x="523" unicode="ð" d="M410 223q0 55 -11.5 91.5t-40.5 82.5q-33 13 -90 13q-156 0 -156 -185q0 -84 36.5 -135t112.5 -51t112.5 49.5t36.5 134.5zM478 224q0 -105 -56 -171t-161 -66q-104 0 -160 67.5t-56 171.5t55.5 170t160.5 66q41 0 59 -5l-45 72l-112 -22v52l83 17l-61 98h77l51 -84 l135 28v-52l-107 -23l79 -129q30 -50 44 -92.5t14 -97.5z"/>
<glyph glyph-name="ntilde" horiz-adv-x="567" unicode="ñ" d="M366 558q-24 0 -76.5 16t-72.5 16q-41 0 -41 -65h-44q0 116 80 116q24 0 76.5 -16t72.5 -16q41 0 41 65h44q0 -116 -80 -116zM482 0h-64v290q0 55 -36 85.5t-90 30.5q-95 0 -139 -76v-330h-63v449h59v-58q58 71 159 71q75 0 124.5 -42t49.5 -117v-303z"/>
<glyph glyph-name="ograve" horiz-adv-x="522" unicode="ò" d="M290 497h-53l-107 177h62zM477 223q0 -104 -55.5 -170t-160.5 -66q-104 0 -160 67.5t-56 171.5t55.5 170t160.5 66q104 0 160 -67.5t56 -171.5zM409 224q0 84 -36 135t-112 51t-112 -50t-36 -135q0 -84 36 -135t112 -51t112 50t36 135z"/>
<glyph glyph-name="oacute" horiz-adv-x="522" unicode="ó" d="M278 497h-53l98 177h62zM477 223q0 -104 -55.5 -170t-160.5 -66q-104 0 -160 67.5t-56 171.5t55.5 170t160.5 66q104 0 160 -67.5t56 -171.5zM409 224q0 84 -36 135t-112 51t-112 -50t-36 -135q0 -84 36 -135t112 -51t112 50t36 135z"/>
<glyph glyph-name="ocircumflex" horiz-adv-x="522" unicode="ô" d="M174 497h-53l109 177h64l109 -177h-53l-88 128zM477 223q0 -104 -55.5 -170t-160.5 -66q-104 0 -160 67.5t-56 171.5t55.5 170t160.5 66q104 0 160 -67.5t56 -171.5zM409 224q0 84 -36 135t-112 51t-112 -50t-36 -135q0 -84 36 -135t112 -51t112 50t36 135z"/>
<glyph glyph-name="otilde" horiz-adv-x="522" unicode="õ" d="M339 558q-24 0 -76.5 16t-72.5 16q-41 0 -41 -65h-44q0 116 80 116q24 0 76.5 -16t72.5 -16q41 0 41 65h44q0 -116 -80 -116zM477 223q0 -104 -55.5 -170t-160.5 -66q-104 0 -160 67.5t-56 171.5t55.5 170t160.5 66q104 0 160 -67.5t56 -171.5zM409 224q0 84 -36 135 t-112 51t-112 -50t-36 -135q0 -84 36 -135t112 -51t112 50t36 135z"/>
<glyph glyph-name="odieresis" horiz-adv-x="522" unicode="ö" d="M299 644q0 19 11.5 31t30.5 12t31 -12t12 -31t-12 -30.5t-31 -11.5t-30.5 11.5t-11.5 30.5zM138 644q0 19 11.5 31t30.5 12t31 -12t12 -31t-12 -30.5t-31 -11.5t-30.5 11.5t-11.5 30.5zM477 223q0 -104 -55.5 -170t-160.5 -66q-104 0 -160 67.5t-56 171.5t55.5 170 t160.5 66q104 0 160 -67.5t56 -171.5zM409 224q0 84 -36 135t-112 51t-112 -50t-36 -135q0 -84 36 -135t112 -51t112 50t36 135z"/>
<glyph glyph-name="divide" d="M201 102q0 21 13.5 35t34.5 14t35 -14t14 -35t-14 -34.5t-35 -13.5t-34.5 13.5t-13.5 34.5zM201 402q0 21 13.5 35t34.5 14t35 -14t14 -35t-14 -34.5t-35 -13.5t-34.5 13.5t-13.5 34.5zM480 225h-460v55h460v-55z" unicode="÷"/>
<glyph glyph-name="oslash" horiz-adv-x="522" unicode="ø" d="M113 225q0 -82 32 -130l195 294q-34 21 -79 21q-76 0 -112 -50t-36 -135zM409 224q0 82 -33 131l-195 -295q31 -21 80 -21q76 0 112 50t36 135zM477 223q0 -104 -55.5 -170t-160.5 -66q-62 0 -111 26l-46 -69h-59l66 99q-66 66 -66 183q0 104 55.5 170t160.5 66 q60 0 109 -26l48 72h59l-67 -102q67 -66 67 -183z"/>
<glyph glyph-name="ugrave" horiz-adv-x="547" unicode="ù" d="M312 497h-53l-107 177h62zM273 -13q-89 0 -138.5 45t-49.5 117v300h63v-291q0 -52 36 -84t89 -32q56 0 91 30t35 83v294h63v-300q0 -73 -49.5 -117.5t-139.5 -44.5z"/>
<glyph glyph-name="uacute" horiz-adv-x="547" unicode="ú" d="M291 497h-53l98 177h62zM273 -13q-89 0 -138.5 45t-49.5 117v300h63v-291q0 -52 36 -84t89 -32q56 0 91 30t35 83v294h63v-300q0 -73 -49.5 -117.5t-139.5 -44.5z"/>
<glyph glyph-name="ucircumflex" horiz-adv-x="547" unicode="û" d="M184 497h-53l109 177h64l109 -177h-53l-88 128zM273 -13q-89 0 -138.5 45t-49.5 117v300h63v-291q0 -52 36 -84t89 -32q56 0 91 30t35 83v294h63v-300q0 -73 -49.5 -117.5t-139.5 -44.5z"/>
<glyph glyph-name="udieresis" horiz-adv-x="547" unicode="ü" d="M310 644q0 19 11.5 31t30.5 12t31 -12t12 -31t-12 -30.5t-31 -11.5t-30.5 11.5t-11.5 30.5zM149 644q0 19 11.5 31t30.5 12t31 -12t12 -31t-12 -30.5t-31 -11.5t-30.5 11.5t-11.5 30.5zM273 -13q-89 0 -138.5 45t-49.5 117v300h63v-291q0 -52 36 -84t89 -32q56 0 91 30 t35 83v294h63v-300q0 -73 -49.5 -117.5t-139.5 -44.5z"/>
<glyph glyph-name="yacute" horiz-adv-x="463" unicode="ý" d="M253 497h-53l98 177h62zM264 -208h-63v195l-191 462h69l155 -389l155 389h64l-189 -462v-195z"/>
<glyph glyph-name="thorn" horiz-adv-x="546" unicode="þ" d="M433 223q0 86 -50 134.5t-136 48.5q-47 0 -94 -15v-333q45 -15 103 -15q83 0 130 49t47 131zM501 224q0 -108 -69.5 -172.5t-172.5 -64.5q-54 0 -106 13v-208h-63v882h63v-222q46 10 100 10q66 0 120.5 -23.5t91 -79t36.5 -135.5z"/>
<glyph glyph-name="OE" horiz-adv-x="1037" unicode="Œ" d="M541 62v550h-158q-123 0 -189 -75.5t-66 -199.5q0 -125 69 -200t186 -75h158zM952 0h-574q-80 0 -143 26.5t-101.5 73.5t-58.5 106.5t-20 129.5q0 147 84.5 242.5t238.5 95.5h554v-64h-320v-230h290v-62h-290v-254h340v-64z"/>
<glyph glyph-name="oe" horiz-adv-x="870" unicode="œ" d="M756 270q0 60 -36.5 100t-102.5 40q-123 0 -141 -140h280zM409 223q0 85 -36 136t-112 51t-112 -50t-36 -135q0 -84 36 -135t112 -51t112 49.5t36 134.5zM808 62q-70 -75 -178 -75q-129 0 -187 102q-53 -102 -182 -102q-104 0 -160 67.5t-56 171.5t55.5 170t160.5 66 q125 0 180 -101q53 101 176 101q101 0 154.5 -62.5t53.5 -181.5h-351q2 -79 45.5 -127t115.5 -48q80 0 134 60z"/>
<glyph glyph-name="Scaron" horiz-adv-x="657" unicode="Š" d="M359 707h-50l-93 113h60l58 -64l58 64h60zM511 537q-66 88 -173 88q-72 0 -108.5 -29.5t-36.5 -78.5q0 -36 20.5 -62t53.5 -42t73 -29.5t80 -29.5t73 -37t53.5 -57t20.5 -84q0 -90 -66 -139.5t-171 -49.5q-150 0 -243 108l53 49q74 -95 192 -95q77 0 119 31t42 83 q0 54 -38.5 87.5t-93.5 51.5t-110 37.5t-93.5 60.5t-38.5 106q0 77 54.5 129t162.5 52q71 0 124.5 -24t100.5 -79z"/>
<glyph glyph-name="scaron" horiz-adv-x="418" unicode="š" d="M302 674h53l-109 -177h-64l-109 177h53l88 -128zM329 347q-46 61 -117 61q-88 0 -88 -65q0 -31 25.5 -50.5t62 -30t73.5 -23.5t62.5 -43t25.5 -77q0 -61 -46.5 -96.5t-117.5 -35.5q-102 0 -169 77l45 41q48 -64 127 -64q49 0 75 19.5t26 49.5q0 35 -25.5 55.5t-62.5 31 t-74 23t-62.5 41.5t-25.5 75q0 59 41.5 92.5t110.5 33.5q97 0 156 -74z"/>
<glyph glyph-name="Ydieresis" horiz-adv-x="642" unicode="Ÿ" d="M361 777q0 19 11.5 31t30.5 12t31 -12t12 -31t-12 -30.5t-31 -11.5t-30.5 11.5t-11.5 30.5zM200 777q0 19 11.5 31t30.5 12t31 -12t12 -31t-12 -30.5t-31 -11.5t-30.5 11.5t-11.5 30.5zM355 0h-71v315l-254 359h87l205 -290l205 290h85l-257 -359v-315z"/>
<glyph glyph-name="pi" d="M420 0h-338v675h338v-675zM109 636v-419l123 -121v61l-82 108v74l202 -201v-61l39 -41v250l-39 39v-76l-202 201v65l82 -54v54z" unicode="π"/>
<glyph glyph-name="endash" d="M480 205h-460v55h460v-55z" unicode="–"/>
<glyph glyph-name="emdash" horiz-adv-x="1000" unicode="—" d="M980 205h-960v55h960v-55z"/>
<glyph glyph-name="quoteleft" horiz-adv-x="250" unicode="‘" d="M142 674h50l-55 -245h-64z"/>
<glyph glyph-name="quotesinglbase" horiz-adv-x="250" unicode="‚" d="M108 -153h-50l55 245h64z"/>
<glyph glyph-name="quotedblleft" horiz-adv-x="410" unicode="“" d="M302 674h50l-55 -245h-64zM142 674h50l-55 -245h-64z"/>
<glyph glyph-name="quotedblright" horiz-adv-x="410" unicode="”" d="M108 429h-50l55 245h64zM268 429h-50l55 245h64z"/>
<glyph glyph-name="dagger" horiz-adv-x="294" unicode="†" d="M189 533q55 0 55 -24q0 -18 -20 -18q-15 0 -15 13q0 1 0.5 3t0.5 4q0 7 -27 7q-17 0 -28 -1q2 -31 22 -45q0 -23 -5.5 -203t-6.5 -243q0 -19 -17 -41q-17 25 -17 41q-1 60 -5.5 239.5t-4.5 206.5q17 12 21 43q-30 -2 -33 -2q-59 0 -59 44q0 35 28 74q11 18 22 19l1 -8 q-3 -5 -8 -15l-7 -14t-5 -11t-4.5 -11.5t-2.5 -11t-1 -12.5q0 -38 50 -38q7 0 19 1q0 22 -19 41q12 36 12 74q0 22 -18 22q10 20 31 20q20 0 32 -20q-11 0 -15 -5t-4 -17q0 -38 12 -74q-18 -20 -18 -40q18 2 34 2z"/>
<glyph glyph-name="daggerdbl" d="M420 0h-338v675h338v-675zM109 636v-419l123 -121v61l-82 108v74l202 -201v-61l39 -41v250l-39 39v-76l-202 201v65l82 -54v54z" unicode="‡"/>
<glyph glyph-name="ellipsis" horiz-adv-x="1000" unicode="…" d="M785 46q0 20 13 33.5t33 13.5t33.5 -13.5t13.5 -33.5t-13.5 -33t-33.5 -13t-33 13t-13 33zM455 46q0 20 13 33.5t33 13.5t33.5 -13.5t13.5 -33.5t-13.5 -33t-33.5 -13t-33 13t-13 33zM125 46q0 20 13 33.5t33 13.5t33.5 -13.5t13.5 -33.5t-13.5 -33t-33.5 -13t-33 13 t-13 33z"/>
<glyph glyph-name="perthousand" d="M420 0h-338v675h338v-675zM109 636v-419l123 -121v61l-82 108v74l202 -201v-61l39 -41v250l-39 39v-76l-202 201v65l82 -54v54z" unicode="‰"/>
<glyph glyph-name="guilsinglleft" horiz-adv-x="250" unicode="‹" d="M222 68h-57l-137 165l137 165h57l-121 -165z"/>
<glyph glyph-name="guilsinglright" horiz-adv-x="250" unicode="›" d="M85 68h-57l121 165l-121 165h57l137 -165z"/>
<glyph glyph-name="fraction" d="M420 0h-338v675h338v-675zM109 636v-419l123 -121v61l-82 108v74l202 -201v-61l39 -41v250l-39 39v-76l-202 201v65l82 -54v54z" unicode="⁄"/>
<glyph glyph-name="Euro" horiz-adv-x="611" unicode="€" d="M551 76q-74 -89 -186 -89q-85 0 -140 48t-75 125h-90v51h80q-1 11 -1 35t3 46h-82v51h92q22 74 76.5 119.5t136.5 45.5q112 0 186 -88l-49 -43q-58 72 -135 72q-102 0 -143 -106h204v-51h-218q-3 -22 -3 -46q0 -13 2 -35h219v-51h-208q18 -51 55 -82t92 -31q77 0 135 72z "/>
<glyph glyph-name="trademark" horiz-adv-x="916" unicode="™" d="M385 616h-144v-333h-66v333h-145v58h355v-58zM826 283h-66v281l-101 -162h-52l-101 162v-281h-62v397h68l125 -204l128 204h61v-397z"/>
<glyph glyph-name="partialdiff" d="M420 0h-338v675h338v-675zM109 636v-419l123 -121v61l-82 108v74l202 -201v-61l39 -41v250l-39 39v-76l-202 201v65l82 -54v54z" unicode="∂"/>
<glyph glyph-name="product" d="M420 0h-338v675h338v-675zM109 636v-419l123 -121v61l-82 108v74l202 -201v-61l39 -41v250l-39 39v-76l-202 201v65l82 -54v54z" unicode="∏"/>
<glyph glyph-name="summation" d="M420 0h-338v675h338v-675zM109 636v-419l123 -121v61l-82 108v74l202 -201v-61l39 -41v250l-39 39v-76l-202 201v65l82 -54v54z" unicode="∑"/>
<glyph glyph-name="minus" d="M480 225h-460v55h460v-55z" unicode="−"/>
<glyph glyph-name="radical" d="M420 0h-338v675h338v-675zM109 636v-419l123 -121v61l-82 108v74l202 -201v-61l39 -41v250l-39 39v-76l-202 201v65l82 -54v54z" unicode="√"/>
<glyph glyph-name="infinity" d="M420 0h-338v675h338v-675zM109 636v-419l123 -121v61l-82 108v74l202 -201v-61l39 -41v250l-39 39v-76l-202 201v65l82 -54v54z" unicode="∞"/>
<glyph glyph-name="approxequal" d="M420 0h-338v675h338v-675zM109 636v-419l123 -121v61l-82 108v74l202 -201v-61l39 -41v250l-39 39v-76l-202 201v65l82 -54v54z" unicode="≈"/>
<glyph glyph-name="notequal" d="M420 0h-338v675h338v-675zM109 636v-419l123 -121v61l-82 108v74l202 -201v-61l39 -41v250l-39 39v-76l-202 201v65l82 -54v54z" unicode="≠"/>
<glyph glyph-name="lessequal" d="M420 0h-338v675h338v-675zM109 636v-419l123 -121v61l-82 108v74l202 -201v-61l39 -41v250l-39 39v-76l-202 201v65l82 -54v54z" unicode="≤"/>
<glyph glyph-name="greaterequal" d="M420 0h-338v675h338v-675zM109 636v-419l123 -121v61l-82 108v74l202 -201v-61l39 -41v250l-39 39v-76l-202 201v65l82 -54v54z" unicode="≥"/>
<glyph glyph-name="lozenge" d="M420 0h-338v675h338v-675zM109 636v-419l123 -121v61l-82 108v74l202 -201v-61l39 -41v250l-39 39v-76l-202 201v65l82 -54v54z" unicode="◊"/>
</font>
</defs>
</svg>
