<?xml version="1.0" encoding="UTF-8" standalone="no"?>
<!DOCTYPE svg  PUBLIC '-//W3C//DTD SVG 1.1//EN'  'http://www.w3.org/Graphics/SVG/1.1/DTD/svg11.dtd'>
<svg xmlns="http://www.w3.org/2000/svg">
<defs>
<font id="SourceSansPro-Semibold" horiz-adv-x="513">
<font-face underline-position="-50" font-weight="600" descent="-200" panose-1="2 11 6 3 3 4 3 2 2 4" units-per-em="1000" unicode-range="U+0020-25CA" bbox="-169 -250 1192 887" x-height="491" underline-thickness="50" font-family="Source Sans Pro Semibold" ascent="800" cap-height="654"/>
<missing-glyph horiz-adv-x="1000"/>
<glyph glyph-name=".notdef" horiz-adv-x="1000"/>
<glyph glyph-name=".null" horiz-adv-x="0"/>
<glyph glyph-name="nonmarkingreturn" horiz-adv-x="333"/>
<glyph glyph-name="space" horiz-adv-x="200" unicode=" "/>
<glyph glyph-name="exclam" horiz-adv-x="315" unicode="!" d="M158 -12q-32 0 -53.5 22t-21.5 56t21.5 56t53.5 22t53 -22t21 -56t-21 -56t-53 -22zM119 215l-16 341l-3 114h116l-4 -114l-16 -341h-77z"/>
<glyph glyph-name="quotedbl" horiz-adv-x="482" unicode='&quot;' d="M311 392l-22 183l-4 113h118l-3 -113l-23 -183h-66zM104 392l-22 183l-4 113h118l-3 -113l-23 -183h-66z"/>
<glyph glyph-name="numbersign" d="M190 271h118l16 129h-118zM88 0l24 195h-77v76h85l16 129h-81v76h91l22 174h69l-21 -174h117l23 174h68l-21 -174h80v-76h-89l-16 -129h85v-76h-94l-23 -195h-70l23 195h-117l-24 -195h-70z" unicode="#"/>
<glyph glyph-name="dollar" d="M218 -110v100q-102 10 -173 76l52 78q79 -62 148 -62q97 0 97 86q0 36 -28 63t-68 46.5t-80 41.5t-68 60t-28 90q0 69 40 116t108 59v102h80v-100q81 -10 145 -78l-59 -67q-58 53 -116 53q-41 0 -64 -20.5t-23 -59.5q0 -33 28 -57t68 -42.5t80 -40.5t68 -62t28 -96 q0 -72 -40.5 -121t-114.5 -62v-103h-80z" unicode="$"/>
<glyph glyph-name="percent" horiz-adv-x="841" unicode="%" d="M655 55q33 0 53 35t20 106q0 70 -20 104.5t-53 34.5t-53 -34.5t-20 -104.5q0 -71 20 -106t53 -35zM655 -12q-70 0 -113 55.5t-43 152.5t43 151.5t113 54.5t113 -54.5t43 -151.5t-43 -152.5t-113 -55.5zM207 -12l357 678h70l-356 -678h-71zM186 319q33 0 53 35t20 106 q0 70 -20 104.5t-53 34.5t-53 -34.5t-20 -104.5q0 -71 20 -106t53 -35zM186 252q-70 0 -113 55.5t-43 152.5t43 151.5t113 54.5t113 -54.5t43 -151.5t-43 -152.5t-113 -55.5z"/>
<glyph glyph-name="ampersand" horiz-adv-x="639" unicode="&amp;" d="M251 77q51 0 105 39q-94 80 -155 165q-63 -51 -63 -102q0 -45 32 -73.5t81 -28.5zM207 504q0 -41 26 -96q48 30 72.5 56.5t24.5 61.5q0 62 -53 62q-31 0 -50.5 -23.5t-19.5 -60.5zM237 -12q-95 0 -152 52.5t-57 131.5q0 62 33 105t92 82q-42 78 -42 144q0 69 46 116 t119 47q66 0 105 -38t39 -101q0 -58 -36.5 -100t-105.5 -90q61 -83 149 -150q57 76 83 174h106q-37 -127 -112 -227q70 -42 118 -52l-29 -94q-81 19 -159 70q-85 -70 -197 -70z"/>
<glyph glyph-name="quotesingle" horiz-adv-x="275" unicode="&apos;" d="M104 392l-22 183l-4 113h118l-3 -113l-23 -183h-66z"/>
<glyph glyph-name="parenleft" horiz-adv-x="324" unicode="(" d="M209 -178q-132 216 -132 456t132 456l72 -32q-110 -188 -110 -424t110 -424z"/>
<glyph glyph-name="parenright" horiz-adv-x="324" unicode=")" d="M115 -178l-72 32q110 188 110 424t-110 424l72 32q132 -216 132 -456t-132 -456z"/>
<glyph glyph-name="asterisk" horiz-adv-x="438" unicode="*" d="M143 384l-51 37l58 98l-102 45l19 60l109 -25l11 113h63l11 -113l110 25l19 -60l-103 -45l58 -98l-51 -37l-75 87z"/>
<glyph glyph-name="plus" d="M213 99v189h-179v84h179v189h87v-189h179v-84h-179v-189h-87z" unicode="+"/>
<glyph glyph-name="comma" horiz-adv-x="275" unicode="," d="M72 -182l-25 63q48 19 75 51t26 70h-9q-31 0 -52.5 19.5t-21.5 51.5t22.5 51.5t54.5 19.5q40 0 63 -31t23 -87q0 -74 -41 -128t-115 -80z"/>
<glyph glyph-name="hyphen" horiz-adv-x="322" unicode="-" d="M42 210v84h238v-84h-238z"/>
<glyph glyph-name="period" horiz-adv-x="275" unicode="." d="M138 -12q-32 0 -53.5 22t-21.5 56t21.5 56t53.5 22t53 -22t21 -56t-21 -56t-53 -22z"/>
<glyph glyph-name="slash" horiz-adv-x="344" unicode="/" d="M12 -160l233 870h78l-233 -870h-78z"/>
<glyph glyph-name="zero" d="M256 78q106 0 106 243q0 237 -106 237t-106 -237q0 -243 106 -243zM256 -12q-100 0 -158 87t-58 246t57.5 243t158.5 84t158.5 -84.5t57.5 -242.5q0 -159 -58 -246t-158 -87z" unicode="0"/>
<glyph glyph-name="one" d="M74 0v94h142v418h-117v72q88 17 147 52h86v-542h125v-94h-383z" unicode="1"/>
<glyph glyph-name="two" d="M38 0v67q156 151 222 232t66 148q0 51 -27.5 80.5t-77.5 29.5q-60 0 -124 -71l-64 64q46 49 93.5 73.5t109.5 24.5q91 0 146 -53t55 -142q0 -41 -16.5 -83.5t-53.5 -92t-70 -87.5t-91 -99q77 7 106 7h156v-98h-430z" unicode="2"/>
<glyph glyph-name="three" d="M240 -12q-135 0 -216 90l55 74q68 -70 151 -70q52 0 84.5 26t32.5 70q0 53 -42 80.5t-145 27.5v84q166 0 166 102q0 40 -25 62.5t-69 22.5q-63 0 -128 -60l-59 71q90 80 191 80q93 0 149.5 -44.5t56.5 -123.5q0 -103 -111 -146v-4q59 -16 95.5 -56.5t36.5 -101.5 q0 -84 -64 -134t-159 -50z" unicode="3"/>
<glyph glyph-name="four" d="M132 253h167v144q0 39 5 132h-4q-4 -9 -52 -99zM299 0v164h-281v78l252 394h137v-383h80v-89h-80v-164h-108z" unicode="4"/>
<glyph glyph-name="five" d="M241 -12q-129 0 -217 88l53 74q72 -68 149 -68q54 0 88.5 32.5t34.5 89.5q0 56 -32 87.5t-85 31.5q-29 0 -50 -8t-52 -28l-55 35l19 314h340v-97h-240l-13 -154q44 21 84 21q87 0 143.5 -50.5t56.5 -148.5q0 -100 -66 -159.5t-158 -59.5z" unicode="5"/>
<glyph glyph-name="six" d="M273 76q41 0 68 32t27 89q0 56 -26 84.5t-74 28.5q-64 0 -114 -73q17 -161 119 -161zM275 -12q-100 0 -165.5 79t-65.5 232q0 174 71.5 261.5t178.5 87.5q102 0 170 -72l-62 -70q-17 21 -45 34.5t-56 13.5q-143 0 -150 -235q27 35 65 55t73 20q85 0 135.5 -50t50.5 -147 q0 -93 -58 -151t-142 -58z" unicode="6"/>
<glyph glyph-name="seven" d="M168 0q8 172 47 292.5t130 246.5h-301v97h427v-70q-106 -132 -141.5 -249t-44.5 -317h-117z" unicode="7"/>
<glyph glyph-name="eight" d="M259 70q47 0 76 25.5t29 69.5q0 20 -9 37t-18.5 27.5t-35.5 24.5t-39.5 19.5t-50.5 20.5q-69 -50 -69 -119q0 -46 33.5 -75.5t83.5 -29.5zM299 359q53 53 53 110q0 43 -25.5 70t-68.5 27q-38 0 -62.5 -23.5t-24.5 -63.5q0 -44 32 -69.5t96 -50.5zM257 -12q-94 0 -155 49 t-61 126q0 102 115 163v4q-88 63 -88 149q0 76 54 122.5t138 46.5q85 0 136 -47t51 -125q0 -44 -25 -82t-60 -64v-4q110 -62 110 -165q0 -75 -60 -124t-155 -49z" unicode="8"/>
<glyph glyph-name="nine" d="M217 -12q-102 0 -170 72l62 70q41 -48 102 -48q143 0 150 235q-27 -34 -65.5 -54t-73.5 -20q-85 0 -135 50t-50 147q0 93 58 150.5t142 57.5q100 0 165 -79t65 -231q0 -174 -71.5 -262t-178.5 -88zM244 326q67 0 114 74q-17 160 -120 160q-41 0 -68 -32t-27 -88t26.5 -85 t74.5 -29z" unicode="9"/>
<glyph glyph-name="colon" horiz-adv-x="275" unicode=":" d="M138 -12q-32 0 -53.5 22t-21.5 56t21.5 56t53.5 22t53 -22t21 -56t-21 -56t-53 -22zM138 330q-32 0 -53.5 22t-21.5 56t21.5 56t53.5 22t53 -22t21 -56t-21 -56t-53 -22z"/>
<glyph glyph-name="semicolon" horiz-adv-x="275" unicode=";" d="M72 -182l-25 63q48 19 75 51t26 70h-9q-31 0 -52.5 19.5t-21.5 51.5t22.5 51.5t54.5 19.5q40 0 63 -31t23 -87q0 -74 -41 -128t-115 -80zM138 330q-32 0 -53.5 22t-21.5 56t21.5 56t53.5 22t53 -22t21 -56t-21 -56t-53 -22z"/>
<glyph glyph-name="less" d="M479 117l-445 173v84l445 173v-97l-193 -68l-135 -48v-4l135 -48l193 -68v-97z" unicode="&lt;"/>
<glyph glyph-name="equal" d="M34 176v84h445v-84h-445zM34 400v84h445v-84h-445z" unicode="="/>
<glyph glyph-name="greater" d="M34 117v97l193 68l135 48v4l-135 48l-193 68v97l445 -173v-84z" unicode="&gt;"/>
<glyph glyph-name="question" horiz-adv-x="444" unicode="?" d="M208 -12q-32 0 -53 22t-21 56t21 56t53 22t53.5 -22t21.5 -56t-21.5 -56t-53.5 -22zM157 215q-2 18 -2 27q0 42 21 82.5t45.5 66.5t45.5 57.5t21 59.5q0 36 -21.5 58t-59.5 22q-56 0 -103 -52l-64 59q75 87 181 87q81 0 130 -43t49 -123q0 -34 -14.5 -65t-36 -55 t-42.5 -48.5t-35.5 -54.5t-14.5 -62q0 -10 1 -16h-101z"/>
<glyph glyph-name="at" horiz-adv-x="875" unicode="@" d="M403 127q37 0 79 52l26 147q-22 35 -55 35q-48 0 -79.5 -50t-31.5 -106q0 -78 61 -78zM416 -164q-157 0 -261.5 96.5t-104.5 271.5q0 100 35 186t94 144t138 91t167 33q155 0 248.5 -95t93.5 -249q0 -125 -66 -197.5t-148 -72.5q-44 0 -73.5 19.5t-36.5 56.5h-2 q-23 -30 -56 -49t-65 -19q-56 0 -91 39.5t-35 106.5q0 90 57 164.5t140 74.5q52 0 78 -49h2l13 41h73l-43 -211q-6 -25 -6 -44q0 -57 56 -57q49 0 88 54t39 139q0 121 -70 198.5t-205 77.5q-88 0 -166.5 -46t-128.5 -134t-50 -198q0 -142 83.5 -220.5t211.5 -78.5 q82 0 157 41l27 -64q-88 -50 -193 -50z"/>
<glyph glyph-name="A" horiz-adv-x="558" unicode="A" d="M-2 0l213 654h136l213 -654h-122l-51 177h-220l-51 -177h-118zM217 348l-23 -80h167l-23 80q-15 49 -59 216h-4q-33 -134 -58 -216z"/>
<glyph glyph-name="B" horiz-adv-x="597" unicode="B" d="M199 90h98q150 0 150 108q0 99 -150 99h-98v-207zM199 384h83q130 0 130 92q0 47 -31.5 67.5t-96.5 20.5h-85v-180zM83 0v654h209q234 0 234 -161q0 -48 -24.5 -87.5t-66.5 -54.5v-4q57 -13 91 -52.5t34 -102.5q0 -95 -69 -143.5t-182 -48.5h-226z"/>
<glyph glyph-name="C" horiz-adv-x="576" unicode="C" d="M344 -12q-128 0 -211.5 89.5t-83.5 247.5q0 156 85.5 248.5t213.5 92.5q112 0 189 -83l-62 -75q-57 57 -124 57q-81 0 -132 -64t-51 -173q0 -111 48.5 -175t131.5 -64q78 0 140 67l62 -73q-83 -95 -206 -95z"/>
<glyph glyph-name="D" horiz-adv-x="625" unicode="D" d="M199 94h51q207 0 207 236q0 230 -207 230h-51v-466zM83 0v654h175q152 0 235 -82t83 -242q0 -161 -82 -245.5t-230 -84.5h-181z"/>
<glyph glyph-name="E" horiz-adv-x="538" unicode="E" d="M83 0v654h394v-98h-278v-167h235v-98h-235v-193h288v-98h-404z"/>
<glyph glyph-name="F" horiz-adv-x="510" unicode="F" d="M83 0v654h395v-98h-279v-185h238v-98h-238v-273h-116z"/>
<glyph glyph-name="G" horiz-adv-x="628" unicode="G" d="M357 -12q-137 0 -222.5 89t-85.5 248q0 157 87.5 249t221.5 92q117 0 198 -83l-62 -75q-59 57 -132 57q-88 0 -141 -64t-53 -173q0 -113 51.5 -176t148.5 -63q62 0 94 29v141h-124v95h228v-288q-35 -35 -90 -56.5t-119 -21.5z"/>
<glyph glyph-name="H" horiz-adv-x="663" unicode="H" d="M83 0v654h116v-263h265v263h116v-654h-116v290h-265v-290h-116z"/>
<glyph glyph-name="I" horiz-adv-x="282" unicode="I" d="M83 0v654h116v-654h-116z"/>
<glyph glyph-name="J" horiz-adv-x="494" unicode="J" d="M219 -12q-133 0 -195 111l80 59q37 -69 102 -69q47 0 69.5 29t22.5 97v439h116v-449q0 -96 -48.5 -156.5t-146.5 -60.5z"/>
<glyph glyph-name="K" horiz-adv-x="597" unicode="K" d="M83 0v654h116v-297h3l233 297h129l-201 -255l235 -399h-128l-177 308l-94 -117v-191h-116z"/>
<glyph glyph-name="L" horiz-adv-x="502" unicode="L" d="M83 0v654h116v-556h272v-98h-388z"/>
<glyph glyph-name="M" horiz-adv-x="745" unicode="M" d="M83 0v654h131l116 -320q7 -21 42 -128h4q5 15 19 60t22 68l113 320h132v-654h-107v299q0 58 15 208h-4l-53 -152l-107 -294h-69l-108 294l-52 152h-4q15 -180 15 -208v-299h-105z"/>
<glyph glyph-name="N" horiz-adv-x="656" unicode="N" d="M83 0v654h119l204 -368l67 -139h4q-1 17 -5.5 66t-7 86.5t-2.5 70.5v284h111v-654h-119l-204 368l-67 139h-4q1 -20 5.5 -67t7 -84t2.5 -70v-286h-111z"/>
<glyph glyph-name="O" horiz-adv-x="674" unicode="O" d="M337 89q77 0 123 65.5t46 175.5q0 109 -45.5 172t-123.5 63t-123.5 -63t-45.5 -172q0 -110 46 -175.5t123 -65.5zM337 -12q-129 0 -208.5 92.5t-79.5 249.5q0 156 79.5 246t208.5 90q130 0 209.5 -90t79.5 -246q0 -157 -79.5 -249.5t-209.5 -92.5z"/>
<glyph glyph-name="P" horiz-adv-x="582" unicode="P" d="M199 333h85q144 0 144 119q0 60 -36 84.5t-112 24.5h-81v-228zM83 0v654h206q253 0 253 -202q0 -104 -69 -158t-180 -54h-94v-240h-116z"/>
<glyph glyph-name="Q" horiz-adv-x="674" unicode="Q" d="M545 -174q-94 0 -161.5 45.5t-100.5 121.5q-107 19 -170.5 108t-63.5 229q0 156 79.5 246t208.5 90q130 0 209.5 -90t79.5 -246q0 -135 -59.5 -223t-160.5 -111q43 -75 152 -75q39 0 71 10l21 -86q-42 -19 -105 -19zM337 83q78 0 123.5 66.5t45.5 180.5q0 109 -45.5 172 t-123.5 63t-123.5 -63t-45.5 -172q0 -114 45.5 -180.5t123.5 -66.5z"/>
<glyph glyph-name="R" horiz-adv-x="592" unicode="R" d="M199 348h93q138 0 138 112q0 54 -34.5 77.5t-103.5 23.5h-93v-213zM83 0v654h221q240 0 240 -194q0 -142 -130 -187l156 -273h-130l-141 256h-100v-256h-116z"/>
<glyph glyph-name="S" horiz-adv-x="545" unicode="S" d="M274 -12q-138 0 -236 96l68 79q79 -74 170 -74q55 0 84.5 22.5t29.5 61.5q0 26 -15 44.5t-31.5 27t-54.5 24.5l-90 39q-132 56 -132 174q0 79 62.5 131.5t157.5 52.5q118 0 201 -83l-59 -74q-67 56 -142 56q-47 0 -75 -20.5t-28 -56.5q0 -24 17 -42.5t33.5 -26.5 t53.5 -23l89 -37q63 -27 97.5 -68.5t34.5 -108.5q0 -82 -64 -138t-171 -56z"/>
<glyph glyph-name="T" horiz-adv-x="546" unicode="T" d="M215 0v556h-189v98h494v-98h-189v-556h-116z"/>
<glyph glyph-name="U" horiz-adv-x="655" unicode="U" d="M328 -12q-248 0 -248 299v367h116v-376q0 -189 132 -189q136 0 136 189v376h111v-367q0 -299 -247 -299z"/>
<glyph glyph-name="V" horiz-adv-x="536" unicode="V" d="M200 0l-204 654h123l92 -329q9 -32 27.5 -102t30.5 -111h4q13 44 33 120.5t24 92.5l91 329h119l-203 -654h-137z"/>
<glyph glyph-name="W" horiz-adv-x="800" unicode="W" d="M148 0l-130 654h119l57 -330q22 -140 32 -209h4q34 168 43 209l80 330h101l80 -330q8 -38 23 -109.5t21 -99.5h4q5 37 15.5 107.5t15.5 101.5l57 330h111l-125 -654h-144l-81 344q-19 87 -29 151h-4q-13 -72 -30 -151l-79 -344h-141z"/>
<glyph glyph-name="X" horiz-adv-x="541" unicode="X" d="M13 0l186 337l-174 317h129l72 -145q9 -16 25 -49.5t25 -50.5h4q27 67 44 100l69 145h123l-174 -322l186 -332h-129l-80 154l-25.5 51t-27.5 56h-4q-22 -52 -48 -107l-78 -154h-123z"/>
<glyph glyph-name="Y" horiz-adv-x="501" unicode="Y" d="M192 0v243l-196 411h124l71 -167q30 -77 58 -144h4q54 129 60 144l71 167h121l-197 -411v-243h-116z"/>
<glyph glyph-name="Z" horiz-adv-x="540" unicode="Z" d="M40 0v70l316 486h-287v98h431v-70l-317 -486h319v-98h-462z"/>
<glyph glyph-name="bracketleft" horiz-adv-x="324" unicode="[" d="M90 -152v860h196v-63h-109v-734h109v-63h-196z"/>
<glyph glyph-name="backslash" horiz-adv-x="344" unicode="\" d="M255 -160l-234 870h78l234 -870h-78z"/>
<glyph glyph-name="bracketright" horiz-adv-x="324" unicode="]" d="M38 -152v63h109v734h-109v63h196v-860h-196z"/>
<glyph glyph-name="asciicircum" d="M55 279l153 391h96l154 -391h-97l-55 151l-48 135h-4l-47 -135l-55 -151h-97z" unicode="^"/>
<glyph glyph-name="underscore" horiz-adv-x="500" unicode="_" d="M12 -133v69h476v-69h-476z"/>
<glyph glyph-name="grave" horiz-adv-x="549" unicode="`" d="M276 573l-170 155l80 76l147 -174z"/>
<glyph glyph-name="a" horiz-adv-x="516" unicode="a" d="M229 78q48 0 107 54v110q-96 -12 -137 -37t-41 -64q0 -63 71 -63zM192 -12q-65 0 -105 40t-40 104q0 79 69 122.5t220 59.5q-4 96 -90 96q-57 0 -138 -48l-42 77q102 64 202 64q91 0 137 -54t46 -158v-291h-95l-8 54h-4q-78 -66 -152 -66z"/>
<glyph glyph-name="b" horiz-adv-x="563" unicode="b" d="M287 83q51 0 83 44t32 125q0 156 -106 156q-52 0 -108 -55v-229q48 -41 99 -41zM311 -12q-70 0 -134 64h-3l-10 -52h-91v706h115v-182l-3 -82q69 61 142 61q91 0 142.5 -67t51.5 -182q0 -122 -62 -194t-148 -72z"/>
<glyph glyph-name="c" horiz-adv-x="462" unicode="c" d="M278 -12q-103 0 -170 69t-67 188q0 118 71.5 188t174.5 70q80 0 144 -55l-56 -75q-41 36 -82 36q-60 0 -97 -45t-37 -119q0 -73 36.5 -118t94.5 -45q50 0 101 42l47 -76q-69 -60 -160 -60z"/>
<glyph glyph-name="d" horiz-adv-x="564" unicode="d" d="M273 83q55 0 103 55v229q-46 41 -100 41q-49 0 -81.5 -43.5t-32.5 -118.5q0 -79 29 -121t82 -42zM245 -12q-93 0 -147.5 68t-54.5 189q0 115 62 186.5t146 71.5q67 0 129 -54l-4 79v178h115v-706h-95l-8 53h-4q-65 -65 -139 -65z"/>
<glyph glyph-name="e" horiz-adv-x="507" unicode="e" d="M152 292h218q0 58 -25.5 90t-74.5 32q-45 0 -78 -32t-40 -90zM283 -12q-105 0 -173.5 69.5t-68.5 187.5q0 115 67.5 186.5t158.5 71.5q97 0 150 -63.5t53 -169.5q0 -36 -5 -56h-312q7 -65 46 -101t99 -36q58 0 114 36l39 -72q-80 -53 -168 -53z"/>
<glyph glyph-name="f" horiz-adv-x="317" unicode="f" d="M93 0v400h-66v86l66 5v51q0 81 40 128.5t123 47.5q48 0 90 -17l-22 -86q-27 12 -54 12q-62 0 -62 -83v-53h96v-91h-96v-400h-115z"/>
<glyph glyph-name="g" horiz-adv-x="520" unicode="g" d="M262 -142q58 0 95.5 23.5t37.5 55.5q0 27 -21.5 38t-65.5 11h-67q-40 0 -67 7q-38 -29 -38 -65q0 -33 33.5 -51.5t92.5 -18.5zM250 228q37 0 61 26.5t24 72.5q0 45 -24 71t-61 26t-61.5 -26t-24.5 -71q0 -46 24.5 -72.5t61.5 -26.5zM244 -217q-92 0 -148 33t-56 95 q0 61 70 105v4q-44 28 -44 82q0 52 54 91v4q-27 21 -45.5 55t-18.5 75q0 81 56.5 128.5t137.5 47.5q38 0 72 -12h176v-85h-90q28 -33 28 -83q0 -79 -52.5 -123t-133.5 -44q-35 0 -67 13q-24 -21 -24 -47q0 -45 80 -45h87q180 0 180 -121q0 -74 -72 -123.5t-190 -49.5z"/>
<glyph glyph-name="h" horiz-adv-x="558" unicode="h" d="M73 0v706h115v-182l-4 -95q78 74 157 74q151 0 151 -195v-308h-115v293q0 60 -18 85.5t-59 25.5q-30 0 -54 -14t-58 -47v-343h-115z"/>
<glyph glyph-name="i" horiz-adv-x="262" unicode="i" d="M131 577q-31 0 -51 18.5t-20 46.5q0 29 20 47.5t51 18.5t51 -18.5t20 -47.5q0 -28 -20 -46.5t-51 -18.5zM73 0v491h115v-491h-115z"/>
<glyph glyph-name="j" horiz-adv-x="263" unicode="j" d="M132 577q-30 0 -50.5 18.5t-20.5 46.5q0 29 20.5 47.5t50.5 18.5q31 0 51.5 -18.5t20.5 -47.5q0 -28 -20.5 -46.5t-51.5 -18.5zM34 -206q-45 0 -80 13l22 86q26 -8 42 -8q32 0 44 21.5t12 66.5v518h116v-516q0 -181 -156 -181z"/>
<glyph glyph-name="k" horiz-adv-x="522" unicode="k" d="M73 0v706h113v-441h3l182 226h126l-168 -200l185 -291h-125l-126 213l-77 -88v-125h-113z"/>
<glyph glyph-name="l" horiz-adv-x="271" unicode="l" d="M185 -12q-112 0 -112 138v580h115v-586q0 -38 25 -38q9 0 18 2l15 -86q-23 -10 -61 -10z"/>
<glyph glyph-name="m" horiz-adv-x="843" unicode="m" d="M73 0v491h95l8 -67h4q74 79 150 79q99 0 136 -88q83 88 158 88q152 0 152 -195v-308h-116v293q0 60 -18 85.5t-57 25.5q-46 0 -103 -61v-343h-115v293q0 60 -18 85.5t-58 25.5q-46 0 -103 -61v-343h-115z"/>
<glyph glyph-name="n" horiz-adv-x="560" unicode="n" d="M73 0v491h95l8 -66h4q80 78 161 78q151 0 151 -195v-308h-115v293q0 60 -18 85.5t-59 25.5q-30 0 -54 -14t-58 -47v-343h-115z"/>
<glyph glyph-name="o" horiz-adv-x="549" unicode="o" d="M274 82q54 0 85 44.5t31 118.5q0 75 -31 119.5t-85 44.5t-84.5 -44.5t-30.5 -119.5q0 -74 31 -118.5t84 -44.5zM274 -12q-96 0 -164.5 70t-68.5 187q0 118 68.5 188t164.5 70q97 0 165.5 -70t68.5 -188t-68.5 -187.5t-165.5 -69.5z"/>
<glyph glyph-name="p" horiz-adv-x="564" unicode="p" d="M287 83q51 0 83 44t32 125q0 156 -106 156q-52 0 -108 -55v-229q49 -41 99 -41zM73 -194v685h95l8 -52h4q75 64 148 64q91 0 142 -67.5t51 -182.5q0 -121 -62 -193t-148 -72q-62 0 -126 54l3 -82v-154h-115z"/>
<glyph glyph-name="q" horiz-adv-x="564" unicode="q" d="M273 83q55 0 103 55v229q-46 41 -100 41q-49 0 -81.5 -43.5t-32.5 -118.5q0 -79 29 -121t82 -42zM376 -194v161l4 82q-63 -61 -135 -61q-93 0 -147.5 68t-54.5 189q0 115 62 186.5t146 71.5q76 0 136 -59h3l10 47h91v-685h-115z"/>
<glyph glyph-name="r" horiz-adv-x="373" unicode="r" d="M73 0v491h95l8 -87h4q26 47 62.5 73t76.5 26q35 0 56 -10l-20 -100q-27 8 -51 8q-32 0 -63.5 -24.5t-52.5 -76.5v-300h-115z"/>
<glyph glyph-name="s" horiz-adv-x="431" unicode="s" d="M210 -12q-102 0 -186 68l54 74q71 -55 136 -55q38 0 58 16t20 43q0 15 -7.5 26t-27.5 22t-30 15l-40 16q-62 23 -100 55.5t-38 87.5q0 65 48.5 106t130.5 41q87 0 163 -59l-53 -70q-57 42 -108 42q-35 0 -53.5 -15t-18.5 -39q0 -17 14.5 -30.5t31.5 -21t47 -18.5l9 -3 q32 -12 51.5 -21.5t43 -27t35 -42.5t11.5 -58q0 -66 -50.5 -109t-140.5 -43z"/>
<glyph glyph-name="t" horiz-adv-x="361" unicode="t" d="M246 -12q-156 0 -156 178v234h-70v86l76 5l14 134h96v-134h125v-91h-125v-234q0 -86 69 -86q25 0 51 11l20 -85q-54 -18 -100 -18z"/>
<glyph glyph-name="u" horiz-adv-x="556" unicode="u" d="M219 -12q-151 0 -151 195v308h115v-293q0 -60 18 -85.5t58 -25.5q32 0 56.5 15.5t52.5 52.5v336h115v-491h-94l-9 72h-3q-71 -84 -158 -84z"/>
<glyph glyph-name="v" horiz-adv-x="495" unicode="v" d="M183 0l-171 491h117l78 -255q5 -18 19.5 -69t21.5 -79h4q28 100 42 148l78 255h111l-167 -491h-133z"/>
<glyph glyph-name="w" horiz-adv-x="748" unicode="w" d="M154 0l-130 491h116l59 -255q6 -28 15 -79t11 -62h4q15 79 31 141l64 255h105l65 -255q7 -26 33 -141h4q4 20 12.5 67.5t13.5 73.5l59 255h108l-125 -491h-137l-57 229q-6 27 -17 80t-13 63h-4q-14 -82 -29 -144l-56 -228h-132z"/>
<glyph glyph-name="x" horiz-adv-x="481" unicode="x" d="M14 0l156 256l-146 235h124l55 -93q16 -30 45 -83h4q6 14 19 42t19 41l47 93h119l-145 -248l156 -243h-124l-60 97q-28 51 -50 87h-4q-36 -72 -43 -87l-52 -97h-120z"/>
<glyph glyph-name="y" horiz-adv-x="495" unicode="y" d="M106 -202q-34 0 -64 10l21 90q21 -7 35 -7q71 0 98 84l9 31l-193 485h117l85 -241q7 -21 21 -67.5t22 -70.5h4q28 105 37 138l74 241h111l-178 -513q-33 -90 -78 -135t-121 -45z"/>
<glyph glyph-name="z" horiz-adv-x="443" unicode="z" d="M34 0v62l232 338h-206v91h350v-61l-231 -338h239v-92h-384z"/>
<glyph glyph-name="braceleft" horiz-adv-x="324" unicode="{" d="M232 -152q-65 0 -94 30.5t-29 107.5q0 37 4.5 93t4.5 88t-20 53.5t-66 22.5v70q46 1 66 22.5t20 52.5q0 32 -4.5 88.5t-4.5 93.5q0 77 29 107.5t94 30.5h54v-63h-23q-36 0 -48.5 -17t-12.5 -63q0 -28 2.5 -83.5t2.5 -88.5q0 -53 -15.5 -78.5t-51.5 -34.5v-4 q36 -9 51.5 -35t15.5 -78q0 -33 -2.5 -88.5t-2.5 -83.5q0 -46 12.5 -63t48.5 -17h23v-63h-54z"/>
<glyph glyph-name="bar" horiz-adv-x="255" unicode="|" d="M89 -250v1000h77v-1000h-77z"/>
<glyph glyph-name="braceright" horiz-adv-x="324" unicode="}" d="M38 -152v63h23q36 0 48.5 17t12.5 63q0 28 -2.5 83.5t-2.5 88.5q0 52 15.5 78t51.5 35v4q-36 9 -51.5 34.5t-15.5 78.5q0 33 2.5 88.5t2.5 83.5q0 46 -12.5 63t-48.5 17h-23v63h54q65 0 94 -30.5t29 -107.5q0 -37 -4.5 -93.5t-4.5 -88.5q0 -31 20 -52.5t66 -22.5v-70 q-46 -1 -66 -22.5t-20 -53.5t4.5 -88t4.5 -93q0 -77 -29 -107.5t-94 -30.5h-54z"/>
<glyph glyph-name="asciitilde" d="M343 248q-34 0 -66 20t-59 40t-50 20q-42 0 -74 -59l-62 46q60 97 138 97q34 0 66 -20t59 -40t50 -20q42 0 74 59l61 -47q-59 -96 -137 -96z" unicode="~"/>
<glyph glyph-name="uni00A0" horiz-adv-x="205" unicode=" "/>
<glyph glyph-name="exclamdown" horiz-adv-x="315" unicode="¡" d="M158 347q-32 0 -53.5 22.5t-21.5 56.5q0 33 21.5 55t53.5 22t53 -22t21 -55q0 -34 -21 -56.5t-53 -22.5zM100 -179l3 114l16 341h77l16 -341l4 -114h-116z"/>
<glyph glyph-name="cent" d="M269 -37v99q-96 12 -152 76.5t-56 169.5q0 102 57.5 166t150.5 79v101h66v-98q75 -4 128 -57l-54 -71q-35 31 -74 35v-308q43 4 88 41l48 -73q-58 -52 -136 -62v-98h-66zM173 308q0 -56 25 -94.5t71 -51.5v293q-46 -15 -71 -53.5t-25 -93.5z" unicode="¢"/>
<glyph glyph-name="sterling" d="M51 0v71q49 24 77.5 68t28.5 98q0 13 -4 41h-100v69l67 5h12q-21 67 -21 102q0 89 55 141.5t145 52.5q99 0 164 -78l-64 -63q-41 47 -90 47q-47 0 -73 -28t-26 -78q0 -36 17 -96h154v-74h-137q3 -20 3 -42q0 -78 -53 -134v-4h270v-98h-425z" unicode="£"/>
<glyph glyph-name="currency" d="M256 214q44 0 73 32t29 83q0 52 -29 84t-73 32q-43 0 -72.5 -32.5t-29.5 -83.5t29.5 -83t72.5 -32zM82 93l-59 60l62 63q-35 49 -35 113q0 65 35 114l-62 63l59 60l68 -70q48 31 106 31t106 -31l69 70l59 -60l-63 -63q35 -49 35 -114q0 -64 -35 -113l63 -63l-59 -60 l-69 70q-46 -31 -106 -31q-59 0 -105 31z" unicode="¤"/>
<glyph glyph-name="yen" d="M198 0v152h-157v60h157v59h-157v59h131l-154 306h119l64 -151q48 -116 55 -133h4q19 45 55 133l64 151h116l-155 -306h132v-59h-158v-59h158v-60h-158v-152h-116z" unicode="¥"/>
<glyph glyph-name="brokenbar" horiz-adv-x="255" unicode="¦" d="M89 -250v459h77v-459h-77zM89 302v448h77v-448h-77z"/>
<glyph glyph-name="section" d="M238 -74q-118 0 -184 78l68 60q52 -52 116 -52q34 0 53 15.5t19 40.5q0 26 -27.5 46t-67 36.5t-79.5 36.5t-67.5 57.5t-27.5 89.5q0 81 83 129q-30 33 -30 82q0 62 43.5 102t120.5 40q89 0 168 -61l-54 -73q-54 47 -108 47q-66 0 -66 -50q0 -24 28 -44t68.5 -37t81 -38 t68.5 -58.5t28 -88.5q0 -82 -83 -131q26 -34 26 -80q0 -64 -48 -105.5t-129 -41.5zM140 342q0 -26 19.5 -47t42.5 -32.5t63.5 -29.5t61.5 -30q46 24 46 72q0 26 -19.5 48t-41.5 33t-63.5 29.5t-61.5 29.5q-47 -28 -47 -73z" unicode="§"/>
<glyph glyph-name="dieresis" horiz-adv-x="549" unicode="¨" d="M377 578q-27 0 -44 17.5t-17 43.5t17 43.5t44 17.5q26 0 43.5 -17.5t17.5 -43.5t-17.5 -43.5t-43.5 -17.5zM171 578q-26 0 -43.5 17.5t-17.5 43.5t17.5 43.5t43.5 17.5q27 0 44 -17.5t17 -43.5t-17 -43.5t-44 -17.5z"/>
<glyph glyph-name="copyright" horiz-adv-x="747" unicode="©" d="M384 126q-82 0 -135 53.5t-53 143.5q0 85 56 138t133 53q71 0 129 -58l-45 -50q-39 37 -78 37q-50 0 -79.5 -33.5t-29.5 -86.5q0 -58 28.5 -92t76.5 -34q43 0 91 39l39 -56q-64 -54 -133 -54zM374 42q114 0 191 78.5t77 203.5q0 124 -77 201.5t-191 77.5 q-115 0 -192 -77.5t-77 -201.5q0 -125 77 -203.5t192 -78.5zM374 -10q-136 0 -231.5 92.5t-95.5 241.5t95 239.5t232 90.5q136 0 231 -90.5t95 -239.5t-95 -241.5t-231 -92.5z"/>
<glyph glyph-name="ordfeminine" horiz-adv-x="352" unicode="ª" d="M160 441q32 0 66 33v70q-112 -13 -112 -63q0 -40 46 -40zM133 377q-45 0 -72.5 27t-27.5 70q0 53 46 81t147 38q-3 59 -56 59q-39 0 -95 -32l-30 55q71 43 139 43q125 0 125 -141v-192h-67l-8 35h-4q-47 -43 -97 -43z"/>
<glyph glyph-name="guillemotleft" horiz-adv-x="455" unicode="«" d="M356 61l-135 149v84l135 149l46 -37l-115 -154l115 -155zM182 61l-135 149v84l135 149l46 -37l-115 -154l115 -155z"/>
<glyph glyph-name="logicalnot" d="M392 99v189h-358v84h445v-273h-87z" unicode="¬"/>
<glyph glyph-name="uni00AD" horiz-adv-x="322" unicode="­" d="M42 210v84h238v-84h-238z"/>
<glyph glyph-name="registered" horiz-adv-x="443" unicode="®" d="M194 518h23q37 0 37 30t-36 30h-24v-60zM144 417v199h83q80 0 80 -65q0 -40 -37 -55l44 -79h-53l-33 65h-34v-65h-50zM221 358q64 0 105 43.5t41 112.5q0 70 -41 114t-105 44t-105 -44t-41 -114q0 -69 41 -112.5t105 -43.5zM221 315q-81 0 -137 56.5t-56 142.5 q0 87 56 143.5t137 56.5t137 -56.5t56 -143.5t-56 -143t-137 -56z"/>
<glyph glyph-name="macron" horiz-adv-x="549" unicode="¯" d="M134 596v76h280v-76h-280z"/>
<glyph glyph-name="degree" horiz-adv-x="348" unicode="°" d="M175 472q31 0 51 21.5t20 55.5q0 35 -20 56.5t-51 21.5t-51 -21.5t-20 -56.5q0 -34 20 -55.5t51 -21.5zM175 413q-57 0 -96 38t-39 98t39 98t96 38t96 -38t39 -98t-39 -98t-96 -38z"/>
<glyph glyph-name="plusminus" d="M34 0v83h445v-83h-445zM213 143v156h-179v83h179v179h87v-179h179v-83h-179v-156h-87z" unicode="±"/>
<glyph glyph-name="two.sups" horiz-adv-x="372" unicode="²" d="M48 385v48q95 82 136.5 128t41.5 83q0 33 -17.5 52t-48.5 19q-40 0 -77 -52l-50 46q56 78 140 78q63 0 100 -34t37 -95q0 -32 -19 -68.5t-39.5 -60.5t-65.5 -71h141v-73h-279z"/>
<glyph glyph-name="three.sups" horiz-adv-x="372" unicode="³" d="M183 373q-100 0 -152 78l54 42q36 -53 91 -53q29 0 48 15.5t19 42.5q0 60 -107 60v51q43 0 67.5 16t24.5 44q0 23 -16 37t-43 14q-38 0 -72 -43l-50 44q58 66 136 66q55 0 92.5 -29t37.5 -78q0 -60 -62 -93q34 -11 55.5 -35.5t21.5 -59.5q0 -53 -42.5 -86t-102.5 -33z "/>
<glyph glyph-name="acute" horiz-adv-x="549" unicode="´" d="M272 573l-57 57l147 174l80 -76z"/>
<glyph glyph-name="uni00B5" horiz-adv-x="578" unicode="µ" d="M73 -178v669h115v-293q0 -58 18 -84.5t57 -26.5q31 0 56 17t51 62v325h116q-8 -328 -8 -368q0 -41 40 -41q15 0 30 6l15 -86q-31 -14 -73 -14q-92 0 -108 88h-4q-44 -84 -119 -84q-55 0 -78 34q1 -126 9 -204h-117z"/>
<glyph glyph-name="paragraph" horiz-adv-x="599" unicode="¶" d="M295 212q-113 0 -184 57.5t-71 166.5q0 115 67.5 166.5t180.5 51.5h44v-442h-37zM387 -80v734h116v-734h-116z"/>
<glyph glyph-name="periodcentered" horiz-adv-x="275" unicode="·" d="M138 243q-32 0 -53.5 22t-21.5 56t21.5 56t53.5 22t53 -22t21 -56t-21 -56t-53 -22z"/>
<glyph glyph-name="cedilla" horiz-adv-x="549" unicode="¸" d="M184 -233l-10 50q60 4 83 14.5t23 32.5q0 35 -77 45l46 94h70l-29 -65q38 -9 56.5 -26t18.5 -47q0 -90 -181 -98z"/>
<glyph glyph-name="one.sups" horiz-adv-x="372" unicode="¹" d="M168 385v294h-86v54q60 10 104 42h69v-390h-87z"/>
<glyph glyph-name="ordmasculine" horiz-adv-x="369" unicode="º" d="M184 444q35 0 53.5 28t18.5 75q0 48 -18.5 76.5t-53.5 28.5t-53.5 -28.5t-18.5 -76.5q0 -47 18.5 -75t53.5 -28zM184 377q-66 0 -111.5 46t-45.5 124t45.5 124.5t111.5 46.5t111.5 -46.5t45.5 -124.5t-45.5 -124t-111.5 -46z"/>
<glyph glyph-name="guillemotright" horiz-adv-x="455" unicode="»" d="M273 61l-45 36l114 155l-114 154l45 37l136 -149v-84zM99 61l-45 36l114 155l-114 154l45 37l136 -149v-84z"/>
<glyph glyph-name="onequarter" horiz-adv-x="795" unicode="¼" d="M545 154h95v55l5 113h-4l-45 -79zM640 0v95h-179v44l152 251h104v-236h58v-59h-58v-95h-77zM183 -12l357 678h70l-356 -678h-71zM141 264v294h-86v54q60 10 104 42h69v-390h-87z"/>
<glyph glyph-name="onehalf" horiz-adv-x="827" unicode="½" d="M503 0v48q95 82 136.5 128t41.5 83q0 33 -17.5 52t-48.5 19q-40 0 -77 -52l-50 46q56 78 140 78q63 0 100 -34t37 -95q0 -32 -19 -68.5t-39.5 -60.5t-65.5 -71h141v-73h-279zM165 -12l357 678h70l-356 -678h-71zM141 264v294h-86v54q60 10 104 42h69v-390h-87z"/>
<glyph glyph-name="threequarters" horiz-adv-x="807" unicode="¾" d="M557 154h95v55l5 113h-4l-45 -79zM652 0v95h-179v44l152 251h104v-236h58v-59h-58v-95h-77zM213 -12l357 678h70l-356 -678h-71zM181 252q-100 0 -152 78l54 42q36 -53 91 -53q29 0 48 15.5t19 42.5q0 60 -107 60v51q43 0 67.5 16t24.5 44q0 23 -16 37t-43 14 q-38 0 -72 -43l-50 44q58 66 136 66q55 0 92.5 -29t37.5 -78q0 -60 -62 -93q34 -11 55.5 -35.5t21.5 -59.5q0 -53 -42.5 -86t-102.5 -33z"/>
<glyph glyph-name="questiondown" horiz-adv-x="444" unicode="¿" d="M236 347q-32 0 -53 22.5t-21 56.5q0 33 21 55t53 22t53 -22t21 -55q0 -34 -21 -56.5t-53 -22.5zM224 -191q-81 0 -130 43t-49 123q0 34 14.5 65t35.5 55t42 48.5t35.5 54.5t14.5 62q0 10 -1 16h102q2 -18 2 -26q0 -43 -21 -83.5t-46 -66.5t-46 -57.5t-21 -59.5 q0 -36 22 -58t60 -22q53 0 102 52l65 -59q-78 -87 -181 -87z"/>
<glyph glyph-name="Agrave" horiz-adv-x="558" unicode="À" d="M291 688l-168 117l62 76l157 -135zM-2 0l213 654h136l213 -654h-122l-51 177h-220l-51 -177h-118zM217 348l-23 -80h167l-23 80q-15 49 -59 216h-4q-33 -134 -58 -216z"/>
<glyph glyph-name="Aacute" horiz-adv-x="558" unicode="Á" d="M263 688l-51 58l157 135l62 -76zM-2 0l213 654h136l213 -654h-122l-51 177h-220l-51 -177h-118zM217 348l-23 -80h167l-23 80q-15 49 -59 216h-4q-33 -134 -58 -216z"/>
<glyph glyph-name="Acircumflex" horiz-adv-x="558" unicode="Â" d="M118 725l97 111h124l97 -111l-50 -33l-107 88h-4l-107 -88zM-2 0l213 654h136l213 -654h-122l-51 177h-220l-51 -177h-118zM217 348l-23 -80h167l-23 80q-15 49 -59 216h-4q-33 -134 -58 -216z"/>
<glyph glyph-name="Atilde" horiz-adv-x="558" unicode="Ã" d="M350 700q-31 0 -58.5 16t-48 32t-36.5 16q-36 0 -42 -57l-76 6q4 65 34.5 99t80.5 34q31 0 58.5 -16t48 -32t36.5 -16q35 0 42 58l76 -6q-4 -65 -34.5 -99.5t-80.5 -34.5zM-2 0l213 654h136l213 -654h-122l-51 177h-220l-51 -177h-118zM217 348l-23 -80h167l-23 80 q-15 49 -59 216h-4q-33 -134 -58 -216z"/>
<glyph glyph-name="Adieresis" horiz-adv-x="558" unicode="Ä" d="M384 708q-26 0 -43 16.5t-17 42.5t17 43t43 17t42.5 -17t16.5 -43t-16.5 -42.5t-42.5 -16.5zM170 708q-26 0 -42.5 16.5t-16.5 42.5t16.5 43t42.5 17t43 -17t17 -43t-17 -42.5t-43 -16.5zM-2 0l213 654h136l213 -654h-122l-51 177h-220l-51 -177h-118zM217 348l-23 -80 h167l-23 80q-15 49 -59 216h-4q-33 -134 -58 -216z"/>
<glyph glyph-name="Aring" horiz-adv-x="558" unicode="Å" d="M277 744q19 0 32.5 13t13.5 35t-13.5 35.5t-32.5 13.5q-20 0 -33.5 -13.5t-13.5 -35.5t13.5 -35t33.5 -13zM277 698q-47 0 -76.5 26t-29.5 68q0 43 29.5 69t76.5 26q46 0 76 -26t30 -69q0 -42 -30 -68t-76 -26zM-2 0l213 654h136l213 -654h-122l-51 177h-220l-51 -177 h-118zM217 348l-23 -80h167l-23 80q-15 49 -59 216h-4q-33 -134 -58 -216z"/>
<glyph glyph-name="AE" horiz-adv-x="834" unicode="Æ" d="M-3 0l327 654h449v-98h-263v-167h221v-98h-221v-193h273v-98h-389v170h-192l-83 -170h-122zM297 366l-51 -105h148v304h-4q-15 -31 -46 -98t-47 -101z"/>
<glyph glyph-name="Ccedilla" horiz-adv-x="576" unicode="Ç" d="M252 -233l-10 50q60 4 83 14.5t23 32.5q0 35 -77 45l39 81q-115 12 -188 100t-73 235q0 156 85.5 248.5t213.5 92.5q112 0 189 -83l-62 -75q-57 57 -124 57q-81 0 -132 -64t-51 -173q0 -111 48.5 -175t131.5 -64q78 0 140 67l62 -73q-69 -80 -169 -93l-23 -52 q38 -9 56.5 -26t18.5 -47q0 -90 -181 -98z"/>
<glyph glyph-name="Egrave" horiz-adv-x="538" unicode="È" d="M300 688l-168 117l62 76l157 -135zM83 0v654h394v-98h-278v-167h235v-98h-235v-193h288v-98h-404z"/>
<glyph glyph-name="Eacute" horiz-adv-x="538" unicode="É" d="M272 688l-51 58l157 135l62 -76zM83 0v654h394v-98h-278v-167h235v-98h-235v-193h288v-98h-404z"/>
<glyph glyph-name="Ecircumflex" horiz-adv-x="538" unicode="Ê" d="M127 725l97 111h124l97 -111l-50 -33l-107 88h-4l-107 -88zM83 0v654h394v-98h-278v-167h235v-98h-235v-193h288v-98h-404z"/>
<glyph glyph-name="Edieresis" horiz-adv-x="538" unicode="Ë" d="M393 708q-26 0 -43 16.5t-17 42.5t17 43t43 17t42.5 -17t16.5 -43t-16.5 -42.5t-42.5 -16.5zM179 708q-26 0 -42.5 16.5t-16.5 42.5t16.5 43t42.5 17t43 -17t17 -43t-17 -42.5t-43 -16.5zM83 0v654h394v-98h-278v-167h235v-98h-235v-193h288v-98h-404z"/>
<glyph glyph-name="Igrave" horiz-adv-x="282" unicode="Ì" d="M155 688l-168 117l62 76l157 -135zM83 0v654h116v-654h-116z"/>
<glyph glyph-name="Iacute" horiz-adv-x="282" unicode="Í" d="M127 688l-51 58l157 135l62 -76zM83 0v654h116v-654h-116z"/>
<glyph glyph-name="Icircumflex" horiz-adv-x="282" unicode="Î" d="M-18 725l97 111h124l97 -111l-50 -33l-107 88h-4l-107 -88zM83 0v654h116v-654h-116z"/>
<glyph glyph-name="Idieresis" horiz-adv-x="282" unicode="Ï" d="M248 708q-26 0 -43 16.5t-17 42.5t17 43t43 17t42.5 -17t16.5 -43t-16.5 -42.5t-42.5 -16.5zM34 708q-26 0 -42.5 16.5t-16.5 42.5t16.5 43t42.5 17t43 -17t17 -43t-17 -42.5t-43 -16.5zM83 0v654h116v-654h-116z"/>
<glyph glyph-name="Eth" horiz-adv-x="649" unicode="Ð" d="M223 94h51q207 0 207 236q0 230 -207 230h-51v-190h137v-59h-137v-217zM30 311v55l77 4v284h175q152 0 235 -82t83 -242q0 -161 -82 -245.5t-230 -84.5h-181v311h-77z"/>
<glyph glyph-name="Ntilde" horiz-adv-x="656" unicode="Ñ" d="M403 700q-31 0 -58.5 16t-48 32t-36.5 16q-36 0 -42 -57l-76 6q4 65 34.5 99t80.5 34q31 0 58.5 -16t48 -32t36.5 -16q35 0 42 58l76 -6q-4 -65 -34.5 -99.5t-80.5 -34.5zM83 0v654h119l204 -368l67 -139h4q-1 17 -5.5 66t-7 86.5t-2.5 70.5v284h111v-654h-119l-204 368 l-67 139h-4q1 -20 5.5 -67t7 -84t2.5 -70v-286h-111z"/>
<glyph glyph-name="Ograve" horiz-adv-x="674" unicode="Ò" d="M351 688l-168 117l62 76l157 -135zM337 89q77 0 123 65.5t46 175.5q0 109 -45.5 172t-123.5 63t-123.5 -63t-45.5 -172q0 -110 46 -175.5t123 -65.5zM337 -12q-129 0 -208.5 92.5t-79.5 249.5q0 156 79.5 246t208.5 90q130 0 209.5 -90t79.5 -246q0 -157 -79.5 -249.5 t-209.5 -92.5z"/>
<glyph glyph-name="Oacute" horiz-adv-x="674" unicode="Ó" d="M323 688l-51 58l157 135l62 -76zM337 89q77 0 123 65.5t46 175.5q0 109 -45.5 172t-123.5 63t-123.5 -63t-45.5 -172q0 -110 46 -175.5t123 -65.5zM337 -12q-129 0 -208.5 92.5t-79.5 249.5q0 156 79.5 246t208.5 90q130 0 209.5 -90t79.5 -246q0 -157 -79.5 -249.5 t-209.5 -92.5z"/>
<glyph glyph-name="Ocircumflex" horiz-adv-x="674" unicode="Ô" d="M178 725l97 111h124l97 -111l-50 -33l-107 88h-4l-107 -88zM337 89q77 0 123 65.5t46 175.5q0 109 -45.5 172t-123.5 63t-123.5 -63t-45.5 -172q0 -110 46 -175.5t123 -65.5zM337 -12q-129 0 -208.5 92.5t-79.5 249.5q0 156 79.5 246t208.5 90q130 0 209.5 -90t79.5 -246 q0 -157 -79.5 -249.5t-209.5 -92.5z"/>
<glyph glyph-name="Otilde" horiz-adv-x="674" unicode="Õ" d="M410 700q-31 0 -58.5 16t-48 32t-36.5 16q-36 0 -42 -57l-76 6q4 65 34.5 99t80.5 34q31 0 58.5 -16t48 -32t36.5 -16q35 0 42 58l76 -6q-4 -65 -34.5 -99.5t-80.5 -34.5zM337 89q77 0 123 65.5t46 175.5q0 109 -45.5 172t-123.5 63t-123.5 -63t-45.5 -172 q0 -110 46 -175.5t123 -65.5zM337 -12q-129 0 -208.5 92.5t-79.5 249.5q0 156 79.5 246t208.5 90q130 0 209.5 -90t79.5 -246q0 -157 -79.5 -249.5t-209.5 -92.5z"/>
<glyph glyph-name="Odieresis" horiz-adv-x="674" unicode="Ö" d="M444 708q-26 0 -43 16.5t-17 42.5t17 43t43 17t42.5 -17t16.5 -43t-16.5 -42.5t-42.5 -16.5zM230 708q-26 0 -42.5 16.5t-16.5 42.5t16.5 43t42.5 17t43 -17t17 -43t-17 -42.5t-43 -16.5zM337 89q77 0 123 65.5t46 175.5q0 109 -45.5 172t-123.5 63t-123.5 -63 t-45.5 -172q0 -110 46 -175.5t123 -65.5zM337 -12q-129 0 -208.5 92.5t-79.5 249.5q0 156 79.5 246t208.5 90q130 0 209.5 -90t79.5 -246q0 -157 -79.5 -249.5t-209.5 -92.5z"/>
<glyph glyph-name="multiply" d="M108 119l-59 60l148 150l-148 151l59 60l148 -152l149 152l59 -60l-149 -151l149 -150l-59 -60l-149 151z" unicode="×"/>
<glyph glyph-name="Oslash" horiz-adv-x="674" unicode="Ø" d="M339 89q77 0 123 65.5t46 175.5q0 68 -19 120l-252 -320q41 -41 102 -41zM170 330q0 -74 22 -131l254 323q-43 43 -107 43q-78 0 -123.5 -63t-45.5 -172zM339 -12q-100 0 -170 56l-63 -80l-61 48l70 89q-64 89 -64 229q0 156 79.5 246t208.5 90q103 0 175 -57l64 81 l62 -48l-72 -91q60 -88 60 -221q0 -157 -79.5 -249.5t-209.5 -92.5z"/>
<glyph glyph-name="Ugrave" horiz-adv-x="655" unicode="Ù" d="M342 688l-168 117l62 76l157 -135zM328 -12q-248 0 -248 299v367h116v-376q0 -189 132 -189q136 0 136 189v376h111v-367q0 -299 -247 -299z"/>
<glyph glyph-name="Uacute" horiz-adv-x="655" unicode="Ú" d="M314 688l-51 58l157 135l62 -76zM328 -12q-248 0 -248 299v367h116v-376q0 -189 132 -189q136 0 136 189v376h111v-367q0 -299 -247 -299z"/>
<glyph glyph-name="Ucircumflex" horiz-adv-x="655" unicode="Û" d="M169 725l97 111h124l97 -111l-50 -33l-107 88h-4l-107 -88zM328 -12q-248 0 -248 299v367h116v-376q0 -189 132 -189q136 0 136 189v376h111v-367q0 -299 -247 -299z"/>
<glyph glyph-name="Udieresis" horiz-adv-x="655" unicode="Ü" d="M435 708q-26 0 -43 16.5t-17 42.5t17 43t43 17t42.5 -17t16.5 -43t-16.5 -42.5t-42.5 -16.5zM221 708q-26 0 -42.5 16.5t-16.5 42.5t16.5 43t42.5 17t43 -17t17 -43t-17 -42.5t-43 -16.5zM328 -12q-248 0 -248 299v367h116v-376q0 -189 132 -189q136 0 136 189v376h111 v-367q0 -299 -247 -299z"/>
<glyph glyph-name="Yacute" horiz-adv-x="501" unicode="Ý" d="M236 688l-51 58l157 135l62 -76zM192 0v243l-196 411h124l71 -167q30 -77 58 -144h4q54 129 60 144l71 167h121l-197 -411v-243h-116z"/>
<glyph glyph-name="Thorn" horiz-adv-x="600" unicode="Þ" d="M199 229h95q144 0 144 119q0 59 -35 84t-109 25h-95v-228zM83 0v654h116v-104h104q249 0 249 -202q0 -105 -68.5 -158.5t-180.5 -53.5h-104v-136h-116z"/>
<glyph glyph-name="germandbls" horiz-adv-x="604" unicode="ß" d="M404 -12q-73 0 -146 47l42 79q51 -39 101 -39q32 0 50.5 18.5t18.5 45.5q0 26 -19 45.5t-46.5 34t-55 30.5t-46.5 43.5t-19 64.5q0 42 39.5 96.5t39.5 93.5q0 35 -19 56.5t-54 21.5q-50 0 -76.5 -36.5t-26.5 -104.5v-484h-114v501q0 98 56 156.5t161 58.5 q87 0 135.5 -45.5t48.5 -110.5q0 -33 -13 -62.5t-29 -46.5t-29 -38.5t-13 -41.5q0 -22 19.5 -39t47 -31t54.5 -31.5t46.5 -49.5t19.5 -76q0 -67 -46.5 -111.5t-126.5 -44.5z"/>
<glyph glyph-name="agrave" horiz-adv-x="516" unicode="à" d="M271 573l-170 155l80 76l147 -174zM229 78q48 0 107 54v110q-96 -12 -137 -37t-41 -64q0 -63 71 -63zM192 -12q-65 0 -105 40t-40 104q0 79 69 122.5t220 59.5q-4 96 -90 96q-57 0 -138 -48l-42 77q102 64 202 64q91 0 137 -54t46 -158v-291h-95l-8 54h-4 q-78 -66 -152 -66z"/>
<glyph glyph-name="aacute" horiz-adv-x="516" unicode="á" d="M267 573l-57 57l147 174l80 -76zM229 78q48 0 107 54v110q-96 -12 -137 -37t-41 -64q0 -63 71 -63zM192 -12q-65 0 -105 40t-40 104q0 79 69 122.5t220 59.5q-4 96 -90 96q-57 0 -138 -48l-42 77q102 64 202 64q91 0 137 -54t46 -158v-291h-95l-8 54h-4q-78 -66 -152 -66 z"/>
<glyph glyph-name="acircumflex" horiz-adv-x="516" unicode="â" d="M100 607l111 135h116l111 -135l-45 -43l-122 103h-4l-122 -103zM229 78q48 0 107 54v110q-96 -12 -137 -37t-41 -64q0 -63 71 -63zM192 -12q-65 0 -105 40t-40 104q0 79 69 122.5t220 59.5q-4 96 -90 96q-57 0 -138 -48l-42 77q102 64 202 64q91 0 137 -54t46 -158v-291 h-95l-8 54h-4q-78 -66 -152 -66z"/>
<glyph glyph-name="atilde" horiz-adv-x="516" unicode="ã" d="M338 575q-29 0 -54.5 18.5t-46 37t-35.5 18.5q-35 0 -41 -67l-74 4q5 144 113 144q29 0 54.5 -18.5t46 -37t36.5 -18.5q34 0 40 67l74 -4q-5 -144 -113 -144zM229 78q48 0 107 54v110q-96 -12 -137 -37t-41 -64q0 -63 71 -63zM192 -12q-65 0 -105 40t-40 104 q0 79 69 122.5t220 59.5q-4 96 -90 96q-57 0 -138 -48l-42 77q102 64 202 64q91 0 137 -54t46 -158v-291h-95l-8 54h-4q-78 -66 -152 -66z"/>
<glyph glyph-name="adieresis" horiz-adv-x="516" unicode="ä" d="M372 578q-27 0 -44 17.5t-17 43.5t17 43.5t44 17.5q26 0 43.5 -17.5t17.5 -43.5t-17.5 -43.5t-43.5 -17.5zM166 578q-26 0 -43.5 17.5t-17.5 43.5t17.5 43.5t43.5 17.5q27 0 44 -17.5t17 -43.5t-17 -43.5t-44 -17.5zM229 78q48 0 107 54v110q-96 -12 -137 -37t-41 -64 q0 -63 71 -63zM192 -12q-65 0 -105 40t-40 104q0 79 69 122.5t220 59.5q-4 96 -90 96q-57 0 -138 -48l-42 77q102 64 202 64q91 0 137 -54t46 -158v-291h-95l-8 54h-4q-78 -66 -152 -66z"/>
<glyph glyph-name="aring" horiz-adv-x="516" unicode="å" d="M269 605q21 0 35.5 15.5t14.5 39.5q0 25 -14.5 40.5t-35.5 15.5t-35.5 -15.5t-14.5 -40.5q0 -24 14.5 -39.5t35.5 -15.5zM269 559q-56 0 -88.5 28.5t-32.5 72.5q0 45 32.5 73.5t88.5 28.5t88.5 -28.5t32.5 -73.5q0 -44 -32.5 -72.5t-88.5 -28.5zM229 78q48 0 107 54v110 q-96 -12 -137 -37t-41 -64q0 -63 71 -63zM192 -12q-65 0 -105 40t-40 104q0 79 69 122.5t220 59.5q-4 96 -90 96q-57 0 -138 -48l-42 77q102 64 202 64q91 0 137 -54t46 -158v-291h-95l-8 54h-4q-78 -66 -152 -66z"/>
<glyph glyph-name="ae" horiz-adv-x="785" unicode="æ" d="M443 287h206q0 60 -24.5 93.5t-71.5 33.5q-43 0 -73 -33.5t-37 -93.5zM234 78q62 0 120 58q-14 33 -16 83l-2 23q-172 -23 -172 -101q0 -63 70 -63zM198 -12q-65 0 -105.5 40t-40.5 104q0 79 68.5 122.5t217.5 59.5q-4 96 -88 96q-57 0 -136 -48l-42 77q102 64 193 64 q99 0 139 -89q64 89 153 89q91 0 141 -64.5t50 -170.5q0 -34 -5 -54h-300q6 -62 43.5 -98t91.5 -36q52 0 111 38l41 -77q-80 -53 -167 -53q-101 0 -171 84q-98 -84 -194 -84z"/>
<glyph glyph-name="ccedilla" horiz-adv-x="462" unicode="ç" d="M183 -233l-10 50q60 4 83 14.5t23 32.5q0 35 -77 45l40 81q-90 12 -145.5 79.5t-55.5 175.5q0 118 71.5 188t174.5 70q80 0 144 -55l-56 -75q-41 36 -82 36q-60 0 -97 -45t-37 -119q0 -73 36.5 -118t94.5 -45q50 0 101 42l47 -76q-55 -48 -126 -57l-23 -53 q38 -9 56.5 -26t18.5 -47q0 -90 -181 -98z"/>
<glyph glyph-name="egrave" horiz-adv-x="507" unicode="è" d="M269 573l-170 155l80 76l147 -174zM152 292h218q0 58 -25.5 90t-74.5 32q-45 0 -78 -32t-40 -90zM283 -12q-105 0 -173.5 69.5t-68.5 187.5q0 115 67.5 186.5t158.5 71.5q97 0 150 -63.5t53 -169.5q0 -36 -5 -56h-312q7 -65 46 -101t99 -36q58 0 114 36l39 -72 q-80 -53 -168 -53z"/>
<glyph glyph-name="eacute" horiz-adv-x="507" unicode="é" d="M265 573l-57 57l147 174l80 -76zM152 292h218q0 58 -25.5 90t-74.5 32q-45 0 -78 -32t-40 -90zM283 -12q-105 0 -173.5 69.5t-68.5 187.5q0 115 67.5 186.5t158.5 71.5q97 0 150 -63.5t53 -169.5q0 -36 -5 -56h-312q7 -65 46 -101t99 -36q58 0 114 36l39 -72 q-80 -53 -168 -53z"/>
<glyph glyph-name="ecircumflex" horiz-adv-x="507" unicode="ê" d="M98 607l111 135h116l111 -135l-45 -43l-122 103h-4l-122 -103zM152 292h218q0 58 -25.5 90t-74.5 32q-45 0 -78 -32t-40 -90zM283 -12q-105 0 -173.5 69.5t-68.5 187.5q0 115 67.5 186.5t158.5 71.5q97 0 150 -63.5t53 -169.5q0 -36 -5 -56h-312q7 -65 46 -101t99 -36 q58 0 114 36l39 -72q-80 -53 -168 -53z"/>
<glyph glyph-name="edieresis" horiz-adv-x="507" unicode="ë" d="M370 578q-27 0 -44 17.5t-17 43.5t17 43.5t44 17.5q26 0 43.5 -17.5t17.5 -43.5t-17.5 -43.5t-43.5 -17.5zM164 578q-26 0 -43.5 17.5t-17.5 43.5t17.5 43.5t43.5 17.5q27 0 44 -17.5t17 -43.5t-17 -43.5t-44 -17.5zM152 292h218q0 58 -25.5 90t-74.5 32q-45 0 -78 -32 t-40 -90zM283 -12q-105 0 -173.5 69.5t-68.5 187.5q0 115 67.5 186.5t158.5 71.5q97 0 150 -63.5t53 -169.5q0 -36 -5 -56h-312q7 -65 46 -101t99 -36q58 0 114 36l39 -72q-80 -53 -168 -53z"/>
<glyph glyph-name="igrave" horiz-adv-x="262" unicode="ì" d="M133 573l-170 155l80 76l147 -174zM73 0v491h115v-491h-115z"/>
<glyph glyph-name="iacute" horiz-adv-x="262" unicode="í" d="M129 573l-57 57l147 174l80 -76zM73 0v491h115v-491h-115z"/>
<glyph glyph-name="icircumflex" horiz-adv-x="262" unicode="î" d="M-38 607l111 135h116l111 -135l-45 -43l-122 103h-4l-122 -103zM73 0v491h115v-491h-115z"/>
<glyph glyph-name="idieresis" horiz-adv-x="262" unicode="ï" d="M234 578q-27 0 -44 17.5t-17 43.5t17 43.5t44 17.5q26 0 43.5 -17.5t17.5 -43.5t-17.5 -43.5t-43.5 -17.5zM28 578q-26 0 -43.5 17.5t-17.5 43.5t17.5 43.5t43.5 17.5q27 0 44 -17.5t17 -43.5t-17 -43.5t-44 -17.5zM73 0v491h115v-491h-115z"/>
<glyph glyph-name="eth" horiz-adv-x="552" unicode="ð" d="M274 82q55 0 85 45.5t30 128.5q0 18 -2 50q-46 58 -114 58q-55 0 -87 -37.5t-32 -101.5q0 -65 34.5 -104t85.5 -39zM271 -12q-93 0 -158 65.5t-65 171.5q0 102 59.5 164t144.5 62q76 0 120 -54q-25 93 -96 162l-142 -72l-31 53l122 62q-38 28 -101 62l51 71 q83 -43 138 -88l143 73l31 -54l-124 -63q135 -137 135 -341q0 -122 -62 -198t-165 -76z"/>
<glyph glyph-name="ntilde" horiz-adv-x="560" unicode="ñ" d="M369 575q-29 0 -54.5 18.5t-46 37t-35.5 18.5q-35 0 -41 -67l-74 4q5 144 113 144q29 0 54.5 -18.5t46 -37t36.5 -18.5q34 0 40 67l74 -4q-5 -144 -113 -144zM73 0v491h95l8 -66h4q80 78 161 78q151 0 151 -195v-308h-115v293q0 60 -18 85.5t-59 25.5q-30 0 -54 -14 t-58 -47v-343h-115z"/>
<glyph glyph-name="ograve" horiz-adv-x="549" unicode="ò" d="M276 573l-170 155l80 76l147 -174zM274 82q54 0 85 44.5t31 118.5q0 75 -31 119.5t-85 44.5t-84.5 -44.5t-30.5 -119.5q0 -74 31 -118.5t84 -44.5zM274 -12q-96 0 -164.5 70t-68.5 187q0 118 68.5 188t164.5 70q97 0 165.5 -70t68.5 -188t-68.5 -187.5t-165.5 -69.5z"/>
<glyph glyph-name="oacute" horiz-adv-x="549" unicode="ó" d="M272 573l-57 57l147 174l80 -76zM274 82q54 0 85 44.5t31 118.5q0 75 -31 119.5t-85 44.5t-84.5 -44.5t-30.5 -119.5q0 -74 31 -118.5t84 -44.5zM274 -12q-96 0 -164.5 70t-68.5 187q0 118 68.5 188t164.5 70q97 0 165.5 -70t68.5 -188t-68.5 -187.5t-165.5 -69.5z"/>
<glyph glyph-name="ocircumflex" horiz-adv-x="549" unicode="ô" d="M105 607l111 135h116l111 -135l-45 -43l-122 103h-4l-122 -103zM274 82q54 0 85 44.5t31 118.5q0 75 -31 119.5t-85 44.5t-84.5 -44.5t-30.5 -119.5q0 -74 31 -118.5t84 -44.5zM274 -12q-96 0 -164.5 70t-68.5 187q0 118 68.5 188t164.5 70q97 0 165.5 -70t68.5 -188 t-68.5 -187.5t-165.5 -69.5z"/>
<glyph glyph-name="otilde" horiz-adv-x="549" unicode="õ" d="M343 575q-29 0 -54.5 18.5t-46 37t-35.5 18.5q-35 0 -41 -67l-74 4q5 144 113 144q29 0 54.5 -18.5t46 -37t36.5 -18.5q34 0 40 67l74 -4q-5 -144 -113 -144zM274 82q54 0 85 44.5t31 118.5q0 75 -31 119.5t-85 44.5t-84.5 -44.5t-30.5 -119.5q0 -74 31 -118.5t84 -44.5z M274 -12q-96 0 -164.5 70t-68.5 187q0 118 68.5 188t164.5 70q97 0 165.5 -70t68.5 -188t-68.5 -187.5t-165.5 -69.5z"/>
<glyph glyph-name="odieresis" horiz-adv-x="549" unicode="ö" d="M377 578q-27 0 -44 17.5t-17 43.5t17 43.5t44 17.5q26 0 43.5 -17.5t17.5 -43.5t-17.5 -43.5t-43.5 -17.5zM171 578q-26 0 -43.5 17.5t-17.5 43.5t17.5 43.5t43.5 17.5q27 0 44 -17.5t17 -43.5t-17 -43.5t-44 -17.5zM274 82q54 0 85 44.5t31 118.5q0 75 -31 119.5 t-85 44.5t-84.5 -44.5t-30.5 -119.5q0 -74 31 -118.5t84 -44.5zM274 -12q-96 0 -164.5 70t-68.5 187q0 118 68.5 188t164.5 70q97 0 165.5 -70t68.5 -188t-68.5 -187.5t-165.5 -69.5z"/>
<glyph glyph-name="divide" d="M256 444q-29 0 -48.5 18.5t-19.5 47.5q0 28 19.5 46.5t48.5 18.5t48.5 -18.5t19.5 -46.5q0 -29 -19.5 -47.5t-48.5 -18.5zM256 84q-29 0 -48.5 18.5t-19.5 47.5q0 28 19.5 46.5t48.5 18.5t48.5 -18.5t19.5 -46.5q0 -29 -19.5 -47.5t-48.5 -18.5zM34 288v84h445v-84h-445z " unicode="÷"/>
<glyph glyph-name="oslash" horiz-adv-x="549" unicode="ø" d="M274 78q54 0 88 44.5t34 116.5q0 53 -14 92l-183 -223q30 -30 75 -30zM153 251q0 -52 14 -91l182 224q-31 29 -75 29q-54 0 -87.5 -45t-33.5 -117zM274 -12q-77 0 -136 44l-46 -56l-46 36l50 61q-55 70 -55 172q0 118 68.5 188t164.5 70q77 0 136 -44l47 57l46 -36 l-50 -62q55 -70 55 -173q0 -118 -68.5 -187.5t-165.5 -69.5z"/>
<glyph glyph-name="ugrave" horiz-adv-x="556" unicode="ù" d="M281 573l-170 155l80 76l147 -174zM219 -12q-151 0 -151 195v308h115v-293q0 -60 18 -85.5t58 -25.5q32 0 56.5 15.5t52.5 52.5v336h115v-491h-94l-9 72h-3q-71 -84 -158 -84z"/>
<glyph glyph-name="uacute" horiz-adv-x="556" unicode="ú" d="M277 573l-57 57l147 174l80 -76zM219 -12q-151 0 -151 195v308h115v-293q0 -60 18 -85.5t58 -25.5q32 0 56.5 15.5t52.5 52.5v336h115v-491h-94l-9 72h-3q-71 -84 -158 -84z"/>
<glyph glyph-name="ucircumflex" horiz-adv-x="556" unicode="û" d="M110 607l111 135h116l111 -135l-45 -43l-122 103h-4l-122 -103zM219 -12q-151 0 -151 195v308h115v-293q0 -60 18 -85.5t58 -25.5q32 0 56.5 15.5t52.5 52.5v336h115v-491h-94l-9 72h-3q-71 -84 -158 -84z"/>
<glyph glyph-name="udieresis" horiz-adv-x="556" unicode="ü" d="M382 578q-27 0 -44 17.5t-17 43.5t17 43.5t44 17.5q26 0 43.5 -17.5t17.5 -43.5t-17.5 -43.5t-43.5 -17.5zM176 578q-26 0 -43.5 17.5t-17.5 43.5t17.5 43.5t43.5 17.5q27 0 44 -17.5t17 -43.5t-17 -43.5t-44 -17.5zM219 -12q-151 0 -151 195v308h115v-293 q0 -60 18 -85.5t58 -25.5q32 0 56.5 15.5t52.5 52.5v336h115v-491h-94l-9 72h-3q-71 -84 -158 -84z"/>
<glyph glyph-name="yacute" horiz-adv-x="495" unicode="ý" d="M253 573l-57 57l147 174l80 -76zM106 -202q-34 0 -64 10l21 90q21 -7 35 -7q71 0 98 84l9 31l-193 485h117l85 -241q7 -21 21 -67.5t22 -70.5h4q28 105 37 138l74 241h111l-178 -513q-33 -90 -78 -135t-121 -45z"/>
<glyph glyph-name="thorn" horiz-adv-x="564" unicode="þ" d="M287 83q51 0 83 44t32 125q0 156 -106 156q-52 0 -108 -55v-229q49 -41 99 -41zM73 -194v900h115v-182l-2 -77q68 56 136 56q94 0 146.5 -67.5t52.5 -182.5q0 -121 -62 -193t-148 -72q-64 0 -125 50l2 -78v-154h-115z"/>
<glyph glyph-name="OE" horiz-adv-x="859" unicode="Œ" d="M384 94h36v466h-36q-216 0 -216 -230q0 -119 56 -177.5t160 -58.5zM371 0q-148 0 -235 85.5t-87 244.5q0 158 88 241t240 83h421v-98h-262v-167h220v-98h-220v-193h272v-98h-437z"/>
<glyph glyph-name="oe" horiz-adv-x="830" unicode="œ" d="M486 287h208q0 60 -25 93.5t-72 33.5q-44 0 -74 -33.5t-37 -93.5zM268 82q50 0 80.5 44.5t30.5 118.5t-30.5 119t-80.5 45t-80 -45t-30 -119q0 -73 30 -118t80 -45zM266 -12q-95 0 -160 69.5t-65 187.5q0 119 65.5 188.5t161.5 69.5q111 0 168 -104q29 49 72.5 76.5 t91.5 27.5q92 0 143 -64.5t51 -170.5q0 -24 -5 -54h-303q6 -63 43.5 -98.5t92.5 -35.5q53 0 112 38l41 -77q-80 -53 -169 -53q-50 0 -95 27.5t-73 76.5q-61 -104 -172 -104z"/>
<glyph glyph-name="Scaron" horiz-adv-x="545" unicode="Š" d="M223 704l-97 112l50 32l107 -88h4l107 88l50 -32l-97 -112h-124zM274 -12q-138 0 -236 96l68 79q79 -74 170 -74q55 0 84.5 22.5t29.5 61.5q0 26 -15 44.5t-31.5 27t-54.5 24.5l-90 39q-132 56 -132 174q0 79 62.5 131.5t157.5 52.5q118 0 201 -83l-59 -74 q-67 56 -142 56q-47 0 -75 -20.5t-28 -56.5q0 -24 17 -42.5t33.5 -26.5t53.5 -23l89 -37q63 -27 97.5 -68.5t34.5 -108.5q0 -82 -64 -138t-171 -56z"/>
<glyph glyph-name="scaron" horiz-adv-x="431" unicode="š" d="M170 576l-111 135l45 42l122 -102h4l122 102l45 -42l-111 -135h-116zM210 -12q-102 0 -186 68l54 74q71 -55 136 -55q38 0 58 16t20 43q0 15 -7.5 26t-27.5 22t-30 15l-40 16q-62 23 -100 55.5t-38 87.5q0 65 48.5 106t130.5 41q87 0 163 -59l-53 -70q-57 42 -108 42 q-35 0 -53.5 -15t-18.5 -39q0 -17 14.5 -30.5t31.5 -21t47 -18.5l9 -3q32 -12 51.5 -21.5t43 -27t35 -42.5t11.5 -58q0 -66 -50.5 -109t-140.5 -43z"/>
<glyph glyph-name="Ydieresis" horiz-adv-x="501" unicode="Ÿ" d="M357 708q-26 0 -43 16.5t-17 42.5t17 43t43 17t42.5 -17t16.5 -43t-16.5 -42.5t-42.5 -16.5zM143 708q-26 0 -42.5 16.5t-16.5 42.5t16.5 43t42.5 17t43 -17t17 -43t-17 -42.5t-43 -16.5zM192 0v243l-196 411h124l71 -167q30 -77 58 -144h4q54 129 60 144l71 167h121 l-197 -411v-243h-116z"/>
<glyph glyph-name="circumflex" horiz-adv-x="549" unicode="ˆ" d="M105 607l111 135h116l111 -135l-45 -43l-122 103h-4l-122 -103z"/>
<glyph glyph-name="tilde" horiz-adv-x="549" unicode="˜" d="M343 575q-29 0 -54.5 18.5t-46 37t-35.5 18.5q-35 0 -41 -67l-74 4q5 144 113 144q29 0 54.5 -18.5t46 -37t36.5 -18.5q34 0 40 67l74 -4q-5 -144 -113 -144z"/>
<glyph glyph-name="Alpha" horiz-adv-x="558" unicode="Α" d="M-2 0l213 654h136l213 -654h-122l-51 177h-220l-51 -177h-118zM217 348l-23 -80h167l-23 80q-15 49 -59 216h-4q-33 -134 -58 -216z"/>
<glyph glyph-name="Beta" horiz-adv-x="597" unicode="Β" d="M199 90h98q150 0 150 108q0 99 -150 99h-98v-207zM199 384h83q130 0 130 92q0 47 -31.5 67.5t-96.5 20.5h-85v-180zM83 0v654h209q234 0 234 -161q0 -48 -24.5 -87.5t-66.5 -54.5v-4q57 -13 91 -52.5t34 -102.5q0 -95 -69 -143.5t-182 -48.5h-226z"/>
<glyph glyph-name="Gamma" horiz-adv-x="510" unicode="Γ" d="M83 0v654h395v-98h-279v-556h-116z"/>
<glyph glyph-name="uni0394" horiz-adv-x="614" unicode="Δ" d="M157 98h298l-85 259l-63 203h-4l-62 -203zM32 0v70l207 584h137l206 -584v-70h-550z"/>
<glyph glyph-name="Epsilon" horiz-adv-x="538" unicode="Ε" d="M83 0v654h394v-98h-278v-167h235v-98h-235v-193h288v-98h-404z"/>
<glyph glyph-name="Zeta" horiz-adv-x="540" unicode="Ζ" d="M40 0v70l316 486h-287v98h431v-70l-317 -486h319v-98h-462z"/>
<glyph glyph-name="Eta" horiz-adv-x="663" unicode="Η" d="M83 0v654h116v-263h265v263h116v-654h-116v290h-265v-290h-116z"/>
<glyph glyph-name="Theta" horiz-adv-x="674" unicode="Θ" d="M337 89q77 0 123 65.5t46 175.5q0 109 -45.5 172t-123.5 63t-123.5 -63t-45.5 -172q0 -110 46 -175.5t123 -65.5zM337 -12q-129 0 -208.5 92.5t-79.5 249.5q0 156 79.5 246t208.5 90q130 0 209.5 -90t79.5 -246q0 -157 -79.5 -249.5t-209.5 -92.5zM232 290v101h210v-101 h-210z"/>
<glyph glyph-name="Iota" horiz-adv-x="282" unicode="Ι" d="M83 0v654h116v-654h-116z"/>
<glyph glyph-name="Kappa" horiz-adv-x="597" unicode="Κ" d="M83 0v654h116v-297h3l233 297h129l-201 -255l235 -399h-128l-177 308l-94 -117v-191h-116z"/>
<glyph glyph-name="Lambda" horiz-adv-x="536" unicode="Λ" d="M-4 0l203 654h137l204 -654h-123l-92 329q-9 32 -27.5 102t-30.5 111h-4q-13 -44 -33 -120.5t-24 -92.5l-91 -329h-119z"/>
<glyph glyph-name="Mu" horiz-adv-x="745" unicode="Μ" d="M83 0v654h131l116 -320q7 -21 42 -128h4q5 15 19 60t22 68l113 320h132v-654h-107v299q0 58 15 208h-4l-53 -152l-107 -294h-69l-108 294l-52 152h-4q15 -180 15 -208v-299h-105z"/>
<glyph glyph-name="Nu" horiz-adv-x="656" unicode="Ν" d="M83 0v654h119l204 -368l67 -139h4q-1 17 -5.5 66t-7 86.5t-2.5 70.5v284h111v-654h-119l-204 368l-67 139h-4q1 -20 5.5 -67t7 -84t2.5 -70v-286h-111z"/>
<glyph glyph-name="Xi" horiz-adv-x="552" unicode="Ξ" d="M61 556v98h431v-98h-431zM122 291v98h308v-98h-308zM51 0v98h451v-98h-451z"/>
<glyph glyph-name="Omicron" horiz-adv-x="674" unicode="Ο" d="M337 89q77 0 123 65.5t46 175.5q0 109 -45.5 172t-123.5 63t-123.5 -63t-45.5 -172q0 -110 46 -175.5t123 -65.5zM337 -12q-129 0 -208.5 92.5t-79.5 249.5q0 156 79.5 246t208.5 90q130 0 209.5 -90t79.5 -246q0 -157 -79.5 -249.5t-209.5 -92.5z"/>
<glyph glyph-name="Pi" horiz-adv-x="654" unicode="Π" d="M83 0v654h488v-654h-116v556h-256v-556h-116z"/>
<glyph glyph-name="Rho" horiz-adv-x="582" unicode="Ρ" d="M199 333h85q144 0 144 119q0 60 -36 84.5t-112 24.5h-81v-228zM83 0v654h206q253 0 253 -202q0 -104 -69 -158t-180 -54h-94v-240h-116z"/>
<glyph glyph-name="Sigma" horiz-adv-x="544" unicode="Σ" d="M41 0v70l213 261l-210 253v70h436v-98h-290l181 -222l-184 -236h321v-98h-467z"/>
<glyph glyph-name="Tau" horiz-adv-x="546" unicode="Τ" d="M215 0v556h-189v98h494v-98h-189v-556h-116z"/>
<glyph glyph-name="Upsilon" horiz-adv-x="501" unicode="Υ" d="M192 0v243l-196 411h124l71 -167q30 -77 58 -144h4q54 129 60 144l71 167h121l-197 -411v-243h-116z"/>
<glyph glyph-name="Phi" horiz-adv-x="740" unicode="Φ" d="M318 -22v90q-123 8 -196.5 77.5t-73.5 184.5t73 182t197 75v89h104v-89q124 -8 197 -75t73 -182t-73.5 -184.5t-196.5 -77.5v-90h-104zM581 330q0 72 -43 116.5t-116 52.5v-343q73 8 116 54.5t43 119.5zM159 330q0 -73 43 -119.5t116 -54.5v343q-73 -8 -116 -52.5 t-43 -116.5z"/>
<glyph glyph-name="Chi" horiz-adv-x="541" unicode="Χ" d="M13 0l186 337l-174 317h129l72 -145q9 -16 25 -49.5t25 -50.5h4q27 67 44 100l69 145h123l-174 -322l186 -332h-129l-80 154l-25.5 51t-27.5 56h-4q-22 -52 -48 -107l-78 -154h-123z"/>
<glyph glyph-name="Psi" horiz-adv-x="726" unicode="Ψ" d="M308 0v232q-250 14 -250 261v161h113v-155q0 -87 34 -128.5t103 -46.5v330h109v-330q69 5 103 46.5t34 128.5v155h114v-161q0 -247 -251 -261v-232h-109z"/>
<glyph glyph-name="alpha" horiz-adv-x="578" unicode="α" d="M260 83q41 0 74 38t37 91l7 88q-32 108 -105 108q-47 0 -80.5 -43.5t-33.5 -123.5q0 -77 27 -117.5t74 -40.5zM234 -12q-88 0 -140.5 67t-52.5 185q0 120 63.5 191.5t152.5 71.5q102 0 143 -113h4l18 101h114q-3 -14 -16 -73t-18.5 -85.5t-14 -72t-12 -76.5t-3.5 -54 q0 -24 13.5 -36t35.5 -12q14 0 33 7l15 -86q-30 -15 -75 -15q-101 0 -112 90h-4q-52 -90 -144 -90z"/>
<glyph glyph-name="beta" horiz-adv-x="583" unicode="β" d="M318 83q48 0 80 32t32 89q0 50 -29.5 82t-84.5 32q-24 0 -45 -6l-15 86q63 11 92 47.5t29 85.5q0 46 -25.5 71t-63.5 25q-49 0 -76 -41.5t-29 -117.5q-3 -159 -3 -317q52 -68 138 -68zM72 -178v656q0 108 54.5 174t161.5 66q83 0 141.5 -45.5t58.5 -131.5 q0 -101 -90 -158v-4q65 -11 105.5 -60.5t40.5 -122.5q0 -98 -58 -153t-137 -55q-104 0 -169 70q6 -166 8 -236h-116z"/>
<glyph glyph-name="gamma" horiz-adv-x="509" unicode="γ" d="M190 -178q6 52 6 129q0 107 -58 263.5t-136 262.5l117 26q41 -58 82.5 -161t64.5 -210h4q92 185 106 359h114q-21 -130 -61.5 -235t-130.5 -247q11 -73 11 -187h-119z"/>
<glyph glyph-name="delta" horiz-adv-x="540" unicode="δ" d="M273 82q53 0 82 36t29 103q0 83 -91 154q-65 -16 -101 -57t-36 -104q0 -60 34 -96t83 -36zM271 -12q-93 0 -159 61.5t-66 162.5q0 79 47 134.5t122 83.5q-119 84 -119 173q0 49 44 82t127 33q98 0 215 -39l-27 -88q-115 41 -189 41q-31 0 -46.5 -11t-15.5 -28 q0 -9 3.5 -18t11.5 -18.5t16.5 -17.5t23.5 -19.5t26 -19.5t30.5 -21.5t31.5 -22.5q49 -35 78 -64t50 -73.5t21 -97.5q0 -106 -60 -169.5t-165 -63.5z"/>
<glyph glyph-name="epsilon" horiz-adv-x="460" unicode="ε" d="M260 -12q-96 0 -157.5 39.5t-61.5 110.5q0 93 98 119v4q-36 12 -56 42t-20 64q0 67 57 101.5t143 34.5q90 0 164 -52l-43 -75q-55 38 -116 38q-41 0 -66 -16.5t-25 -45.5q0 -60 90 -60q17 0 65 4v-85q-42 3 -80 3q-98 0 -98 -65q0 -34 30.5 -53t86.5 -19q66 0 123 44 l46 -74q-80 -59 -180 -59z"/>
<glyph glyph-name="zeta" horiz-adv-x="445" unicode="ζ" d="M374 -186l-90 33q20 27 27 36.5t13.5 24t6.5 26.5q0 22 -20.5 33t-82.5 25q-84 18 -134 70t-50 163q0 95 74 206t179 191q-12 -1 -98.5 -3t-122.5 -4v91h349v-91h-5q-98 -64 -177.5 -180.5t-79.5 -203.5q0 -70 31 -102.5t101 -45.5q75 -15 106.5 -41t31.5 -78 q0 -66 -59 -150z"/>
<glyph glyph-name="eta" horiz-adv-x="552" unicode="η" d="M368 -178q8 314 8 471q0 61 -15.5 86t-53.5 25q-33 0 -59.5 -20.5t-59.5 -69.5v-314h-115v348q0 83 -9 143h104l8 -93h4q74 105 165 105q139 0 139 -195v-486h-116z"/>
<glyph glyph-name="theta" horiz-adv-x="536" unicode="θ" d="M268 82q95 0 101 235h-202q6 -235 101 -235zM268 624q-94 0 -101 -228h202q-7 228 -101 228zM268 -12q-101 0 -157.5 92.5t-56.5 275.5q0 177 57 269.5t157 92.5t157 -93t57 -269q0 -183 -56.5 -275.5t-157.5 -92.5z"/>
<glyph glyph-name="iota" horiz-adv-x="282" unicode="ι" d="M191 -12q-64 0 -91 36t-27 105v362h117q-8 -328 -8 -368q0 -41 37 -41q15 0 31 6l14 -86q-32 -14 -73 -14z"/>
<glyph glyph-name="kappa" horiz-adv-x="520" unicode="κ" d="M396 -10q-69 83 -143 226q-8 -10 -26 -32q-45 -52 -45 -157v-27h-109v348q0 90 -10 143h114q9 -37 9 -118v-122h4q61 101 133.5 169t150.5 83l10 -108q-76 -20 -158 -101q37 -74 92 -155.5t107 -138.5z"/>
<glyph glyph-name="lambda" horiz-adv-x="524" unicode="λ" d="M138 -10l-124 10l213 497l-5 18q-29 106 -102 106q-31 0 -67 -16l-26 94q48 19 106 19q78 0 125 -50t80 -159l180 -509h-123l-115 368h-4z"/>
<glyph glyph-name="uni03BC" horiz-adv-x="578" unicode="μ" d="M73 -178v669h115v-293q0 -58 18 -84.5t57 -26.5q31 0 56 17t51 62v325h116q-8 -328 -8 -368q0 -41 40 -41q15 0 30 6l15 -86q-31 -14 -73 -14q-92 0 -108 88h-4q-44 -84 -119 -84q-55 0 -78 34q1 -126 9 -204h-117z"/>
<glyph glyph-name="nu" horiz-adv-x="499" unicode="ν" d="M188 0q-50 273 -186 477l117 26q43 -70 83 -180.5t59 -204.5h4q84 183 101 373h114q-21 -131 -62.5 -245t-119.5 -246h-110z"/>
<glyph glyph-name="xi" horiz-adv-x="450" unicode="ξ" d="M380 -186l-91 33q20 27 27 36.5t13.5 24t6.5 26.5q0 22 -21 33.5t-82 24.5q-88 18 -137.5 61.5t-49.5 131.5q0 66 41 117t101 70v4q-44 18 -70 54.5t-26 83.5q0 71 59 108q-77 -3 -129 -7v91h408v-91h-116q-46 0 -76 -28t-30 -76q0 -43 31.5 -74.5t73.5 -31.5q38 0 69 7 v-92q-33 7 -76 7q-59 0 -100.5 -34.5t-41.5 -90.5q0 -57 33.5 -81.5t108.5 -37.5q76 -15 104 -40.5t28 -78.5q0 -65 -58 -150z"/>
<glyph glyph-name="omicron" horiz-adv-x="544" unicode="ο" d="M272 82q55 0 84 43.5t29 119.5t-29.5 120t-83.5 44t-83.5 -44t-29.5 -120t29 -119.5t84 -43.5zM272 -12q-97 0 -164 69.5t-67 187.5q0 119 67 188.5t164 69.5t164 -69.5t67 -188.5q0 -118 -67 -187.5t-164 -69.5z"/>
<glyph glyph-name="pi" horiz-adv-x="611" unicode="π" d="M504 -12q-128 0 -128 146q0 19 2 117t3 148h-143q0 -130 -27 -406l-116 7q35 205 35 399h-110v87l72 5h495v-92h-95q-7 -115 -7 -271q0 -25 11 -35.5t34 -10.5q10 0 38 5l14 -86q-33 -13 -78 -13z"/>
<glyph glyph-name="rho" horiz-adv-x="559" unicode="ρ" d="M288 83q47 0 78.5 44.5t31.5 124.5q0 156 -107 156q-49 0 -81 -42t-32 -117v-113q46 -53 110 -53zM69 -178v421q0 128 62.5 194t163.5 66q105 0 163 -66t58 -184q0 -120 -60.5 -192.5t-142.5 -72.5t-135 62q1 -38 3.5 -112t4.5 -116h-117z"/>
<glyph glyph-name="uni03C2" horiz-adv-x="439" unicode="ς" d="M333 -183l-92 32q51 65 51 95q0 25 -13.5 40t-49.5 26q-32 11 -55 22t-50 31.5t-43.5 45t-28 62.5t-11.5 85q0 114 67 180.5t165 66.5q82 0 144 -55l-56 -75q-41 36 -81 36q-55 0 -88 -42t-33 -111q0 -68 30 -100t89 -52q67 -23 91.5 -50t24.5 -82q0 -68 -61 -155z"/>
<glyph glyph-name="sigma" horiz-adv-x="560" unicode="σ" d="M269 82q49 0 78.5 40.5t29.5 111.5q0 68 -29 115.5t-78 47.5q-51 0 -81 -39.5t-30 -117.5q0 -73 30.5 -115.5t79.5 -42.5zM268 -12q-97 0 -162 67t-65 185q0 121 67.5 186t164.5 65h275v-96q-100 9 -147 10v-4q86 -48 86 -178q0 -108 -61.5 -171.5t-157.5 -63.5z"/>
<glyph glyph-name="tau" horiz-adv-x="476" unicode="τ" d="M300 -12q-65 0 -92.5 37t-27.5 109v266h-154v86l72 5h352v-91h-157q-4 -131 -4 -272q0 -46 39 -46q22 0 52 8l16 -87q-49 -15 -96 -15z"/>
<glyph glyph-name="upsilon" horiz-adv-x="521" unicode="υ" d="M254 -12q-97 0 -147 53t-50 149q0 27 2 79.5t2 78.5q0 84 -10 143h112q8 -39 8 -118q0 -22 -3 -90t-3 -101q0 -50 25.5 -75t64.5 -25q47 0 74 41t27 124q0 115 -36 231l112 25q40 -131 40 -251q0 -125 -58 -194.5t-160 -69.5z"/>
<glyph glyph-name="phi" horiz-adv-x="710" unicode="φ" d="M302 -178v169q-108 5 -184.5 73t-76.5 182t76 181.5t185 72.5v125h106v-125q109 -5 185 -72.5t76 -181.5t-76.5 -182t-184.5 -73v-169h-106zM550 246q0 77 -38.5 120.5t-103.5 46.5v-335q63 4 102.5 48.5t39.5 119.5zM159 246q0 -75 40 -119.5t103 -48.5v335 q-63 -3 -103 -47.5t-40 -119.5z"/>
<glyph glyph-name="chi" horiz-adv-x="504" unicode="χ" d="M127 -190l-118 12l190 342l-189 313l114 26l131 -237h4l106 225h120l-171 -324l200 -330l-113 -27l-142 262h-4z"/>
<glyph glyph-name="psi" horiz-adv-x="721" unicode="ψ" d="M306 -178v166q-126 2 -185.5 68t-59.5 174v118q0 83 -9 143h112q8 -45 8 -118q0 -25 -1 -80.5t-1 -70.5q0 -65 33.5 -103.5t102.5 -38.5v545h105v-545q72 2 107.5 47t35.5 142t-36 209l111 25q41 -117 41 -229q0 -136 -67 -210t-192 -76v-166h-105z"/>
<glyph glyph-name="uni03D1" horiz-adv-x="536" unicode="ϑ" d="M266 -12q-92 0 -138.5 48t-46.5 136q0 82 -8 115h108q9 -20 9 -99q0 -106 81 -106q47 0 71.5 52.5t27.5 194.5q-32 -4 -66 -4q-69 0 -119.5 19.5t-76.5 52t-38 65.5t-12 68q0 81 53.5 134.5t131.5 53.5q116 0 177.5 -92.5t61.5 -267.5q0 -193 -54.5 -281.5t-161.5 -88.5z M165 526q0 -126 151 -126q24 0 53 3q-9 221 -118 221h-3q-37 0 -60 -27.5t-23 -70.5z"/>
<glyph glyph-name="endash" horiz-adv-x="480" unicode="–" d="M42 214v76h396v-76h-396z"/>
<glyph glyph-name="emdash" horiz-adv-x="800" unicode="—" d="M42 214v76h716v-76h-716z"/>
<glyph glyph-name="quoteleft" horiz-adv-x="275" unicode="‘" d="M134 382q-37 0 -57.5 29t-20.5 82q0 131 124 196l28 -51q-83 -48 -83 -126q3 1 9 1q28 0 47 -17t19 -45q0 -31 -18.5 -50t-47.5 -19z"/>
<glyph glyph-name="quotesinglbase" horiz-adv-x="275" unicode="‚" d="M95 -157l-28 51q83 48 83 126q-3 -1 -9 -1q-27 0 -46 17t-19 45q0 31 18 50t47 19q38 0 58.5 -29t20.5 -82q0 -131 -125 -196z"/>
<glyph glyph-name="quotedblleft" horiz-adv-x="482" unicode="“" d="M341 382q-37 0 -57.5 29t-20.5 82q0 131 124 196l28 -51q-83 -48 -83 -126q3 1 9 1q28 0 47 -17t19 -45q0 -31 -18.5 -50t-47.5 -19zM134 382q-37 0 -57.5 29t-20.5 82q0 131 124 196l28 -51q-83 -48 -83 -126q3 1 9 1q28 0 47 -17t19 -45q0 -31 -18.5 -50t-47.5 -19z "/>
<glyph glyph-name="quotedblright" horiz-adv-x="482" unicode="”" d="M302 391l-28 51q83 48 83 126q-3 -1 -9 -1q-27 0 -46 17t-19 45q0 31 18 50t47 19q38 0 58.5 -29t20.5 -82q0 -131 -125 -196zM95 391l-28 51q83 48 83 126q-3 -1 -9 -1q-27 0 -46 17t-19 45q0 31 18 50t47 19q38 0 58.5 -29t20.5 -82q0 -131 -125 -196z"/>
<glyph glyph-name="dagger" horiz-adv-x="482" unicode="†" d="M194 -80l7 544l-152 -6v94l152 -7l-7 167h94l-6 -167l152 7v-94l-152 6l6 -544h-94z"/>
<glyph glyph-name="daggerdbl" horiz-adv-x="482" unicode="‡" d="M194 -80l7 167l-152 -7v94l152 -9l-7 151l7 151l-152 -9v94l152 -7l-7 167h94l-6 -167l152 7v-94l-152 9l6 -151l-6 -151l152 9v-94l-152 7l6 -167h-94z"/>
<glyph glyph-name="ellipsis" horiz-adv-x="964" unicode="…" d="M826 -12q-32 0 -53.5 22t-21.5 56t21.5 56t53.5 22t53 -22t21 -56t-21 -56t-53 -22zM493 -12q-32 0 -53.5 22t-21.5 56t21.5 56t53.5 22t53 -22t21 -56t-21 -56t-53 -22zM160 -12q-32 0 -53.5 22t-21.5 56t21.5 56t53.5 22t53 -22t21 -56t-21 -56t-53 -22z"/>
<glyph glyph-name="perthousand" horiz-adv-x="1222" unicode="‰" d="M1036 55q33 0 53 35t20 106q0 70 -20 104.5t-53 34.5t-53 -34.5t-20 -104.5q0 -71 20 -106t53 -35zM1036 -12q-70 0 -113 55.5t-43 152.5t43 151.5t113 54.5t113 -54.5t43 -151.5t-43 -152.5t-113 -55.5zM654 55q33 0 53 35t20 106q0 70 -20 104.5t-53 34.5t-53 -34.5 t-20 -104.5q0 -71 20 -106t53 -35zM654 -12q-70 0 -113 55.5t-43 152.5t43 151.5t113 54.5t113 -54.5t43 -151.5t-43 -152.5t-113 -55.5zM186 319q33 0 53 35t20 106q0 70 -20 104.5t-53 34.5t-53 -34.5t-20 -104.5q0 -71 20 -106t53 -35zM186 252q-70 0 -113 55.5 t-43 152.5t43 151.5t113 54.5t113 -54.5t43 -151.5t-43 -152.5t-113 -55.5zM205 -12l357 678h70l-356 -678h-71z"/>
<glyph glyph-name="uni2032" horiz-adv-x="275" unicode="′" d="M82 418l20 270l115 -1l-19 -109l-41 -160h-75z"/>
<glyph glyph-name="uni2033" horiz-adv-x="482" unicode="″" d="M289 418l20 270l115 -1l-19 -109l-41 -160h-75zM82 418l20 270l115 -1l-19 -109l-41 -160h-75z"/>
<glyph glyph-name="guilsinglleft" horiz-adv-x="282" unicode="‹" d="M182 61l-135 149v84l135 149l46 -37l-115 -154l115 -155z"/>
<glyph glyph-name="guilsinglright" horiz-adv-x="282" unicode="›" d="M99 61l-45 36l114 155l-114 154l45 37l136 -149v-84z"/>
<glyph glyph-name="uni203E" horiz-adv-x="500" unicode="‾" d="M12 566v70h476v-70h-476z"/>
<glyph glyph-name="fraction" horiz-adv-x="91" unicode="⁄" d="M-169 -12l357 678h70l-356 -678h-71z"/>
<glyph glyph-name="Euro" d="M328 -12q-93 0 -158 62t-85 175h-63v56l57 4q-1 10 -1 31q0 20 1 29h-57v56l63 4q20 115 88 179t167 64q94 0 156 -78l-65 -63q-44 51 -94 51q-54 0 -89 -39.5t-47 -112.5h234v-61h-240q-1 -8 -1 -25q0 -23 1 -34h200v-61h-193q14 -70 48 -108.5t85 -38.5q59 0 105 63 l65 -60q-73 -93 -177 -93z" unicode="€"/>
<glyph glyph-name="trademark" horiz-adv-x="660" unicode="™" d="M313 364v312h91l43 -107l25 -73h4l25 73l42 107h91v-312h-72v116l9 110h-4l-65 -179h-57l-65 179h-4l9 -110v-116h-72zM96 364v241h-93v71h265v-71h-94v-241h-78z"/>
<glyph glyph-name="uni2190" horiz-adv-x="618" unicode="←" d="M299 -16l-275 266v4l275 266l56 -63l-175 -159h398v-92h-398l175 -159z"/>
<glyph glyph-name="arrowup" horiz-adv-x="618" unicode="↑" d="M262 -25v397l-158 -175l-64 56l267 275h4l266 -275l-63 -56l-159 175v-397h-93z"/>
<glyph glyph-name="uni2192" horiz-adv-x="618" unicode="→" d="M318 -16l-56 63l174 159h-397v92h397l-174 159l56 63l275 -266v-4z"/>
<glyph glyph-name="arrowdown" horiz-adv-x="618" unicode="↓" d="M307 -25l-267 275l64 56l158 -175v397h93v-397l159 175l63 -56l-266 -275h-4z"/>
<glyph glyph-name="partialdiff" horiz-adv-x="553" unicode="∂" d="M246 82q52 0 89.5 43t53.5 128q-49 67 -117 67q-58 0 -89.5 -34.5t-31.5 -96.5q0 -49 27.5 -78t67.5 -29zM233 -12q-79 0 -134 53.5t-55 141.5q0 101 59.5 163.5t156.5 62.5q80 0 138 -66v27q0 202 -124 202q-59 0 -107 -48l-51 72q76 70 170 70q107 0 164.5 -75 t57.5 -218q0 -173 -76 -279t-199 -106z"/>
<glyph glyph-name="product" horiz-adv-x="692" unicode="∏" d="M84 -120v756h524v-756h-117v655h-291v-655h-116z"/>
<glyph glyph-name="summation" horiz-adv-x="520" unicode="∑" d="M24 -120v70l222 308l-211 308v70h452v-97h-311v-4l190 -277l-198 -276v-4h345v-98h-489z"/>
<glyph glyph-name="minus" d="M34 288v84h445v-84h-445z" unicode="−"/>
<glyph glyph-name="radical" horiz-adv-x="573" unicode="√" d="M279 -88l-150 420l-73 -31l-22 57l154 65l107 -320q13 -46 19 -73h4q8 51 14 73l167 717h79l-216 -908h-83z"/>
<glyph glyph-name="infinity" horiz-adv-x="798" unicode="∞" d="M575 237q44 0 71 28.5t27 69.5q0 48 -28.5 76.5t-76.5 28.5q-75 0 -142 -95q41 -55 74.5 -81.5t74.5 -26.5zM210 238q64 0 118 78q-61 86 -122 86q-37 0 -59 -21.5t-22 -56.5q0 -37 23.5 -61.5t61.5 -24.5zM575 130q-61 0 -108 29t-95 91h-4q-80 -98 -169 -98 q-66 0 -113.5 49.5t-47.5 118.5q0 88 49 138.5t128 50.5q93 0 167 -98h4q86 114 193 114q78 0 129.5 -53t51.5 -134q0 -95 -52.5 -151.5t-132.5 -56.5z"/>
<glyph glyph-name="approxequal" d="M343 136q-34 0 -66 20t-59 40t-50 20q-42 0 -74 -59l-62 46q60 97 138 97q34 0 66 -20t59 -40t50 -20q42 0 74 59l61 -47q-59 -96 -137 -96zM343 360q-34 0 -66 20t-59 40t-50 20q-42 0 -74 -59l-62 46q60 97 138 97q34 0 66 -20t59 -40t50 -20q42 0 74 59l61 -47 q-59 -96 -137 -96z" unicode="≈"/>
<glyph glyph-name="notequal" d="M56 52l74 124h-96v84h143l82 140h-225v84h272l74 124h77l-74 -124h96v-84h-143l-82 -140h225v-84h-272l-74 -124h-77z" unicode="≠"/>
<glyph glyph-name="lessequal" d="M34 0v83h445v-83h-445zM479 153l-445 148v98l445 148v-97l-191 -59l-137 -39v-4l137 -39l191 -59v-97z" unicode="≤"/>
<glyph glyph-name="greaterequal" d="M34 0v83h445v-83h-445zM34 153v97l191 59l137 39v4l-137 39l-191 59v97l445 -148v-98z" unicode="≥"/>
<glyph glyph-name="lozenge" horiz-adv-x="533" unicode="◊" d="M264 87h4l58 126l55 117l-55 116l-58 127h-4l-58 -127l-54 -116l54 -117zM218 -10l-164 340l164 340h97l164 -340l-164 -340h-97z"/>
</font>
</defs>
</svg>
